<svg width="81" height="80" viewBox="0 0 81 80" fill="none" xmlns="http://www.w3.org/2000/svg">
<circle cx="40.6353" cy="40" r="25" fill="#3D1B64"/>
<path d="M65.7018 55.0972V55.0299C65.6739 54.5404 65.6279 53.7239 65.2084 52.8637C65.2084 52.703 65.2084 52.5277 65.2084 52.3288C65.249 50.6803 65.1524 49.0726 65.0586 47.515C65.04 47.2013 65.0213 46.888 65.0027 46.5749C64.9749 46.1585 64.924 45.744 64.8502 45.3333C64.8169 45.128 64.7853 44.9346 64.7717 44.7883C64.6184 43.1607 63.6296 41.8819 62.0581 41.2815L61.6855 41.138C61.0035 40.8755 60.2981 40.6049 59.5601 40.3606C57.874 39.8029 56.0328 39.3769 53.7666 39.0218C51.1459 38.6112 49.1278 38.3742 47.2225 38.2534C43.8612 38.0408 41.1412 37.9564 38.608 37.9882C38.2747 37.2822 37.8336 36.6331 37.3008 36.0645C37.23 35.9172 37.1779 35.7616 37.1457 35.6012L37.1348 35.5567C36.9706 34.8992 36.774 34.1199 36.3725 33.3197C36.3641 32.7613 36.2445 32.2103 36.0209 31.6992C35.7973 31.1882 35.4742 30.7274 35.0708 30.3442C34.9325 29.6345 34.7416 28.9362 34.4997 28.2552C34.3288 27.7665 34.1231 27.2909 33.8844 26.8319C32.9769 25.1062 31.3377 24.188 29.3846 24.3142C28.0016 24.4051 26.588 24.7039 25.0543 25.237C24.1143 25.5649 22.8757 26.0045 21.6344 26.5022C20.8802 26.8047 20.1476 27.1271 19.4395 27.4396C19.0786 27.6003 18.7087 27.762 18.3416 27.92C16.8341 28.564 15.8959 29.8428 15.756 31.4269C15.7452 31.5522 15.729 31.6775 15.7145 31.802C15.6776 32.1144 15.6352 32.4677 15.6243 32.8683C15.6054 33.5431 15.6036 34.2098 15.6009 34.8547V34.881C15.1886 35.5649 14.9802 36.3751 14.9793 37.3033C14.9793 37.8483 14.9721 38.3933 14.9649 38.9382C14.9549 39.7057 14.945 40.5004 14.9531 41.2997C14.9613 42.099 14.982 42.911 15.0028 43.7157C15.0307 44.8201 15.0578 45.8628 15.0533 46.9137C15.0461 48.5486 15.0109 50.475 14.798 52.3887C14.6293 53.9137 14.5661 55.435 14.5111 56.9891C14.4804 57.8783 14.494 58.7457 14.5066 59.584C14.5111 59.8937 14.5165 60.2025 14.5183 60.5122C14.5112 61.4221 14.6639 62.3262 14.9694 63.1825C15.1781 63.7506 15.5237 64.2575 15.9752 64.6578C16.4266 65.0581 16.9698 65.3392 17.5558 65.4759C17.9817 65.5761 18.4167 65.6321 18.854 65.643L19.6542 65.6603C20.4192 65.6784 21.2058 65.6975 21.9997 65.6975C22.2 65.6975 22.4012 65.696 22.6032 65.693C23.7165 65.6784 24.8291 65.6669 25.9411 65.6585C29.5731 65.6267 33.3278 65.5931 37.0518 65.3905C37.6103 65.3606 38.1885 65.3569 38.8011 65.3542C39.3072 65.3542 39.8313 65.3487 40.3672 65.3297C41.7204 65.2824 43.0673 65.2234 44.4178 65.1644L46.2825 65.0844C47.3085 65.0415 48.3339 65 49.3588 64.96C49.7945 64.9437 50.2293 64.9237 50.6651 64.9037C51.6836 64.8574 52.6498 64.8129 53.6033 64.8129C55.7612 64.8129 57.92 64.7166 60.0085 64.6267C60.5786 64.6012 61.15 64.577 61.7225 64.554C62.0325 64.5382 62.3411 64.5017 62.6463 64.445C64.2016 64.1825 65.4177 62.8537 65.5331 61.2888C65.5548 61.0109 65.5701 60.7311 65.5855 60.4523C65.6044 60.0835 65.6234 59.7348 65.6594 59.4223C65.8417 57.8919 65.7794 56.4468 65.7018 55.0972Z" fill="white"/>
<path d="M51.7899 53.3612C51.5806 53.2931 51.4083 53.2059 51.2279 53.1795C50.1183 53.0315 49.0068 52.8943 47.8954 52.7617C47.6176 52.729 47.337 52.7218 47.0573 52.7127C46.6306 52.6991 46.4258 52.8635 46.4258 53.2704C46.4258 54.3984 46.4258 55.5265 46.4646 56.6527C46.4955 57.3092 46.4834 57.967 46.4285 58.6219C46.36 59.3685 46.3501 60.1214 46.3293 60.8716C46.3221 61.1232 46.5097 61.2967 46.7804 61.2885C48.2238 61.2449 49.6696 61.1962 51.1178 61.1423C51.4643 61.1287 51.6321 60.9606 51.6736 60.6364C51.9731 58.2985 51.9812 55.9516 51.8874 53.6019C51.8637 53.5183 51.831 53.4376 51.7899 53.3612ZM50.6641 59.5038C50.6117 59.9234 50.3357 60.1814 49.9027 60.1959C49.3908 60.2047 48.8789 60.1859 48.369 60.1396C48.2747 60.1282 48.1867 60.0858 48.1187 60.019C48.0507 59.9521 48.0064 59.8646 47.9928 59.7699C47.6874 58.2386 47.7107 56.6592 48.0614 55.1378C48.1227 54.8753 48.3005 54.6264 48.4692 54.4057C48.5614 54.2825 48.679 54.181 48.814 54.108C48.9489 54.035 49.098 53.9924 49.2509 53.9831C49.4039 53.9738 49.557 53.998 49.6997 54.054C49.8424 54.11 49.9714 54.1965 50.0777 54.3076C50.2732 54.5097 50.4247 54.7507 50.5224 55.0151C50.6473 55.3706 50.7252 55.741 50.7543 56.1169C50.7922 56.6328 50.7642 57.1532 50.7642 57.6718H50.8264C50.7741 58.284 50.7416 58.8971 50.6641 59.5038Z" fill="#FFD261"/>
<path d="M49.6329 55.3339C49.475 55.0932 49.1042 55.1114 48.9436 55.3693C48.7613 55.6401 48.6485 55.9522 48.6152 56.2776C48.5539 57.1613 48.5025 58.0451 48.6152 58.9297C49.0663 59.2022 49.4831 59.2975 49.9044 58.897C50.028 58.0142 49.9847 57.1277 49.9477 56.2421C49.9271 55.9161 49.8182 55.602 49.6329 55.3339Z" fill="#000032"/>
<path d="M55.5709 55.975C55.5452 55.9397 55.5115 55.9111 55.4726 55.8917C55.4336 55.8722 55.3906 55.8625 55.3472 55.8633C55.2732 55.8697 55.1541 55.9451 55.1424 56.0077C54.9845 56.8397 54.8456 57.6762 54.8871 58.5291C54.8816 58.6701 54.9049 58.8108 54.9556 58.9424C55.0224 59.0597 55.124 59.1531 55.2461 59.2094C55.3859 59.2739 55.607 59.0886 55.6349 58.9006C55.7062 58.3874 55.7703 57.8733 55.8325 57.3929C55.7991 57.0741 55.7811 56.7916 55.7351 56.5136C55.7036 56.3277 55.6484 56.1467 55.5709 55.975Z" fill="#000032"/>
<path d="M49.6961 51.8195C47.8504 51.4807 45.9847 51.3009 44.12 51.1292C43.3289 51.0566 42.5287 51.0747 41.733 51.0684C41.604 51.0684 41.4732 51.1592 41.3487 51.2137C41.3297 51.2228 41.3397 51.2991 41.3406 51.3436C41.3415 51.3881 41.3288 51.4562 41.3532 51.4789C41.5408 51.6515 41.7781 51.646 42.0117 51.656C45.2874 51.7922 48.5658 51.8803 51.8062 52.4553C52.0272 52.4943 52.2708 52.5552 52.6461 52.2945C51.5356 52.1174 50.6127 51.9875 49.6961 51.8195Z" fill="#FFD261"/>
<path d="M38.1135 55.095C37.8781 55.0569 37.6624 55.2767 37.5343 55.7717C37.242 56.9079 37.1392 58.0678 37.1338 59.2385C37.1338 59.4075 37.3377 59.5782 37.5145 59.5719C37.888 59.5583 38.2551 59.5165 38.6764 59.2567C38.7667 58.66 38.8569 58.1078 38.9426 57.5555C38.957 57.4647 38.9642 57.3739 38.9732 57.2767C39.0337 56.7072 38.985 56.155 38.6936 55.6473C38.5556 55.4066 38.432 55.1523 38.1135 55.095Z" fill="#000032"/>
<path d="M43.4703 58.5502C43.0932 57.8363 42.7531 57.1315 42.6656 56.3168C42.6413 56.0915 42.533 55.8717 42.4383 55.661C42.4147 55.624 42.383 55.5928 42.3456 55.57C42.3083 55.5472 42.2662 55.5333 42.2227 55.5293C42.1722 55.5293 42.0711 55.6365 42.072 55.6937C42.1171 57.4787 42.171 59.2632 42.2335 61.047C42.238 61.1714 42.3291 61.3694 42.4049 61.3885C43.0752 61.5584 43.7247 61.4494 44.3734 61.3958C44.4897 61.3867 44.6557 61.1951 44.6206 61.1142C44.2426 60.2568 43.9061 59.3767 43.4703 58.5502Z" fill="#FFD261"/>
<path d="M41.2901 55.5829C41.2738 54.7654 41.1629 54.0007 40.6757 53.3122C40.5169 53.0888 40.4358 52.81 40.2923 52.4993C39.1818 52.4993 38.2003 52.4712 37.2251 52.5048C35.0861 52.5774 35.1989 52.4303 35.1637 54.6619C35.1321 56.6873 35.1249 58.7128 35.1096 60.7391C35.0963 60.927 35.1105 61.1158 35.152 61.2995C35.1743 61.3626 35.2093 61.4204 35.2548 61.4693C35.3002 61.5182 35.3552 61.5572 35.4163 61.5838C35.5939 61.6393 35.7799 61.6626 35.9657 61.6528C37.5564 61.6262 39.1472 61.5959 40.738 61.562C40.8778 61.5695 41.0176 61.5488 41.1493 61.5011C41.2621 61.4485 41.4037 61.3349 41.42 61.2287C41.4608 60.9494 41.4741 60.6668 41.4597 60.3849C41.4037 58.7854 41.3226 57.1842 41.2901 55.5829ZM39.7564 57.1142C39.6798 57.9108 39.6184 58.7091 39.5264 59.5039C39.4856 59.7337 39.4143 59.957 39.3144 60.1678C39.2967 60.2104 39.2702 60.2486 39.2366 60.2799C39.2029 60.3113 39.163 60.335 39.1195 60.3495C38.4294 60.4603 37.7393 60.5665 37.0446 60.6483C36.9744 60.6568 36.9031 60.6504 36.8355 60.6296C36.7678 60.6087 36.7052 60.5739 36.6517 60.5273C36.5982 60.4807 36.555 60.4234 36.5248 60.3589C36.4946 60.2945 36.478 60.2245 36.4763 60.1533C36.4609 59.6828 36.4763 59.2114 36.4763 58.74C36.4515 57.7969 36.5424 56.8542 36.7469 55.9335C36.8445 55.5218 36.9671 55.1165 37.1141 54.72C37.1923 54.549 37.3057 54.3966 37.447 54.2732C37.8926 53.8445 38.5512 53.8654 38.9409 54.3413C39.151 54.5936 39.3239 54.875 39.4542 55.1769C39.7141 55.7871 39.8189 56.453 39.7592 57.1142H39.7564Z" fill="#FFD261"/>
<path d="M45.3352 52.5975C44.1715 52.5557 43.0077 52.52 41.844 52.4903C41.6211 52.4849 41.4831 52.8173 41.6148 53.0271C41.7087 53.1886 41.8148 53.3426 41.9324 53.4876C42.1768 53.771 42.433 54.0453 42.692 54.3159C43.2585 54.9063 43.5941 55.612 43.7808 56.4049C44.1065 57.7918 44.3176 58.2215 45.3695 59.7819C45.3966 59.7519 45.4399 59.7264 45.4453 59.691C45.8458 57.4576 45.7322 55.2051 45.6997 52.9553C45.6876 52.8632 45.6451 52.7777 45.579 52.7128C45.5129 52.6479 45.427 52.6073 45.3352 52.5975Z" fill="#FFD261"/>
<path d="M61.8046 60.228C61.8705 59.525 61.9444 58.8211 61.985 58.1154C62.0265 57.3188 62.0753 56.5186 61.9264 55.7221C60.9485 55.1526 59.8795 55.0427 58.7834 54.8184C58.5452 56.0145 58.6029 57.1971 58.4757 58.3606C58.3909 59.1435 58.307 59.9537 58.4902 60.891C59.414 61.0227 60.2493 60.9255 61.082 60.8783C61.6476 60.8465 61.7604 60.7421 61.8046 60.228ZM61.0162 58.1272C60.9855 58.4269 60.944 58.9373 60.8727 59.4442C60.857 59.5376 60.8111 59.6231 60.742 59.6875C60.673 59.7519 60.5848 59.7915 60.4911 59.8002C60.2609 59.8203 60.0291 59.8118 59.801 59.7748C59.5917 59.7448 59.3743 59.495 59.3499 59.2907C59.2444 58.2552 59.3237 57.2416 59.7225 56.2689C59.7741 56.1381 59.8674 56.0282 59.9878 55.9566C60.1081 55.8849 60.2486 55.8555 60.3874 55.8729C60.5251 55.8883 60.6549 55.9454 60.7599 56.0364C60.8649 56.1275 60.94 56.2484 60.9756 56.3833C61.1289 56.8928 61.027 57.4042 61.0162 58.1272Z" fill="#FFD261"/>
<path d="M57.791 54.5979C56.2123 54.0448 54.6128 53.745 52.9953 53.5298C52.9141 53.5189 52.7373 53.6969 52.7247 53.8023C52.6632 54.1734 52.6411 54.55 52.6588 54.9258C52.749 56.1065 52.6768 57.2782 52.6083 58.4535C52.5677 59.1574 52.5433 59.8631 52.5235 60.5688C52.5154 60.8413 52.6841 61.023 52.9439 61.023C54.1581 61.023 55.373 61.0142 56.5885 60.9966C56.8591 60.9966 57.1487 61.042 57.4969 60.8295C57.727 59.3227 57.948 56.4108 57.9011 55.3091C57.8773 55.0702 57.8406 54.8328 57.791 54.5979ZM56.5064 57.8377C56.4649 58.3263 56.4234 58.9803 56.3485 59.6297C56.3079 59.9812 56.0499 60.2164 55.6927 60.2573C55.4165 60.2876 55.1384 60.2961 54.8609 60.2827C54.6961 60.276 54.5402 60.2058 54.4254 60.0866C54.3105 59.9674 54.2456 59.8084 54.2438 59.6424C54.1924 58.3318 54.1275 57.0202 54.4243 55.726C54.4567 55.5897 54.4775 55.4535 54.5145 55.3154C54.6715 54.7459 55.1532 54.498 55.7089 54.7269C55.8779 54.7974 56.0232 54.9153 56.1275 55.0666C56.3258 55.3863 56.4398 55.7518 56.4586 56.1283C56.4721 56.3154 56.4965 56.5016 56.5001 56.6887C56.51 57.0166 56.5046 57.3436 56.5046 57.8377H56.5064Z" fill="#FFD261"/>
<path d="M28.652 53.4487C28.625 53.802 28.5961 54.0772 28.5844 54.3569C28.523 55.8101 28.4581 57.2634 28.4112 58.7166C28.3823 59.6076 28.3787 60.5004 28.376 61.3923C28.3766 61.4511 28.3887 61.5092 28.4118 61.5633C28.4348 61.6173 28.4683 61.6661 28.5103 61.707C28.5522 61.7479 28.6018 61.78 28.6562 61.8015C28.7106 61.8229 28.7687 61.8333 28.827 61.8319C30.5077 61.8583 32.1875 61.8547 33.8637 61.7166C33.9836 61.7066 34.0964 61.5958 34.229 61.5222C34.2552 61.326 34.2859 61.1426 34.3021 60.9582C34.5303 58.3796 34.4708 55.7938 34.506 53.2107C34.506 53.0854 34.4104 52.96 34.3634 52.8474C33.2701 52.8056 30.92 53.0508 28.652 53.4487ZM32.847 59.7775C32.8361 60.2488 32.6413 60.5041 32.2299 60.5949C31.4946 60.7469 30.7385 60.7672 29.9962 60.6548C29.7968 60.6285 29.685 60.4659 29.6218 60.2797C29.6023 60.2366 29.5883 60.1911 29.5803 60.1444C29.5109 59.0154 29.4531 57.8855 29.5948 56.7584C29.6577 56.2423 29.8103 55.7415 30.0458 55.2788C30.2382 54.8962 30.5573 54.5932 30.948 54.4223C31.5217 54.1607 32.0991 54.3442 32.3697 54.9037C32.6178 55.4151 32.8064 55.9482 32.8208 56.525C32.8352 57.1017 32.8208 57.6557 32.8208 58.2216H32.8515C32.8479 58.7402 32.8569 59.2588 32.8452 59.7775H32.847Z" fill="#FFD261"/>
<path d="M27.6794 35.3278C27.5739 35.3514 27.4764 35.5167 27.4232 35.6366C27.3713 35.7669 27.3471 35.9067 27.3519 36.0471C27.3646 37.7389 27.3808 39.4313 27.4006 41.1243C27.4006 41.3114 27.4196 41.4994 27.5757 41.6393C27.6571 41.6726 27.7433 41.6926 27.831 41.6983C29.6352 41.4997 31.4395 41.2963 33.2438 41.088C33.2844 41.0834 33.3196 41.0353 33.3574 41.0071C33.3814 40.97 33.3991 40.9292 33.4098 40.8863C33.4287 40.5585 33.4305 40.2288 33.4612 39.9027C33.478 39.7177 33.5209 39.5361 33.5884 39.3632C33.6139 39.2986 33.6629 39.2463 33.7255 39.2169C33.788 39.1875 33.8594 39.1833 33.9249 39.2051C34.0104 39.2284 34.0841 39.2832 34.1315 39.3586C34.1905 39.484 34.2248 39.6197 34.2325 39.7583C34.2469 40.0862 34.2325 40.4159 34.2406 40.7437C34.2451 40.9499 34.3886 41.0771 34.6015 41.0843C35.1915 41.1052 35.3638 40.8836 35.2231 40.3214C35.1258 39.8603 34.9134 39.4317 34.606 39.0762C33.8924 38.2923 33.5036 37.3423 33.2627 36.3223C33.1869 36.0035 33.1355 35.6756 33.0345 35.3659C32.8766 34.8863 32.4743 34.622 31.9636 34.6438C30.5076 34.7074 29.0921 35.0162 27.6794 35.3278ZM31.407 39.6211C31.3989 39.7155 31.3628 39.8053 31.3035 39.8788C31.2442 39.9523 31.1643 40.0062 31.0741 40.0335C30.7615 40.1278 30.4433 40.2025 30.1215 40.2569C28.6781 40.4849 28.6131 40.4268 28.6212 38.8573C28.5788 38.2442 28.706 37.5512 28.9271 36.8773C29.1192 36.2914 29.6235 36.0053 30.246 36.0789C30.3865 36.0889 30.5228 36.1314 30.6444 36.2031C30.766 36.2747 30.8695 36.3737 30.9469 36.4921C31.1174 36.7646 31.2861 37.0671 31.3511 37.3786C31.4981 38.1173 31.517 38.876 31.407 39.6211Z" fill="#FFD261"/>
<path d="M19.2789 35.3457C19.2924 35.4502 19.5044 35.5819 19.6082 35.5356C20.1639 35.2912 20.7016 34.9988 21.2717 34.799C23.6074 33.9815 25.8961 33.006 28.3544 32.5846C29.1825 32.4429 30.0134 32.3121 30.8434 32.1777C31.0238 32.1477 31.216 32.1359 31.3892 31.8989C31.3332 30.8662 30.9859 29.8562 30.5033 28.8907C30.192 28.2685 29.8402 28.0996 29.1194 28.2086C28.0107 28.3766 26.9028 28.5719 25.8464 28.967C24.4932 29.4783 23.14 29.9906 21.7868 30.5283C21.0074 30.8389 20.2478 31.1986 19.4007 31.5719C19.2203 32.8562 19.2203 34.0306 19.2573 35.2049C19.2618 35.2522 19.269 35.2992 19.2789 35.3457ZM27.3241 30.7535C27.4261 30.4811 27.5894 30.2594 27.8862 30.2086C28.1115 30.174 28.3394 30.1594 28.5673 30.165C28.7531 30.165 29.0391 30.4184 29.0635 30.581C29.0878 30.7435 28.8966 31.0987 28.7279 31.1432C28.4653 31.2122 28.1956 31.2522 27.9692 31.2967C27.7887 31.2631 27.6516 31.2413 27.5181 31.2131C27.3846 31.185 27.2664 30.9089 27.3241 30.7535ZM25.1762 31.0623C25.3275 30.9176 25.5077 30.8067 25.7047 30.7372C25.9017 30.6677 26.1112 30.6411 26.3192 30.6591C26.3884 30.6635 26.4544 30.6903 26.5074 30.7354C26.5604 30.7806 26.5975 30.8417 26.6133 30.9098C26.6656 31.0832 26.7278 31.2976 26.5564 31.4311C26.1939 31.7252 25.7316 31.865 25.2682 31.8207C25.1383 31.808 25.0066 31.7435 24.9975 31.4574C25.0255 31.3857 25.0562 31.1741 25.1762 31.0623ZM22.9686 31.6981C23.2534 31.5518 23.549 31.4279 23.8527 31.3276C24.1306 31.2267 24.394 31.4693 24.3588 31.7926C24.3659 31.8844 24.3468 31.9763 24.3038 32.0575C24.2608 32.1387 24.1957 32.206 24.1162 32.2513C23.781 32.396 23.4379 32.5215 23.0886 32.6273C22.9389 32.6772 22.7467 32.4865 22.7278 32.3021C22.698 32.0551 22.7539 31.8207 22.9686 31.7018V31.6981ZM20.0728 33.3421C20.1045 33.2062 20.1635 33.0783 20.246 32.9661C20.6068 32.5119 21.1012 32.2658 21.6587 32.1386C21.85 32.095 22.1098 32.3612 22.08 32.6891C22.0385 32.759 21.9844 32.9815 21.8491 33.0596C21.4036 33.3037 20.9452 33.5233 20.476 33.7172C20.4126 33.7492 20.3393 33.7548 20.2718 33.7329C20.2043 33.711 20.1481 33.6633 20.1152 33.6C20.0731 33.5212 20.0581 33.4304 20.0728 33.3421Z" fill="#FFD261"/>
<path d="M24.5473 40.5296C24.661 40.4723 24.8107 40.3733 24.8324 40.2698C24.9388 39.7603 24.928 39.2489 24.6844 38.7721C24.6594 38.7373 24.6264 38.7091 24.5882 38.69C24.5501 38.6709 24.5079 38.6613 24.4652 38.6622C24.4209 38.6704 24.3792 38.6891 24.3433 38.7165C24.3074 38.7439 24.2784 38.7795 24.2586 38.8202C24.1829 39.0845 24.1368 39.3579 24.1152 39.456C24.1152 39.8647 24.1098 40.0972 24.1152 40.3297C24.1215 40.495 24.3624 40.6204 24.5473 40.5296Z" fill="#000032"/>
<path d="M30.0511 37.2122C29.8445 37.194 29.6 37.382 29.5414 37.6163C29.4079 38.1213 29.3609 38.6263 29.5035 39.1313C29.8102 39.2694 30.0826 39.2149 30.3551 39.1604C30.5355 39.124 30.7096 38.9324 30.6916 38.7689C30.651 38.3956 30.6068 38.0214 30.5418 37.6527C30.5128 37.5384 30.4506 37.4355 30.3632 37.3571C30.2758 37.2786 30.1671 37.2281 30.0511 37.2122Z" fill="#000032"/>
<path d="M26.3128 41.9545C26.3922 41.9372 26.4571 41.8518 26.5916 41.7519C26.6818 39.9754 26.643 38.1479 26.6412 36.3223C26.6262 36.0953 26.5961 35.8695 26.551 35.6466C25.4377 35.6384 23.3682 36.3078 22.1964 37.0362C22.1061 38.1852 22.1621 40.8609 22.3028 42.0971C22.329 42.3241 22.3028 42.5712 22.5798 42.8137C23.7886 42.5412 25.0435 42.2288 26.3128 41.9545ZM23.2834 40.1942C23.3132 39.6693 23.3114 39.286 23.3628 38.9172C23.4082 38.5906 23.4877 38.2697 23.6001 37.9599C23.6555 37.817 23.747 37.6911 23.8654 37.5946C23.9839 37.498 24.1252 37.4342 24.2756 37.4094C24.426 37.3845 24.5802 37.3996 24.723 37.4529C24.8659 37.5063 24.9925 37.5962 25.0904 37.7138C25.2618 37.9272 25.4296 38.1924 25.4684 38.454C25.5794 39.1979 25.6425 39.9508 25.6867 40.702C25.7138 41.1561 25.5063 41.3959 25.076 41.5239C24.8955 41.5784 24.7151 41.6357 24.5347 41.6729C23.5189 41.8791 23.2834 41.6774 23.2834 40.613V40.1942Z" fill="#FFD261"/>
<path d="M25.3871 55.9253C25.3086 55.8417 25.0705 55.8454 25.0136 55.9362C24.9162 56.0915 24.7809 56.245 24.7493 56.4167C24.6546 56.9208 24.5905 57.4312 24.5364 57.9416C24.4074 59.1542 24.365 59.6092 26.0592 59.1496C26.0682 58.6265 26.08 58.1633 26.0818 57.701C26.0818 57.1723 25.9067 56.691 25.6596 56.2359C25.5822 56.1212 25.4906 56.0168 25.3871 55.9253Z" fill="#000032"/>
<path d="M39.4424 51.6482C39.6258 51.6389 39.8066 51.6006 39.9782 51.5346C40.0251 51.5183 40.0423 51.3893 40.0558 51.3094C40.0558 51.2881 40.0511 51.2671 40.0423 51.2478C40.0334 51.2286 40.0205 51.2114 40.0044 51.1977C39.8113 51.0315 39.5714 51.0442 39.3404 51.0442C37.7966 51.0442 36.2533 51.0442 34.7107 51.0442C34.7107 51.0651 34.7107 51.085 34.7107 51.105C33.7291 51.1341 32.7467 51.1495 31.7661 51.1959C29.1436 51.3185 26.5662 51.7953 23.9987 52.3021C22.5345 52.5909 21.0956 53.0133 19.6531 53.4029C19.3013 53.4983 18.9197 53.571 18.6391 53.8471C18.6103 53.8752 18.6085 53.9315 18.5949 53.9742C18.5845 53.9953 18.5802 54.0189 18.5823 54.0423C18.5845 54.0658 18.593 54.0882 18.607 54.107C18.6211 54.1258 18.64 54.1404 18.6618 54.149C18.6835 54.1576 18.7072 54.16 18.7302 54.1559C18.961 54.1573 19.1915 54.14 19.4195 54.1041C20.2016 53.9633 20.9757 53.7735 21.765 53.6627C24.7727 53.2385 27.7498 52.63 30.7774 52.3366C33.6624 52.0642 36.5393 51.6909 39.4424 51.6482Z" fill="#FFD261"/>
<path d="M31.675 55.5644C31.6158 55.4943 31.5343 55.4469 31.4444 55.4303C31.3544 55.4138 31.2615 55.4291 31.1815 55.4736C30.615 55.7615 30.421 56.291 30.3371 56.8578C30.2831 57.325 30.262 57.7954 30.274 58.2656C30.2658 59.5644 30.1414 59.9332 32.0223 59.4781C32.071 58.5345 32.1125 57.6471 32.0566 56.7579C32.0446 56.3317 31.9122 55.9177 31.675 55.5644Z" fill="#000032"/>
<path d="M27.5756 53.5922C27.4363 53.5813 27.2964 53.5813 27.157 53.5922C26.2305 53.7266 25.3049 53.8646 24.3812 54.0118C23.8778 54.0917 23.378 54.1934 22.9558 54.2743C22.8758 54.3474 22.8137 54.4382 22.7744 54.5395C22.7351 54.6408 22.7197 54.7499 22.7294 54.8583C22.7456 56.8855 22.7636 58.914 22.7835 60.9437C22.7851 61.0851 22.799 61.2261 22.825 61.3651C22.8863 61.6912 22.9865 61.8837 23.3735 61.8819C24.6843 61.8755 25.9951 61.8556 27.305 61.8338C27.3952 61.8338 27.4746 61.7638 27.5621 61.7257C27.591 61.1202 27.6192 60.5125 27.6469 59.9028C27.7353 57.9246 27.8228 55.9467 27.9094 53.9691C27.91 53.8758 27.8761 53.7857 27.8145 53.716C27.7528 53.6464 27.6677 53.6023 27.5756 53.5922ZM26.7718 59.4441C26.7402 59.9691 26.4777 60.2152 25.9888 60.2952C25.3004 60.4078 24.6085 60.4895 23.8426 60.3733C23.5548 58.9128 23.7262 57.6058 23.9157 56.3042C23.9689 55.9409 24.1232 55.5831 24.2693 55.2398C24.4272 54.8692 24.7339 54.6221 25.1308 54.604C25.343 54.5911 25.5543 54.64 25.7397 54.7446C25.9251 54.8493 26.0767 55.0054 26.1764 55.1943C26.2477 55.3151 26.3045 55.4441 26.3722 55.5676C26.6163 56.0263 26.7579 56.5331 26.7872 57.0527C26.8312 57.8494 26.8261 58.6481 26.7718 59.4441Z" fill="#FFD261"/>
<path d="M21.2327 54.5012C20.5895 54.6039 19.9454 54.7083 19.3067 54.8364C19.036 54.89 18.7861 55.0071 18.4767 55.1089C18.1546 58.5003 18.1745 60.226 18.5371 61.682C19.6856 61.9417 21.1533 61.9617 21.995 61.7129C22.0022 60.1852 22.0077 58.642 22.0176 57.0989C22.0176 56.4894 22.0392 55.88 22.0437 55.2714C22.0483 54.5802 21.8642 54.4013 21.2327 54.5012ZM21.1804 59.3977C21.1443 59.9971 20.8854 60.2088 20.2783 60.1761C20.0148 60.1624 19.8028 60.0144 19.774 59.7837C19.7241 59.4153 19.694 59.0445 19.6838 58.6729C19.6676 57.8328 19.7405 56.9933 19.9012 56.1688C19.9233 56.077 19.9726 55.9942 20.0425 55.9313C20.1124 55.8683 20.1997 55.8283 20.2927 55.8164C20.385 55.8029 20.4791 55.8124 20.5669 55.8441C20.6546 55.8758 20.7333 55.9286 20.7961 55.998C20.9947 56.1989 21.1154 56.4647 21.1362 56.7474C21.1957 57.2551 21.2093 57.7683 21.2417 58.2796H21.1894C21.1849 58.652 21.203 59.0262 21.1804 59.3977Z" fill="#FFD261"/>
<path d="M18.7961 43.9222C19.7253 43.6352 20.6229 43.4363 21.4348 43.0603C21.6071 42.6062 21.5431 42.1784 21.5313 41.7606C21.4944 40.4454 21.4411 39.1266 21.3834 37.8169C21.3671 37.7267 21.3328 37.6407 21.2824 37.5644C21.2616 37.5253 21.2165 37.499 21.1488 37.4336C20.2085 37.6742 19.3356 38.1291 18.5976 38.7633C18.4253 40.2828 18.6427 41.7796 18.6788 43.2783C18.6833 43.459 18.7428 43.637 18.7961 43.9222ZM19.4501 39.3964C19.5349 39.113 19.7749 38.885 20.0383 38.8777C20.1777 38.8816 20.3129 38.9268 20.4269 39.0076C20.541 39.0883 20.6289 39.2011 20.6797 39.3319C20.7265 39.4642 20.7603 39.6008 20.7808 39.7397C20.8487 40.439 20.9089 41.139 20.9612 41.8396C20.9919 42.2202 20.8313 42.4472 20.4614 42.5798C20.3712 42.6107 20.281 42.6334 20.1908 42.6561C19.8425 42.7469 19.6089 42.638 19.5512 42.3264C19.4835 41.9586 19.4402 41.5862 19.4023 41.2147C19.3924 41.0271 19.3924 40.8392 19.4023 40.6516C19.3861 40.2329 19.3265 39.8132 19.4501 39.3964Z" fill="#FFD261"/>
<path d="M18.8782 46.1861C18.8355 46.338 18.8053 46.4933 18.788 46.6502C18.7663 48.5739 18.7718 50.4985 18.5859 52.4168C18.5796 52.4747 18.5871 52.5332 18.608 52.5875C18.6288 52.6418 18.6623 52.6903 18.7056 52.7288C18.749 52.7674 18.8009 52.7949 18.857 52.809C18.9131 52.8232 18.9717 52.8235 19.028 52.8101C19.7497 52.6203 20.466 52.4168 21.1868 52.2252C21.4574 52.1534 21.7362 52.1107 22.0285 51.8101C22.0853 49.7629 21.968 47.7501 21.8255 45.7374C21.8255 45.6648 21.7244 45.5985 21.6451 45.4922C20.7249 45.7065 19.7406 45.7292 18.8782 46.1861ZM21.249 50.4422C21.2274 50.8264 21.0442 51.0126 20.6401 51.078C20.5023 51.0977 20.3633 51.1074 20.2242 51.1071C20.0438 51.1071 19.8453 50.9536 19.8327 50.7856C19.7948 50.2724 19.7668 49.7592 19.7307 49.1843C19.7794 48.6847 19.8263 48.1262 19.8931 47.5703C19.9059 47.4771 19.9457 47.3897 20.0077 47.3192C20.0697 47.2488 20.1509 47.1983 20.2413 47.1743C20.4308 47.1134 20.7574 47.2433 20.8449 47.4204C20.9296 47.5859 21.0005 47.7581 21.0569 47.9354C21.2995 48.7556 21.2977 49.5985 21.249 50.4422Z" fill="#FFD261"/>
<path d="M18.9089 37.5267C20.2206 36.8001 21.6153 36.2687 22.9938 35.6875C24.5446 35.0306 26.1737 34.5797 27.84 34.3459C29.2726 34.1461 30.6863 33.8201 32.1333 33.7102C32.2235 33.7038 32.3705 33.504 32.3543 33.4204C32.3321 33.3563 32.2954 33.2982 32.247 33.2509C32.1986 33.2036 32.1399 33.1684 32.0755 33.1479C31.8254 33.1027 31.5725 33.0745 31.3187 33.0635C30.4977 33.1434 29.7435 33.1607 29.0128 33.3014C27.4557 33.6012 25.9076 33.9518 24.4182 34.5212C23.4989 34.87 22.5643 35.1707 21.6541 35.534C20.7438 35.8973 19.8498 36.3069 18.9603 36.7147C18.7968 36.7978 18.6631 36.9302 18.5778 37.0934C18.5309 37.1843 18.6049 37.3587 18.668 37.4713C18.7001 37.5005 18.7391 37.521 18.7813 37.5307C18.8234 37.5404 18.8674 37.539 18.9089 37.5267Z" fill="#FFD261"/>
<path d="M34.2246 43.7271C34.0913 43.6843 33.9508 43.6686 33.8114 43.6808C32.1713 43.6808 30.552 43.9051 28.9327 44.1258C28.6658 44.1761 28.4019 44.2416 28.1424 44.322C28.0946 44.5036 28.0296 44.6372 28.0305 44.7707C28.0401 46.6508 28.0573 48.5312 28.0819 50.4119C28.0819 50.4964 28.1514 50.5799 28.1893 50.6635C28.2263 50.6853 28.2633 50.7271 28.3003 50.7262C28.5312 50.7262 28.764 50.7262 28.994 50.7044C29.6905 50.6353 30.3842 50.5363 31.0815 50.4873C31.8727 50.431 32.6675 50.4228 33.4605 50.381C33.7807 50.3638 34.1172 50.401 34.4005 50.1903C34.4418 50.1066 34.4707 50.0172 34.4862 49.9251C34.5109 48.1376 34.5304 46.3514 34.5448 44.5663C34.5549 44.3787 34.5364 44.1906 34.4898 44.0086C34.44 43.8844 34.3452 43.7838 34.2246 43.7271ZM32.5105 49.2375C32.4697 49.3732 32.3948 49.4959 32.293 49.5937C32.1912 49.6916 32.066 49.7613 31.9296 49.7961C31.3341 49.9369 30.7279 49.9242 30.1253 49.8769C30.0098 49.8614 29.9036 49.805 29.8258 49.7178C29.7479 49.6306 29.7034 49.5183 29.7004 49.401C29.6896 48.9796 29.7004 48.5572 29.7004 48.1358H29.6453C29.6796 47.668 29.6814 47.1948 29.7581 46.7343C29.8241 46.3194 29.9373 45.9134 30.0955 45.5245C30.3355 44.9532 30.8461 44.7125 31.465 44.7979C31.6287 44.8142 31.7851 44.8743 31.9179 44.972C32.0507 45.0698 32.155 45.2016 32.22 45.3538C32.3596 45.6509 32.4509 45.9686 32.4907 46.2947C32.5565 47.1349 32.5737 47.9805 32.598 48.8243C32.5944 48.9661 32.5653 49.1061 32.5123 49.2375H32.5105Z" fill="#FFD261"/>
<path d="M46.765 43.5188C46.6718 43.5151 46.5807 43.5474 46.5103 43.609C46.4399 43.6706 46.3955 43.7569 46.3862 43.8504C46.378 43.9412 46.3618 44.0384 46.3618 44.1319C46.354 46.0647 46.348 47.9978 46.3438 49.9312C46.3572 50.1293 46.384 50.3262 46.424 50.5207C48.2518 50.7931 50.0542 51.0656 51.8585 51.3381C51.937 51.3499 52.0263 51.2881 52.1111 51.2609C52.1508 51.1782 52.2212 51.0965 52.2248 51.012C52.315 49.0811 52.3995 47.1501 52.4783 45.2191C52.49 44.9385 52.4783 44.6505 52.2437 44.3626C51.0709 44.0556 49.8188 43.9085 48.5747 43.7214C47.9775 43.6278 47.3695 43.5797 46.765 43.5188ZM50.5035 45.1237C50.6949 45.4492 50.8028 45.8175 50.8174 46.1955C50.822 46.6651 50.8174 47.1346 50.8174 47.6796C50.7489 48.2564 50.8274 48.9239 50.6145 49.5615C50.5833 49.6744 50.516 49.7738 50.423 49.8442C50.3301 49.9147 50.2166 49.9523 50.1002 49.9512C49.6338 49.9376 49.1665 49.9221 48.7019 49.8858C48.5161 49.8655 48.3339 49.8194 48.1607 49.7486C47.9315 49.6633 47.7574 49.507 47.7394 49.2418C47.6583 48.1136 47.7539 46.9796 48.0226 45.8812C48.1291 45.4571 48.3835 45.1237 48.7019 44.8358C48.8309 44.7158 48.9852 44.6268 49.1532 44.5755C49.3213 44.5242 49.4987 44.512 49.6721 44.5397C49.8455 44.5674 50.0105 44.6344 50.1545 44.7355C50.2985 44.8367 50.4178 44.9694 50.5035 45.1237Z" fill="#FFD261"/>
<path d="M43.3099 48.5474C43.5057 48.5202 43.623 48.3485 43.6555 48.1505C43.6924 47.9189 43.7078 47.6837 43.7412 47.3631C43.7164 47.0629 43.6739 46.7644 43.614 46.4693C43.5598 46.2486 43.429 46.0443 43.3154 45.8426C43.2459 45.7191 42.9085 45.5883 42.8174 45.651C42.7046 45.7282 42.554 45.8254 42.5269 45.9398C42.3857 46.4856 42.277 47.0394 42.2012 47.5983C42.0812 48.6337 42.2563 48.6937 43.3099 48.5474Z" fill="#000032"/>
<path d="M49.7476 48.7804C49.8423 48.7559 49.9506 48.5769 49.9596 48.4616C50.0038 47.8549 50.0354 47.2463 50.0363 46.6387C50.0363 46.4125 49.9551 46.1846 49.8856 45.9611C49.8054 45.7041 49.4066 45.5978 49.1847 45.7468C48.8996 45.9375 48.6849 46.1955 48.6335 46.527C48.5261 47.2182 48.463 47.9166 48.3782 48.6423C48.7986 48.8687 49.2909 48.9183 49.7476 48.7804Z" fill="#000032"/>
<path d="M41.5318 50.2479C42.6062 50.2997 43.6789 50.3642 44.7533 50.4159C44.9779 50.4268 45.2188 50.5068 45.4074 50.3251C45.4389 50.277 45.4813 50.2415 45.4867 50.2016C45.7655 48.2352 45.7141 46.2597 45.641 44.2842C45.6311 44.0118 45.6049 43.7211 45.3117 43.4668C45.1412 43.4514 44.9112 43.4141 44.6802 43.4132C42.5283 43.4047 40.377 43.4017 38.2264 43.4041C38.0444 43.4158 37.8635 43.4407 37.6851 43.4786C37.6048 44.0408 37.6165 44.0381 38.0207 44.4623C38.2271 44.3677 38.4399 44.2882 38.6576 44.2243C39.2837 44.0844 39.7907 44.3151 40.0649 44.871C40.1894 45.1217 40.322 45.3941 40.3428 45.6648C40.4402 46.9282 40.5187 48.1961 40.1741 49.4986C40.884 50.2197 40.8849 50.2134 41.5318 50.2479ZM41.8854 45.3551C41.8998 45.3106 41.9242 45.2643 41.9422 45.2252C42.0192 45.0416 42.1422 44.8812 42.2992 44.7598C42.4562 44.6384 42.6418 44.5601 42.8379 44.5327C43.0339 44.5052 43.2337 44.5295 43.4177 44.6031C43.6016 44.6767 43.7634 44.7972 43.8873 44.9527C44.1308 45.2488 44.3185 45.5758 44.3591 45.9609C44.4141 46.475 44.443 46.9918 44.4745 47.3932C44.4294 47.9809 44.4051 48.4523 44.3555 48.92C44.3058 49.3878 44.0668 49.6285 43.65 49.6539C43.1836 49.6821 42.7154 49.6984 42.2481 49.6939C42.0589 49.6881 41.8782 49.6131 41.7401 49.4828C41.6019 49.3526 41.5156 49.176 41.4975 48.9863C41.4325 47.752 41.5029 46.534 41.8854 45.3514V45.3551Z" fill="#FFD261"/>
<path d="M57.9146 51.8279C58.067 49.8089 58.2303 47.7907 58.1924 45.7626C58.1924 45.6808 58.1121 45.6 58.0399 45.4637C56.5884 45.0913 55.0701 44.8443 53.5554 44.5827C53.4778 44.5691 53.3858 44.6427 53.3001 44.6735C53.2622 44.7589 53.1946 44.8434 53.1919 44.9297C53.1371 47.0011 53.0887 49.0735 53.0466 51.1468C53.0466 51.2721 53.1459 51.3992 53.2162 51.5646L57.7684 52.4165C57.8279 52.184 57.901 52.0087 57.9146 51.8279ZM56.7788 48.926C56.7517 49.322 56.7219 49.9315 56.6624 50.5373C56.629 50.8715 56.3078 51.0904 55.9659 51.1013C55.5284 51.115 55.1477 50.9469 54.7625 50.778C54.6746 50.7455 54.5988 50.6866 54.5452 50.6092C54.4917 50.5319 54.463 50.4399 54.463 50.3457C54.4531 49.4556 54.4368 48.5646 54.4738 47.6754C54.4891 47.3121 54.62 46.9442 54.7264 46.5854C54.8238 46.2576 55.062 46.025 55.3462 45.8497C55.4641 45.7724 55.6019 45.7312 55.7427 45.7312C55.8834 45.7312 56.0212 45.7724 56.1391 45.8497C56.3248 45.9516 56.4808 46.1006 56.5916 46.2819C56.7024 46.4632 56.7641 46.6706 56.7706 46.8834C56.7986 47.4937 56.7788 48.1041 56.7788 48.926Z" fill="#FFD261"/>
<path d="M37.2223 42.5012C37.4429 42.5671 37.6724 42.5978 37.9025 42.5921C40.0108 42.5921 42.12 42.6148 44.2283 42.5821C46.5846 42.5448 48.9031 42.8691 51.2099 43.2778C54.3403 43.8328 57.459 44.4585 60.9529 45.1179C59.9714 44.5203 59.1739 44.2596 58.3782 43.9872C55.6105 43.0389 52.7318 42.6656 49.8522 42.2896C48.13 42.0644 46.3979 41.9935 44.6685 41.8718C42.4222 41.7138 40.1732 41.7401 37.9241 41.7646C37.6919 41.775 37.461 41.8054 37.234 41.8555C37.165 41.8712 37.1046 41.9131 37.0654 41.9724C37.0263 42.0318 37.0114 42.1041 37.0238 42.1743C37.0364 42.2914 37.1321 42.4685 37.2223 42.5012Z" fill="#FFD261"/>
<path d="M59.6312 53.951C59.4824 53.9719 59.3344 53.9983 59.1855 54.0219C59.3425 54.051 59.4995 54.0818 59.6565 54.1064C59.6916 54.1118 59.753 54.1 59.7629 54.0791C59.8062 53.981 59.7557 53.9329 59.6312 53.951Z" fill="#FFD261"/>
<path d="M54.98 53.0252C56.3584 53.3485 57.736 53.6755 59.1126 54.0061C59.063 53.889 59.0297 53.7191 58.9512 53.6955C57.5213 53.2541 56.0959 52.7872 54.5803 52.75C54.6211 52.824 54.6785 52.8873 54.7479 52.9351C54.8172 52.9829 54.8967 53.0137 54.98 53.0252Z" fill="#FFD261"/>
<path d="M25.0832 46.8059C25.0286 46.7342 24.9512 46.6836 24.864 46.6624C24.7052 46.6233 24.615 46.7532 24.5537 46.8631C24.4862 46.9826 24.4433 47.1144 24.4274 47.2509C24.3976 47.5743 24.3931 47.8994 24.3669 48.478C24.3769 48.6415 24.3967 49.0575 24.4283 49.4725C24.4418 49.6442 24.6331 49.7904 24.8198 49.795C25.0066 49.7995 25.2384 49.6651 25.2555 49.5225C25.3503 48.7414 25.4721 47.9594 25.2555 47.1801C25.2172 47.0473 25.1591 46.9211 25.0832 46.8059Z" fill="#000032"/>
<path d="M55.6954 46.9032C55.487 46.9241 55.3841 47.0749 55.3057 47.2475C55.2646 47.3303 55.2316 47.417 55.2073 47.5063C55.0437 48.1832 55.0363 48.8888 55.1857 49.569C55.2008 49.661 55.2506 49.7436 55.3246 49.7997C55.4421 49.8661 55.5734 49.9038 55.708 49.9096C55.7508 49.9013 55.7908 49.8822 55.8243 49.8541C55.8577 49.826 55.8835 49.7898 55.8993 49.7488C55.9895 49.2039 56.0607 48.6544 56.1185 48.2438C56.086 47.8224 56.0707 47.5463 56.0427 47.2711C56.0256 47.0985 55.8253 46.8869 55.6954 46.9032Z" fill="#000032"/>
<path d="M23.0353 45.2064C22.8161 45.2455 22.6437 45.4744 22.6248 45.716C22.614 45.8568 22.605 45.9985 22.6077 46.1392C22.6437 47.7886 22.6798 49.4381 22.7258 51.0866C22.7458 51.2621 22.7821 51.4355 22.8341 51.6043C22.9685 51.6415 23.0641 51.6951 23.148 51.6851C24.3473 51.4847 25.545 51.2776 26.7412 51.0639C26.8605 51.0331 26.9765 50.9908 27.0877 50.9376C27.2906 50.7087 27.2582 50.4653 27.2816 50.2364C27.4621 48.4953 27.361 46.7532 27.2735 45.013C27.2672 44.8804 27.2049 44.7514 27.1301 44.4844C25.6749 44.5952 24.3686 44.9712 23.0353 45.2064ZM26.0674 50.1111C26.0626 50.2055 26.0273 50.2957 25.9669 50.368C25.9065 50.4403 25.8242 50.4907 25.7327 50.5116C25.1105 50.6894 24.4518 50.6919 23.8283 50.5189C23.4521 49.1347 23.5396 47.835 23.7723 46.5325C23.8182 46.2526 23.9467 45.993 24.1413 45.7877C24.6005 45.3036 25.3835 45.3817 25.6921 45.9567C25.9128 46.3721 26.0498 46.8274 26.0953 47.2964C26.1946 48.2364 26.126 49.1737 26.0674 50.1111Z" fill="#FFD261"/>
<path d="M35.7039 43.5461C35.4793 43.5961 35.3295 43.7841 35.3259 44.0629C35.3037 45.94 35.2841 47.8171 35.2673 49.6942C35.2673 49.8758 35.2465 50.0711 35.4865 50.2491C36.625 50.3681 37.8258 50.2491 39.2051 50.2137C38.9038 49.7532 38.6927 49.5007 38.561 49.2146C38.4058 48.8768 38.3246 48.5053 38.2001 48.1501C37.9295 47.3518 37.6688 46.5489 37.372 45.7605C37.1257 45.1038 36.8415 44.4599 36.5601 43.8186C36.4356 43.5316 36.1315 43.4526 35.7039 43.5461ZM36.4419 46.3436C36.5063 46.2286 36.6042 46.1364 36.7224 46.0793C36.8127 46.0293 37.003 46.2046 37.0102 46.3245C37.0256 46.6061 37.049 46.8886 37.0445 47.1701C37.0382 47.6488 37.0328 48.1047 37.5091 48.4163C37.6652 48.5189 37.6309 48.7796 37.5317 48.9358C37.4775 49.0129 37.4042 49.0744 37.319 49.1139C37.2338 49.1535 37.1397 49.1697 37.0463 49.161C36.699 49.1547 36.4545 48.9966 36.4148 48.7251C36.3643 48.3518 36.3318 47.9767 36.3102 47.7741C36.3129 47.1765 36.2777 46.746 36.4419 46.3427V46.3436Z" fill="#FFD261"/>
<path d="M39.132 45.3434C38.994 45.2526 38.7116 45.2971 38.6494 45.4569C38.5871 45.6168 38.4816 45.8202 38.5078 45.9819C38.62 46.7204 38.8645 47.4322 39.2295 48.0827C39.2547 48.1281 39.3936 48.1072 39.5145 48.1218C39.6371 47.432 39.6532 46.7274 39.5623 46.0328C39.5451 45.8931 39.4976 45.759 39.4233 45.6399C39.3489 45.5208 39.2495 45.4196 39.132 45.3434Z" fill="#000032"/>
<path d="M28.0917 42.4635C25.9537 42.7433 23.8689 43.281 21.7813 43.7923C20.9207 44.0049 20.0799 44.301 19.2346 44.5716C19.1089 44.6284 18.9945 44.7078 18.8972 44.8059C18.8842 44.825 18.8759 44.8469 18.8733 44.8699C18.8706 44.8928 18.8735 44.9161 18.8819 44.9376C18.9197 45.0094 18.9721 45.1193 19.0316 45.1257C19.2156 45.1452 19.4015 45.1388 19.5837 45.1066C21.7389 44.6815 23.8878 44.2219 26.0484 43.8241C28.901 43.2973 31.7661 42.8486 34.6782 42.825C35.05 42.8087 35.4206 42.7702 35.7879 42.7097C35.9683 42.6861 36.0585 42.4617 35.9854 42.2555C35.8889 41.9758 35.7238 41.8178 35.4965 41.8287C34.7964 41.8614 34.0964 41.9059 33.3963 41.9458C31.6173 42.0076 29.8545 42.2328 28.0917 42.4635Z" fill="#FFD261"/>
<path d="M31.6525 46.3266C31.6276 46.2379 31.5886 46.1539 31.5371 46.0777C31.5076 46.0273 31.468 45.9838 31.4208 45.95C31.3735 45.9161 31.3197 45.8926 31.2628 45.8812C31.2059 45.8697 31.1473 45.8704 31.0907 45.8833C31.0341 45.8962 30.9809 45.921 30.9344 45.956C30.8289 46.0468 30.6945 46.1376 30.6575 46.2593C30.4085 47.0668 30.238 47.8842 30.4816 48.7117C30.6725 48.7969 30.8788 48.8417 31.0877 48.8435C31.2965 48.8452 31.5035 48.8037 31.6958 48.7217C31.9151 48.3738 31.7861 48.0432 31.7761 47.7226C31.7599 47.2593 31.704 46.7961 31.6525 46.3266Z" fill="#000032"/>
<path d="M54.4838 52.7265C53.9957 52.5013 53.9714 52.5031 53.3372 52.6657C53.7095 52.7754 54.1021 52.7962 54.4838 52.7265Z" fill="#FFD261"/>
<path d="M59.1261 45.773C59.0846 45.8557 59.0107 45.9365 59.0061 46.021C58.8937 48.0355 58.7863 50.05 58.6841 52.0646C58.6865 52.2386 58.7013 52.4122 58.7283 52.5841C60.2917 53.2971 60.6516 53.4015 61.3715 53.3334C61.6422 51.1872 61.5249 47.734 61.1144 46.1636C60.5596 46.0219 59.9786 45.8702 59.3941 45.7321C59.3129 45.7131 59.2163 45.7585 59.1261 45.773ZM59.5772 48.5623C59.6061 48.3317 59.6706 48.1071 59.7684 47.8965C59.8032 47.8094 59.8648 47.7359 59.9443 47.6868C60.0237 47.6378 60.1167 47.6157 60.2096 47.6241C60.3027 47.6219 60.3944 47.6464 60.4743 47.6946C60.5541 47.7428 60.6187 47.8128 60.6607 47.8965C60.7807 48.1482 60.8622 48.4168 60.9024 48.6931C60.943 49.1091 60.9133 49.5323 60.9133 49.9529H60.9755C60.9755 50.139 60.9755 50.3262 60.9755 50.5133C60.9593 51.5959 60.8131 51.5805 59.8027 51.2399C59.6954 51.2035 59.6151 51.05 59.5492 50.9347C59.5093 50.8498 59.4919 50.7559 59.4987 50.6622C59.5186 49.9638 59.5312 49.2617 59.5763 48.5623H59.5772Z" fill="#FFD261"/>
<path d="M62.1637 61.5337C62.2786 61.5109 62.3837 61.4528 62.4645 61.3674C62.5452 61.282 62.5977 61.1735 62.6147 61.0569C62.6652 60.3993 62.6752 59.7372 62.751 59.0823C62.8962 57.8107 62.8457 56.5392 62.7726 55.2676C62.7455 54.8016 62.7347 54.3284 62.4199 53.9224C62.317 53.7889 62.2981 53.57 62.2873 53.3866C62.2656 53.0105 62.2656 52.6318 62.2746 52.2549C62.3197 50.4138 62.1772 48.5791 62.0734 46.7435C62.0419 46.1813 61.9029 45.6263 61.8497 45.0641C61.7983 44.5192 61.4807 44.2158 61.0143 44.0378C60.2268 43.7362 59.4419 43.4265 58.6426 43.1613C56.9042 42.5864 55.1243 42.2185 53.3119 41.9352C51.2271 41.6082 49.1368 41.3293 47.0358 41.1958C43.8097 40.9924 40.5792 40.8679 37.345 40.9642C37.1159 40.9715 36.8858 40.9488 36.5827 40.937C36.4727 40.6917 36.3924 40.5691 36.3617 40.4338C36.1596 39.5437 35.7907 38.7499 35.1565 38.0723C34.6946 37.5828 34.4591 36.956 34.2985 36.3103C34.1181 35.5773 33.9377 34.8461 33.4965 34.2149C33.4458 34.1359 33.4121 34.0471 33.3975 33.9542C33.3829 33.8613 33.3877 33.7663 33.4117 33.6754C33.5281 33.0396 33.2728 32.5855 32.7514 32.2385C32.6093 32.1344 32.4737 32.0216 32.3454 31.9006C32.2459 30.9966 32.0427 30.1073 31.7401 29.2503C31.6147 28.8956 31.464 28.5504 31.289 28.2176C30.9281 27.5264 30.3607 27.2113 29.5632 27.2621C28.3354 27.3402 27.1572 27.6254 26.0043 28.0296C24.8992 28.4138 23.7968 28.8116 22.7106 29.2467C21.6244 29.6818 20.5617 30.1749 19.4864 30.6291C19.0173 30.8307 18.7223 31.1568 18.6744 31.6854C18.6384 32.1114 18.5662 32.5364 18.5536 32.9542C18.5292 33.8026 18.5337 34.6509 18.5283 35.4974C18.5283 35.7372 18.5139 35.9769 18.3244 36.1486C17.9789 36.461 17.9103 36.8589 17.9094 37.3021C17.9094 38.6218 17.8697 39.9424 17.8833 41.2621C17.9022 43.1477 17.9915 45.0333 17.9834 46.9179C17.9753 48.8507 17.9239 50.7817 17.7128 52.709C17.5522 54.1622 17.4936 55.6245 17.4421 57.085C17.4024 58.2158 17.4421 59.3484 17.4512 60.481C17.4436 61.0486 17.5352 61.613 17.7218 62.1486C17.7607 62.2602 17.827 62.3601 17.9146 62.439C18.0021 62.518 18.108 62.5733 18.2225 62.6C18.45 62.6542 18.6825 62.6847 18.9162 62.6908C20.1341 62.7163 21.352 62.7571 22.5699 62.7417C27.3512 62.6781 32.1253 62.7017 36.8994 62.4429C38.0207 62.382 39.1475 62.4184 40.2707 62.3793C42.2364 62.3103 44.2013 62.2167 46.1661 62.135C47.1957 62.0914 48.2254 62.0496 49.255 62.0096C50.7047 61.9551 52.1554 61.8625 53.6051 61.8598C56.2763 61.8598 58.9412 61.7099 61.6079 61.6036C61.7945 61.5921 61.9801 61.5687 62.1637 61.5337ZM61.1145 46.1604C61.525 47.7308 61.6431 51.184 61.3716 53.3303C60.6499 53.3947 60.289 53.2939 58.7283 52.5809C58.7013 52.409 58.6866 52.2354 58.6841 52.0614C58.7858 50.0463 58.8931 48.0314 59.0062 46.0169C59.0062 45.9324 59.0847 45.8516 59.1262 45.7689C59.2164 45.7544 59.3129 45.709 59.3968 45.729C59.9787 45.8707 60.5597 46.0224 61.1145 46.1604ZM54.4838 52.7226C54.1021 52.7924 53.7095 52.7715 53.3372 52.6618C53.9714 52.5028 53.9957 52.501 54.4838 52.7263V52.7226ZM53.2208 51.5628C53.1504 51.3975 53.0485 51.2703 53.0512 51.145C53.0897 49.0723 53.1381 46.9999 53.1964 44.9279C53.1964 44.8416 53.2668 44.7571 53.3047 44.6718C53.3904 44.6391 53.4851 44.5655 53.56 44.5809C55.0747 44.8425 56.593 45.0896 58.0445 45.462C58.1167 45.5982 58.1961 45.679 58.197 45.7608C58.2349 47.7889 58.0716 49.8071 57.9191 51.8262C57.9056 52.0078 57.8289 52.1822 57.773 52.4165L53.2208 51.5628ZM58.9512 53.699C59.0296 53.7226 59.063 53.8925 59.1126 54.0096C57.7354 53.6815 56.3578 53.3545 54.98 53.0287C54.897 53.0175 54.8177 52.9871 54.7483 52.9398C54.679 52.8925 54.6215 52.8297 54.5803 52.7562C56.0959 52.7835 57.5204 53.254 58.9512 53.699ZM59.7631 54.0823C59.7532 54.1032 59.6918 54.115 59.6566 54.1095C59.4997 54.085 59.3427 54.0541 59.1857 54.0251C59.3346 54.0015 59.4825 53.9751 59.6314 53.9542C59.7559 53.9324 59.8064 53.9806 59.7631 54.0787V54.0823ZM37.2341 41.8516C37.4611 41.8015 37.692 41.7712 37.9242 41.7608C40.1732 41.7362 42.4222 41.7099 44.6686 41.8679C46.398 41.9897 48.1301 42.0605 49.8522 42.2857C52.7318 42.6618 55.6106 43.0351 58.3783 43.9833C59.174 44.2558 59.9715 44.5164 60.953 45.1141C57.4626 44.4511 54.344 43.8289 51.2099 43.2739C48.9032 42.8652 46.5847 42.541 44.2283 42.5782C42.12 42.6109 40.0108 42.5918 37.9025 42.5882C37.6725 42.5939 37.443 42.5632 37.2223 42.4974C37.1258 42.4647 37.0329 42.2876 37.0203 42.1668C37.009 42.0967 37.0249 42.0249 37.0647 41.9662C37.1044 41.9075 37.1651 41.8665 37.2341 41.8516ZM52.4801 45.2122C52.4026 47.1432 52.3181 49.0741 52.2267 51.0051C52.2267 51.0896 52.1527 51.1713 52.113 51.254C52.0282 51.2812 51.9389 51.3448 51.8604 51.3312C50.0561 51.0659 48.2518 50.7926 46.4259 50.5137C46.3846 50.3191 46.3566 50.1218 46.342 49.9234C46.342 47.9906 46.348 46.0575 46.3601 44.1241C46.3601 44.0333 46.3763 43.937 46.3844 43.8425C46.3938 43.7491 46.4382 43.6627 46.5086 43.6011C46.579 43.5395 46.6701 43.5073 46.7633 43.511C47.3678 43.5719 47.9758 43.62 48.5766 43.7108C49.8207 43.9006 51.0737 44.0451 52.2456 44.3521C52.4847 44.6472 52.4937 44.9352 52.482 45.2158L52.4801 45.2122ZM40.3428 45.659C40.3221 45.3866 40.1895 45.1141 40.065 44.8652C39.7943 44.3094 39.2837 44.0787 38.6576 44.2185C38.44 44.2825 38.2271 44.362 38.0207 44.4565C37.6166 44.0323 37.6048 44.0351 37.6851 43.4729C37.8636 43.435 38.0444 43.4101 38.2264 43.3984C40.3783 43.3984 42.5296 43.4014 44.6803 43.4075C44.9103 43.4075 45.1404 43.4456 45.3118 43.461C45.605 43.7108 45.6311 44.006 45.6411 44.2785C45.7141 46.254 45.7656 48.2294 45.4868 50.1958C45.4814 50.2358 45.439 50.2712 45.4074 50.3194C45.2189 50.501 44.978 50.4238 44.7534 50.4102C43.6789 50.3584 42.6063 50.2939 41.5318 50.2422C40.885 50.2113 40.8841 50.2176 40.1786 49.4946C40.5205 48.194 40.4421 46.9261 40.3446 45.6627L40.3428 45.659ZM39.5156 48.1114C39.3947 48.0968 39.2558 48.1177 39.2305 48.0723C38.8656 47.4218 38.621 46.71 38.5088 45.9715C38.4826 45.8071 38.5837 45.6154 38.6504 45.4465C38.7172 45.2776 38.995 45.2394 39.1331 45.333C39.2514 45.4092 39.3515 45.5107 39.4264 45.6303C39.5012 45.75 39.5489 45.8847 39.5661 46.0251C39.6571 46.7213 39.6407 47.4275 39.5174 48.1186L39.5156 48.1114ZM36.5584 43.8053C36.8434 44.4465 37.1276 45.0905 37.3703 45.7471C37.6671 46.5355 37.9269 47.3384 38.1985 48.1368C38.3193 48.4919 38.4005 48.8634 38.5593 49.2013C38.691 49.4901 38.9021 49.7462 39.2034 50.2004C37.8241 50.2403 36.6233 50.3548 35.4848 50.2358C35.2449 50.0541 35.2638 49.8634 35.2656 49.6808C35.2824 47.8038 35.302 45.9267 35.3242 44.0496C35.3242 43.7708 35.4776 43.5828 35.7022 43.5328C36.1317 43.452 36.4357 43.531 36.5602 43.8125L36.5584 43.8053ZM35.9855 42.2549C36.0559 42.4574 35.9657 42.6818 35.7879 42.709C35.4207 42.7695 35.0501 42.808 34.6783 42.8244C31.7662 42.8489 28.9047 43.2976 26.0485 43.8234C23.8879 44.2213 21.739 44.6808 19.5838 45.1059C19.4015 45.1382 19.2157 45.1446 19.0317 45.125C18.9749 45.1195 18.9198 45.0087 18.8819 44.937C18.8736 44.9154 18.8707 44.8922 18.8734 44.8692C18.876 44.8463 18.8842 44.8243 18.8973 44.8053C18.9946 44.7071 19.109 44.6277 19.2347 44.5709C20.08 44.2985 20.9208 44.0042 21.7814 43.7917C23.8689 43.2767 25.9538 42.7426 28.0918 42.4629C29.8546 42.2322 31.6174 42.0087 33.3964 41.9479C34.0964 41.9079 34.7965 41.8634 35.4966 41.8307C35.7239 41.8198 35.889 41.9824 35.9855 42.2549ZM34.5421 44.561C34.5271 46.3484 34.5075 48.1347 34.4835 49.9197C34.468 50.0119 34.4391 50.1012 34.3978 50.1849C34.1145 50.3956 33.778 50.3584 33.4577 50.3757C32.6648 50.4174 31.87 50.4256 31.0788 50.4819C30.3814 50.531 29.6877 50.63 28.9913 50.699C28.7612 50.7217 28.5285 50.7199 28.2975 50.7208C28.2605 50.7208 28.2235 50.6799 28.1866 50.6581C28.1487 50.5746 28.0801 50.491 28.0792 50.4065C28.0557 48.5264 28.0386 46.646 28.0278 44.7653C28.0278 44.6318 28.0918 44.4974 28.1396 44.3166C28.3992 44.2362 28.663 44.1707 28.9299 44.1204C30.5492 43.8997 32.1686 43.6709 33.8087 43.6754C33.9481 43.6632 34.0885 43.6789 34.2218 43.7217C34.342 43.7777 34.4367 43.8773 34.4871 44.0006C34.5351 44.1841 34.5546 44.3741 34.5448 44.5637L34.5421 44.561ZM27.279 50.2331C27.2556 50.462 27.288 50.7054 27.085 50.9343C26.9739 50.9874 26.8579 51.0297 26.7386 51.0605C25.5424 51.2736 24.3447 51.4807 23.1454 51.6818C23.0615 51.6954 22.965 51.6382 22.8315 51.6009C22.7795 51.4321 22.7432 51.2588 22.7232 51.0832C22.6772 49.4347 22.6411 47.7853 22.605 46.1359C22.605 45.9951 22.6114 45.8534 22.6222 45.7126C22.6411 45.471 22.8134 45.2422 23.0327 45.2031C24.366 44.9679 25.6759 44.5918 27.1275 44.4765C27.2023 44.7435 27.2646 44.8725 27.2709 45.0051C27.3611 46.7526 27.4639 48.4946 27.2817 50.2358L27.279 50.2331ZM22.0295 51.8098C21.7372 52.1105 21.4575 52.1531 21.1878 52.2249C20.4661 52.4165 19.7498 52.62 19.029 52.8098C18.9727 52.8233 18.9141 52.8229 18.858 52.8088C18.8019 52.7946 18.75 52.7671 18.7067 52.7286C18.6633 52.69 18.6298 52.6416 18.609 52.5873C18.5882 52.533 18.5806 52.4744 18.5869 52.4165C18.7728 50.4983 18.7674 48.5737 18.789 46.65C18.8063 46.493 18.8365 46.3378 18.8792 46.1858C19.7417 45.7317 20.7259 45.7045 21.6443 45.4919C21.7264 45.5982 21.8247 45.6645 21.8247 45.7372C21.969 47.7499 22.0863 49.7626 22.0295 51.8098ZM22.1982 37.036C23.371 36.3094 25.4396 35.6382 26.5528 35.6463C26.5979 35.8693 26.6281 36.095 26.643 36.3221C26.643 38.1477 26.6836 39.9751 26.5934 41.7517C26.459 41.8516 26.394 41.9333 26.3146 41.9542C25.0516 42.2267 23.7886 42.541 22.5834 42.8135C22.3128 42.5709 22.3326 42.3239 22.3064 42.0968C22.1639 40.8607 22.1098 38.1849 22.1982 37.036ZM33.0319 35.3693C33.133 35.679 33.1844 36.0051 33.2602 36.3257C33.501 37.3457 33.8917 38.2957 34.6034 39.0796C34.9129 39.4333 35.1278 39.8606 35.2277 40.3212C35.3685 40.8834 35.1961 41.105 34.6061 41.0841C34.3932 41.0768 34.2498 40.9497 34.2453 40.7435C34.2381 40.4156 34.2516 40.0859 34.2372 39.758C34.2295 39.6195 34.1952 39.4838 34.1361 39.3584C34.0888 39.283 34.0151 39.2282 33.9295 39.2049C33.864 39.1831 33.7927 39.1873 33.7301 39.2167C33.6676 39.246 33.6185 39.2984 33.5931 39.363C33.5255 39.5358 33.4827 39.7175 33.4659 39.9025C33.4352 40.2285 33.4334 40.5582 33.4144 40.8861C33.4037 40.929 33.386 40.9698 33.3621 41.0069C33.3242 41.0351 33.289 41.0832 33.2484 41.0877C31.4442 41.2948 29.6399 41.4983 27.8356 41.6981C27.7479 41.6924 27.6617 41.6724 27.5803 41.6391C27.4243 41.4992 27.408 41.3112 27.4053 41.1241C27.3867 39.4317 27.3704 37.7393 27.3566 36.0469C27.3517 35.9065 27.376 35.7667 27.4279 35.6363C27.4811 35.5164 27.5785 35.3511 27.6841 35.3275C29.0968 35.016 30.5123 34.7072 31.9656 34.6472C32.4717 34.6254 32.8741 34.8897 33.0319 35.3693ZM19.4043 31.5719C20.2514 31.1986 21.011 30.8389 21.7904 30.5283C23.1364 29.9906 24.4914 29.4783 25.85 28.9669C26.9064 28.5691 28.0152 28.3766 29.123 28.2085C29.8447 28.0996 30.1956 28.2685 30.5068 28.8907C30.9895 29.8561 31.3368 30.8661 31.3927 31.8988C31.2195 32.1359 31.0319 32.1477 30.847 32.1777C30.017 32.3121 29.1861 32.4429 28.358 32.5846C25.8996 33.006 23.6109 33.9797 21.2753 34.7989C20.7052 34.9987 20.1675 35.2912 19.6118 35.5355C19.508 35.5818 19.296 35.4501 19.2825 35.3457C19.2739 35.2994 19.2678 35.2527 19.2644 35.2058C19.2266 34.0305 19.2247 32.8561 19.4043 31.5719ZM18.5779 37.0941C18.663 36.9305 18.7968 36.7978 18.9604 36.7144C19.8508 36.3057 20.7439 35.897 21.6542 35.5337C22.5645 35.1704 23.4991 34.8698 24.4156 34.5201C25.9051 33.9506 27.4531 33.6 29.0102 33.3003C29.7409 33.1595 30.4951 33.1422 31.3161 33.0623C31.57 33.0734 31.8228 33.1016 32.073 33.1468C32.1373 33.1672 32.196 33.2025 32.2444 33.2498C32.2928 33.2971 32.3295 33.3551 32.3517 33.4193C32.368 33.5028 32.2173 33.7026 32.1307 33.709C30.6873 33.818 29.27 34.1441 27.8374 34.3448C26.172 34.5787 24.5438 35.0297 22.9939 35.6863C21.6154 36.2685 20.2207 36.7998 18.909 37.5264C18.8674 37.539 18.8234 37.5406 18.781 37.5311C18.7387 37.5215 18.6995 37.5012 18.6672 37.4719C18.605 37.3593 18.531 37.1831 18.5779 37.0941ZM18.5978 38.7626C19.3358 38.1284 20.2086 37.6735 21.149 37.4329C21.2167 37.4983 21.2618 37.5237 21.2825 37.5637C21.3329 37.64 21.3673 37.726 21.3836 37.8162C21.4386 39.1304 21.4945 40.4447 21.5315 41.7599C21.5432 42.1777 21.6073 42.6055 21.435 43.0596C20.6231 43.4365 19.7209 43.6345 18.7962 43.9215C18.743 43.6363 18.6835 43.4583 18.679 43.2776C18.6429 41.7789 18.4255 40.2821 18.5978 38.7626ZM22.0178 57.1023C22.0078 58.6463 22.0024 60.1904 21.9952 61.7163C21.1571 61.9651 19.6857 61.9451 18.5373 61.6854C18.1765 60.2322 18.1548 58.5065 18.4769 55.1123C18.7863 55.0069 19.0407 54.8897 19.3068 54.8398C19.9456 54.7117 20.5897 54.6073 21.2329 54.5046C21.8761 54.402 22.0448 54.5837 22.0448 55.2785C22.0394 55.8834 22.0214 56.4928 22.0178 57.1023ZM21.7616 53.66C20.9767 53.7708 20.2027 53.9606 19.4205 54.1014C19.1916 54.1374 18.9602 54.1547 18.7286 54.1531C18.7056 54.1573 18.6819 54.1549 18.6601 54.1463C18.6383 54.1376 18.6194 54.1231 18.6054 54.1043C18.5913 54.0854 18.5828 54.063 18.5806 54.0396C18.5785 54.0162 18.5829 53.9926 18.5933 53.9715C18.6068 53.9288 18.6086 53.8725 18.6375 53.8443C18.918 53.5719 19.2996 53.4956 19.6515 53.4002C21.0949 53.0105 22.5329 52.5882 23.997 52.2994C26.5645 51.7926 29.1392 51.3157 31.7644 51.1931C32.745 51.1477 33.7275 51.1323 34.709 51.1023C34.709 51.0823 34.709 51.0623 34.709 51.0414C36.2522 51.0414 37.7955 51.0414 39.3387 51.0414C39.5697 51.0414 39.8097 51.0287 40.0027 51.1949C40.0188 51.2087 40.0317 51.2258 40.0406 51.2451C40.0495 51.2644 40.0541 51.2854 40.0541 51.3066C40.0406 51.3866 40.0235 51.5155 39.9766 51.5319C39.805 51.5978 39.6241 51.6361 39.4407 51.6454C36.5376 51.6881 33.6607 52.0623 30.7757 52.3375C27.7499 52.63 24.7729 53.2385 21.7616 53.66ZM27.6471 59.9025C27.62 60.508 27.5917 61.1156 27.5623 61.7253C27.4721 61.7635 27.3909 61.8316 27.3052 61.8334C25.9953 61.8552 24.689 61.8752 23.3737 61.8816C22.9867 61.8816 22.8865 61.6908 22.8252 61.3648C22.7992 61.2258 22.7853 61.0848 22.7837 60.9433C22.7638 58.9161 22.7458 56.8876 22.7295 54.858C22.7199 54.7496 22.7353 54.6405 22.7746 54.5392C22.8139 54.4378 22.876 54.3471 22.956 54.2739C23.3782 54.1949 23.878 54.0923 24.3814 54.0115C25.3051 53.8634 26.2307 53.7263 27.1572 53.5918C27.2965 53.5809 27.4365 53.5809 27.5758 53.5918C27.6679 53.6019 27.753 53.6461 27.8147 53.7157C27.8763 53.7853 27.9101 53.8755 27.9096 53.9688C27.823 55.947 27.7355 57.9249 27.6471 59.9025ZM34.2985 60.9588C34.2823 61.1404 34.2516 61.3266 34.2254 61.5228C34.0928 61.5964 33.9801 61.7045 33.8601 61.7172C32.1839 61.8552 30.5041 61.8589 28.8235 61.8325C28.7651 61.8339 28.707 61.8235 28.6526 61.8021C28.5983 61.7806 28.5487 61.7485 28.5067 61.7076C28.4647 61.6667 28.4313 61.6178 28.4082 61.5638C28.3851 61.5098 28.373 61.4517 28.3724 61.3929C28.3724 60.501 28.3787 59.6082 28.4076 58.7172C28.4545 57.264 28.5194 55.8107 28.5808 54.3575C28.5925 54.085 28.6214 53.8053 28.6484 53.4492C30.9182 53.0514 33.2683 52.8062 34.3581 52.8471C34.405 52.9615 34.5024 53.0868 34.5006 53.2104C34.4672 55.7944 34.5268 58.3802 34.2985 60.9588ZM41.4182 61.2313C41.4001 61.3375 41.2585 61.4511 41.1475 61.5037C41.0158 61.5514 40.8759 61.5721 40.7362 61.5646C39.146 61.5997 37.5552 61.63 35.9639 61.6554C35.7781 61.6652 35.5921 61.6419 35.4145 61.5864C35.3534 61.5598 35.2984 61.5208 35.253 61.4719C35.2075 61.423 35.1725 61.3652 35.1501 61.3021C35.1087 61.1184 35.0944 60.9296 35.1077 60.7417C35.1231 58.7154 35.1303 56.6899 35.1619 54.6645C35.197 52.4329 35.0843 52.58 37.2232 52.5074C38.2021 52.4738 39.1836 52.5019 40.2905 52.5019C40.4339 52.8125 40.5151 53.0914 40.6739 53.3148C41.1611 53.9996 41.272 54.768 41.2883 55.5855C41.3207 57.1867 41.4019 58.7871 41.4561 60.3875C41.4709 60.6684 41.4582 60.9501 41.4182 61.2285V61.2313ZM44.3736 61.3984C43.7249 61.452 43.0754 61.561 42.4051 61.3911C42.3293 61.372 42.2382 61.174 42.2337 61.0496C42.1693 59.2658 42.1155 57.4813 42.0722 55.6963C42.0722 55.6391 42.1724 55.5301 42.2229 55.5319C42.2664 55.5359 42.3085 55.5498 42.3458 55.5726C42.3832 55.5954 42.4149 55.6266 42.4385 55.6636C42.5332 55.8743 42.6415 56.0941 42.6658 56.3194C42.756 57.1368 43.0934 57.8389 43.4705 58.5528C43.9063 59.3793 44.2428 60.2594 44.6208 61.1168C44.6559 61.1949 44.4899 61.3866 44.3736 61.3956V61.3984ZM45.4453 59.6936C45.4399 59.7253 45.3966 59.7508 45.3695 59.7844C44.3176 58.2204 44.1065 57.7944 43.7809 56.4075C43.5941 55.6118 43.2585 54.9061 42.692 54.3184C42.4331 54.046 42.1769 53.7735 41.9324 53.4901C41.8149 53.3451 41.7087 53.1912 41.6148 53.0296C41.484 52.8198 41.6212 52.4847 41.844 52.4928C43.0077 52.5219 44.1715 52.5576 45.3352 52.6C45.4272 52.6108 45.5129 52.6526 45.5784 52.7185C45.6439 52.7845 45.6853 52.8707 45.6961 52.9633C45.7322 55.2113 45.8458 57.4638 45.4453 59.6936ZM51.6763 60.6354C51.6348 60.9597 51.4671 61.1277 51.1206 61.1413C49.6772 61.1958 48.2314 61.2446 46.7832 61.2876C46.5125 61.2957 46.3249 61.1223 46.3321 60.8707C46.3528 60.1204 46.3628 59.3675 46.4313 58.6209C46.4862 57.966 46.4983 57.3082 46.4674 56.6518C46.425 55.5255 46.4286 54.3975 46.4286 53.2694C46.4286 52.8625 46.6307 52.6981 47.0601 52.7117C47.3398 52.7208 47.6203 52.7281 47.8982 52.7608C49.0096 52.8934 50.1211 53.0333 51.2307 53.1786C51.4111 53.2022 51.5834 53.2894 51.7927 53.3602C51.8349 53.4374 51.8685 53.519 51.8929 53.6036C51.984 55.9542 51.9759 58.3012 51.6763 60.6391V60.6354ZM51.8063 52.4511C48.5658 51.8761 45.2874 51.788 42.0118 51.6518C41.7781 51.6418 41.5409 51.6472 41.3532 51.4747C41.3289 51.452 41.3415 51.3838 41.3406 51.3393C41.3397 51.2948 41.3298 51.2185 41.3487 51.2095C41.4732 51.1504 41.604 51.0632 41.733 51.0641C42.5287 51.0705 43.3289 51.0523 44.1201 51.125C45.9848 51.2966 47.8504 51.4765 49.6962 51.8153C50.6127 51.9833 51.5356 52.1132 52.6461 52.2903C52.2709 52.5546 52.0273 52.4937 51.8063 52.4547V52.4511ZM57.4897 60.8307C57.1415 61.0432 56.8582 60.9942 56.5813 60.9978C55.3658 61.013 54.1509 61.0217 52.9366 61.0242C52.6768 61.0242 52.5081 60.8343 52.5162 60.57C52.5361 59.8643 52.5604 59.1586 52.601 58.4547C52.6696 57.2794 52.7382 56.1059 52.6516 54.927C52.6339 54.5512 52.6559 54.1746 52.7174 53.8035C52.7327 53.6963 52.9096 53.5183 52.9881 53.531C54.6056 53.7462 56.2051 54.046 57.7838 54.5991C57.8326 54.8358 57.8685 55.075 57.8912 55.3157C57.9399 56.4156 57.7225 59.3303 57.4924 60.8343L57.4897 60.8307ZM58.4911 60.8879C58.3106 59.9506 58.3918 59.1404 58.4766 58.3575C58.6038 57.1931 58.5461 56.0105 58.7843 54.8153C59.8768 55.0396 60.9494 55.1486 61.9201 55.719C62.0689 56.5155 62.0202 57.3157 61.9787 58.1123C61.9417 58.818 61.8678 59.5219 61.7983 60.2249C61.7496 60.739 61.6413 60.8434 61.0766 60.8761C60.2529 60.9261 59.4149 61.0233 58.4938 60.8916L58.4911 60.8879Z" fill="#3E1C66"/>
<path d="M20.4758 33.7179C20.945 33.5233 21.4034 33.3032 21.8489 33.0585C21.9842 32.9804 22.0383 32.7579 22.0798 32.6879C22.1114 32.36 21.8498 32.0939 21.6585 32.1375C21.101 32.2647 20.6102 32.5099 20.2458 32.9649C20.1633 33.0771 20.1043 33.2051 20.0726 33.341C20.057 33.4297 20.0712 33.5211 20.1132 33.6007C20.1461 33.6644 20.2026 33.7125 20.2705 33.7344C20.3385 33.7563 20.4122 33.7504 20.4758 33.7179Z" fill="#3E1C66"/>
<path d="M27.518 31.2094C27.6515 31.2376 27.7886 31.2594 27.9691 31.293C28.1955 31.2485 28.4652 31.2085 28.7278 31.1395C28.8964 31.095 29.0886 30.7435 29.0633 30.5773C29.0381 30.4111 28.753 30.1604 28.5672 30.1613C28.3393 30.1557 28.1114 30.1703 27.8861 30.2049C27.5893 30.2594 27.426 30.4774 27.324 30.7499C27.2663 30.9088 27.3764 31.1795 27.518 31.2094Z" fill="#3E1C66"/>
<path d="M23.0886 32.6277C23.4378 32.5225 23.7809 32.3976 24.1161 32.2535C24.1957 32.2081 24.2608 32.1409 24.3038 32.0597C24.3467 31.9784 24.3658 31.8866 24.3588 31.7948C24.3895 31.4714 24.1305 31.2289 23.8527 31.3298C23.5489 31.4301 23.2533 31.554 22.9686 31.7003C22.7539 31.8193 22.698 32.0536 22.7259 32.3025C22.7467 32.4887 22.9388 32.6794 23.0886 32.6277Z" fill="#3E1C66"/>
<path d="M25.2681 31.8214C25.7315 31.8657 26.1938 31.7259 26.5563 31.4318C26.7277 31.2983 26.6655 31.0839 26.6131 30.9104C26.5974 30.8424 26.5603 30.7813 26.5073 30.7361C26.4543 30.6909 26.3883 30.6642 26.319 30.6598C26.111 30.6418 25.9016 30.6684 25.7046 30.7379C25.5075 30.8074 25.3274 30.9182 25.176 31.063C25.056 31.1766 25.0254 31.3864 24.9956 31.4599C25.0064 31.7442 25.1381 31.8105 25.2681 31.8214Z" fill="#3E1C66"/>
<path d="M38.9435 54.3429C38.5538 53.8669 37.8952 53.846 37.4495 54.2747C37.3083 54.3982 37.1948 54.5505 37.1167 54.7216C36.9697 55.1181 36.847 55.5234 36.7495 55.9351C36.545 56.8558 36.4541 57.7984 36.4788 58.7416C36.4788 59.213 36.4671 59.6844 36.4788 60.1549C36.4806 60.2261 36.4971 60.2961 36.5273 60.3605C36.5575 60.4249 36.6008 60.4823 36.6543 60.5289C36.7078 60.5755 36.7704 60.6103 36.8381 60.6312C36.9057 60.652 36.9769 60.6584 37.0472 60.6499C37.7409 60.5681 38.4311 60.4619 39.1221 60.351C39.1656 60.3366 39.2055 60.3128 39.2391 60.2815C39.2727 60.2502 39.2993 60.2119 39.317 60.1694C39.4168 59.9586 39.4881 59.7353 39.529 59.5055C39.6192 58.7107 39.6823 57.9124 39.759 57.1158C39.8195 56.4551 39.7156 55.7896 39.4568 55.1794C39.3265 54.8772 39.1536 54.5954 38.9435 54.3429ZM38.9732 57.2775C38.9642 57.3683 38.957 57.4637 38.9426 57.5563C38.8578 58.1085 38.7703 58.6608 38.6764 59.2575C38.2551 59.5173 37.888 59.559 37.5145 59.5727C37.3341 59.579 37.1329 59.4083 37.1338 59.2393C37.1392 58.0686 37.242 56.9087 37.5343 55.7725C37.6615 55.2811 37.8781 55.0577 38.1135 55.0958C38.432 55.1485 38.5556 55.4074 38.6936 55.648C38.985 56.1521 39.0337 56.708 38.9732 57.2775Z" fill="#3E1C66"/>
<path d="M32.8171 58.2221C32.8171 57.6562 32.8262 57.0904 32.8171 56.5254C32.8081 55.9605 32.6169 55.4155 32.3661 54.9042C32.0954 54.3447 31.5181 54.1612 30.9443 54.4228C30.5536 54.5937 30.2345 54.8966 30.0422 55.2793C29.8067 55.742 29.654 56.2428 29.5911 56.7588C29.4495 57.886 29.5072 59.0159 29.5767 60.1449C29.5847 60.1916 29.5986 60.2371 29.6182 60.2802C29.6813 60.4664 29.7932 60.629 29.9925 60.6553C30.7348 60.7676 31.491 60.7473 32.2262 60.5954C32.6376 60.5045 32.8325 60.2484 32.8433 59.7779C32.855 59.2593 32.8433 58.7407 32.8433 58.223L32.8171 58.2221ZM32.0223 59.4764C30.1414 59.9305 30.2659 59.5627 30.274 58.2638C30.262 57.7937 30.2831 57.3232 30.3372 56.856C30.4211 56.2902 30.615 55.7598 31.1816 55.4718C31.2616 55.4273 31.3544 55.412 31.4444 55.4286C31.5343 55.4451 31.6158 55.4925 31.675 55.5627C31.9121 55.9156 32.0445 56.3293 32.0566 56.7552C32.1117 57.6453 32.0711 58.5327 32.0223 59.4764Z" fill="#3E1C66"/>
<path d="M30.9471 36.4949C30.8697 36.3764 30.7661 36.2775 30.6446 36.2058C30.523 36.1342 30.3867 36.0917 30.2461 36.0817C29.6237 36.0081 29.1194 36.2942 28.9272 36.88C28.7062 37.554 28.579 38.247 28.6214 38.86C28.6133 40.4295 28.6764 40.4877 30.1216 40.2597C30.4435 40.2055 30.7616 40.1312 31.0743 40.0372C31.1644 40.0099 31.2443 39.956 31.3037 39.8825C31.363 39.809 31.3991 39.7192 31.4072 39.6248C31.5173 38.8794 31.4984 38.1203 31.3512 37.3814C31.2863 37.0699 31.1176 36.7692 30.9471 36.4949ZM30.3553 39.1607C30.0846 39.2152 29.814 39.2697 29.5037 39.1316C29.3575 38.6266 29.408 38.1216 29.5416 37.6166C29.6038 37.3823 29.8447 37.1943 30.0513 37.2125C30.1673 37.2285 30.276 37.2789 30.3634 37.3574C30.4508 37.4358 30.513 37.5387 30.542 37.653C30.607 38.0217 30.6512 38.3959 30.6918 38.7692C30.7098 38.9327 30.5348 39.1244 30.3553 39.1607Z" fill="#3E1C66"/>
<path d="M32.2217 45.3574C32.1572 45.2046 32.0531 45.072 31.9202 44.9736C31.7874 44.8751 31.6307 44.8145 31.4666 44.7979C30.8478 44.7071 30.3371 44.9487 30.0972 45.5245C29.9372 45.9129 29.8221 46.3185 29.7544 46.7334C29.6777 47.1939 29.6759 47.6671 29.6416 48.1349H29.6966C29.6966 48.5563 29.6885 48.9787 29.6966 49.4001C29.6997 49.5173 29.7441 49.6296 29.822 49.7169C29.8999 49.8041 30.0061 49.8605 30.1215 49.876C30.7269 49.9232 31.3331 49.936 31.9258 49.7952C32.0623 49.7604 32.1875 49.6907 32.2893 49.5928C32.3911 49.4949 32.466 49.3722 32.5068 49.2366C32.559 49.1062 32.5878 48.9675 32.5916 48.827C32.5672 47.9832 32.5501 47.1376 32.4842 46.2975C32.447 45.972 32.3583 45.6547 32.2217 45.3574ZM31.6958 48.718C31.5035 48.8 31.2965 48.8415 31.0876 48.8398C30.8787 48.8381 30.6724 48.7932 30.4815 48.708C30.2379 47.8796 30.4084 47.0622 30.6574 46.2557C30.6944 46.1367 30.8288 46.0404 30.9344 45.9523C30.9808 45.9173 31.034 45.8925 31.0906 45.8796C31.1472 45.8667 31.2058 45.866 31.2627 45.8775C31.3196 45.889 31.3734 45.9124 31.4207 45.9463C31.4679 45.9801 31.5076 46.0237 31.537 46.074C31.5885 46.1502 31.6275 46.2342 31.6525 46.3229C31.7039 46.7888 31.7598 47.2557 31.7761 47.7234C31.7869 48.044 31.915 48.3747 31.6958 48.7225V48.718Z" fill="#3E1C66"/>
<path d="M50.7544 56.1172C50.7258 55.7418 50.6485 55.3717 50.5243 55.0164C50.4266 54.752 50.2751 54.511 50.0796 54.3089C49.9733 54.1978 49.8443 54.1113 49.7016 54.0553C49.5588 53.9992 49.4057 53.975 49.2528 53.9844C49.0999 53.9937 48.9508 54.0363 48.8159 54.1093C48.6809 54.1822 48.5632 54.2838 48.471 54.407C48.3023 54.6277 48.1246 54.8765 48.0633 55.139C47.7126 56.6605 47.6892 58.2399 47.9947 59.7712C48.0083 59.8659 48.0526 59.9534 48.1206 60.0202C48.1886 60.0871 48.2766 60.1295 48.3709 60.1409C48.8808 60.1872 49.3927 60.206 49.9045 60.1972C50.3376 60.1826 50.6136 59.9247 50.6659 59.5051C50.7408 58.8983 50.7733 58.2853 50.8238 57.6749H50.7616C50.7625 57.1508 50.7904 56.6331 50.7544 56.1172ZM49.9109 58.902C49.4896 59.3025 49.071 59.2053 48.6217 58.9347C48.5044 58.05 48.5558 57.1663 48.6217 56.2825C48.655 55.9571 48.7678 55.6451 48.9501 55.3743C49.1107 55.1163 49.4814 55.1018 49.6393 55.3389C49.8263 55.6065 49.9367 55.9207 49.9587 56.2471C49.9893 57.1327 50.0326 58.0191 49.9091 58.902H49.9109Z" fill="#3E1C66"/>
<path d="M48.0263 45.8881C47.7576 46.9865 47.662 48.1205 47.743 49.2487C47.761 49.5139 47.9352 49.6701 48.1643 49.7555C48.3376 49.8262 48.5197 49.8724 48.7056 49.8927C49.1702 49.929 49.6375 49.9444 50.1039 49.9581C50.2202 49.9591 50.3337 49.9215 50.4267 49.8511C50.5197 49.7807 50.5869 49.6813 50.6181 49.5684C50.831 48.9326 50.7525 48.2632 50.8211 47.6865C50.8211 47.1415 50.8211 46.672 50.8211 46.2024C50.8065 45.8244 50.6986 45.4561 50.5071 45.1306C50.4211 44.9771 50.3017 44.8452 50.1579 44.7447C50.0141 44.6442 49.8496 44.5778 49.6767 44.5504C49.5037 44.5229 49.3269 44.5352 49.1594 44.5863C48.9918 44.6374 48.8379 44.726 48.7092 44.8454C48.3853 45.1261 48.1327 45.4594 48.0263 45.8881ZM49.1846 45.751C49.4065 45.6011 49.8053 45.7083 49.8856 45.9653C49.955 46.186 50.0362 46.4195 50.0362 46.6429C50.0362 47.2505 50.0038 47.8591 49.9596 48.4658C49.9505 48.5811 49.8423 48.7601 49.7475 48.7846C49.2909 48.9225 48.7985 48.8729 48.3781 48.6465C48.4629 47.9199 48.5261 47.2224 48.6334 46.5312C48.6848 46.1951 48.8995 45.9372 49.1846 45.7464V45.751Z" fill="#3E1C66"/>
<path d="M42.2481 49.6907C42.7154 49.6953 43.1836 49.6789 43.65 49.6508C44.0668 49.6253 44.3067 49.3783 44.3554 48.9169C44.4042 48.4555 44.4294 47.9777 44.4745 47.3901C44.4429 46.9886 44.4141 46.4718 44.359 45.9578C44.3185 45.5727 44.1308 45.2457 43.8872 44.9496C43.7634 44.7941 43.6016 44.6736 43.4177 44.6C43.2337 44.5263 43.0339 44.5021 42.8378 44.5295C42.6418 44.557 42.4562 44.6353 42.2992 44.7567C42.1422 44.8781 42.0192 45.0384 41.9422 45.2221C41.9242 45.2657 41.8998 45.3074 41.8854 45.352C41.5029 46.5327 41.4343 47.7525 41.4975 48.985C41.516 49.1744 41.6025 49.3505 41.7406 49.4804C41.8787 49.6102 42.0591 49.685 42.2481 49.6907ZM42.2011 47.6017C42.2769 47.0429 42.3856 46.4891 42.5268 45.9432C42.5539 45.8288 42.7072 45.7316 42.8173 45.6544C42.9075 45.5917 43.2458 45.7225 43.3153 45.846C43.4289 46.0477 43.5598 46.252 43.6139 46.4728C43.6738 46.7679 43.7163 47.0663 43.7411 47.3665C43.7077 47.6871 43.6924 47.9223 43.6554 48.154C43.6229 48.352 43.5056 48.5236 43.3099 48.5509C42.2562 48.6944 42.0812 48.6344 42.2011 47.599V47.6017Z" fill="#3E1C66"/>
<path d="M56.4612 56.1283C56.4424 55.7518 56.3285 55.3863 56.1301 55.0666C56.0258 54.9153 55.8805 54.7974 55.7115 54.7269C55.1558 54.4989 54.6741 54.746 54.5171 55.3154C54.4801 55.4499 54.4594 55.5879 54.4269 55.726C54.1256 57.0202 54.1905 58.3318 54.2465 59.6424C54.2482 59.8084 54.3132 59.9675 54.428 60.0866C54.5428 60.2058 54.6987 60.276 54.8635 60.2827C55.141 60.2961 55.4191 60.2876 55.6953 60.2573C56.0561 60.2164 56.3105 59.9848 56.3511 59.6297C56.426 58.9803 56.4675 58.3263 56.509 57.8377C56.509 57.3436 56.5144 57.0202 56.509 56.6887C56.4991 56.5016 56.4747 56.3154 56.4612 56.1283ZM55.6348 58.9013C55.6087 59.0893 55.3859 59.2746 55.246 59.2101C55.1239 59.1538 55.0223 59.0604 54.9555 58.943C54.9048 58.8115 54.8815 58.6708 54.887 58.5298C54.8455 57.6769 54.9844 56.8404 55.1423 56.0084C55.154 55.9458 55.2731 55.8704 55.3471 55.864C55.3905 55.8632 55.4335 55.8729 55.4725 55.8923C55.5114 55.9118 55.5452 55.9404 55.5708 55.9757C55.6483 56.1474 55.7035 56.3284 55.735 56.5143C55.781 56.7923 55.799 57.0747 55.8324 57.3935C55.7702 57.8777 55.7061 58.3881 55.6348 58.9013Z" fill="#3E1C66"/>
<path d="M56.1391 45.853C56.0211 45.7756 55.8834 45.7344 55.7426 45.7344C55.6018 45.7344 55.4641 45.7756 55.3461 45.853C55.0619 46.0283 54.8238 46.2608 54.7263 46.5887C54.6199 46.9456 54.4891 47.3107 54.4737 47.6786C54.4368 48.5678 54.453 49.4588 54.4629 50.3489C54.4629 50.4431 54.4916 50.5351 54.5452 50.6125C54.5987 50.6898 54.6746 50.7487 54.7624 50.7812C55.1476 50.9501 55.5283 51.1182 55.9659 51.1046C56.3078 51.0937 56.6289 50.8748 56.6623 50.5405C56.7219 49.9347 56.7525 49.3253 56.7787 48.9293C56.7787 48.1073 56.8004 47.4969 56.7724 46.8893C56.7662 46.6759 56.7044 46.4678 56.5932 46.2859C56.4821 46.1041 56.3255 45.9548 56.1391 45.853ZM55.8964 49.7494C55.8807 49.7903 55.8549 49.8266 55.8214 49.8547C55.788 49.8828 55.748 49.9019 55.7052 49.9102C55.5706 49.9044 55.4392 49.8667 55.3218 49.8003C55.2477 49.7442 55.198 49.6616 55.1828 49.5696C55.0334 48.8894 55.0408 48.1838 55.2045 47.5069C55.2288 47.4176 55.2617 47.3309 55.3028 47.2481C55.3813 47.0755 55.4832 46.9247 55.6925 46.9038C55.8224 46.8911 56.0227 47.0991 56.0399 47.2717C56.0678 47.5442 56.0832 47.823 56.1156 48.2444C56.0606 48.655 55.9866 49.2036 55.8964 49.7494Z" fill="#3E1C66"/>
<path d="M26.3724 55.5666C26.3047 55.4431 26.2479 55.3141 26.1766 55.1933C26.0765 55.0056 25.925 54.8507 25.7402 54.7469C25.5554 54.6431 25.345 54.5947 25.1338 54.6075C24.7368 54.6265 24.4301 54.8736 24.2722 55.2432C24.1261 55.5866 23.9718 55.9426 23.9186 56.3077C23.7291 57.6093 23.5577 58.9163 23.8455 60.3768C24.6114 60.493 25.3034 60.4113 25.9917 60.2987C26.4806 60.2187 26.7432 59.9726 26.7747 59.4476C26.829 58.6512 26.8341 57.8522 26.7901 57.0552C26.7605 56.5343 26.618 56.0261 26.3724 55.5666ZM26.0594 59.1488C24.3651 59.6084 24.4075 59.1533 24.5365 57.9408C24.5907 57.4304 24.6547 56.9199 24.7495 56.4158C24.781 56.2442 24.9163 56.0907 25.0138 55.9353C25.0706 55.8445 25.3088 55.8445 25.3873 55.9244C25.4902 56.016 25.5811 56.1204 25.6579 56.2351C25.9051 56.6892 26.0819 57.1715 26.0801 57.7001C26.0801 58.1633 26.0684 58.6265 26.0594 59.1488Z" fill="#3E1C66"/>
<path d="M21.1318 56.7445C21.111 56.4619 20.9903 56.196 20.7917 55.9952C20.7289 55.9258 20.6502 55.8729 20.5625 55.8413C20.4747 55.8096 20.3806 55.8001 20.2883 55.8136C20.1957 55.8265 20.1092 55.8673 20.0401 55.9307C19.971 55.9941 19.9226 56.0771 19.9013 56.1687C19.7397 56.9931 19.6659 57.8326 19.6812 58.6728C19.6914 59.0444 19.7215 59.4152 19.7714 59.7836C19.8002 60.0143 20.0122 60.1623 20.2757 60.176C20.8855 60.2087 21.1444 59.9943 21.1778 59.3976C21.2004 59.0261 21.1778 58.6519 21.1778 58.2786H21.2301C21.2049 57.7654 21.1913 57.2522 21.1318 56.7445Z" fill="#3E1C66"/>
<path d="M24.5346 41.6711C24.715 41.6338 24.8954 41.5803 25.0758 41.5221C25.5025 41.3941 25.7136 41.1506 25.6866 40.7001C25.6424 39.949 25.5792 39.1961 25.4683 38.4522C25.4295 38.1906 25.2617 37.9254 25.0903 37.712C24.9923 37.5944 24.8655 37.5046 24.7226 37.4514C24.5796 37.3981 24.4253 37.3833 24.2749 37.4083C24.1245 37.4333 23.9832 37.4974 23.8648 37.5941C23.7465 37.6908 23.6552 37.8169 23.5999 37.9599C23.4888 38.2698 23.4105 38.5907 23.3663 38.9172C23.3149 39.2896 23.3167 39.6693 23.2869 40.1942V40.6111C23.2833 41.6756 23.5188 41.8773 24.5346 41.6711ZM24.1151 39.454C24.1367 39.3532 24.1827 39.0798 24.2585 38.8182C24.2783 38.7775 24.3073 38.742 24.3432 38.7145C24.379 38.6871 24.4208 38.6685 24.4651 38.6602C24.5072 38.6593 24.5489 38.6686 24.5867 38.6872C24.6245 38.7059 24.6574 38.7334 24.6825 38.7674C24.9261 39.2442 24.9369 39.7555 24.8305 40.2651C24.8088 40.3686 24.6591 40.4676 24.5454 40.5249C24.365 40.6157 24.1196 40.4949 24.1151 40.3278C24.1097 40.0952 24.1151 39.8627 24.1151 39.454Z" fill="#3E1C66"/>
<path d="M25.6921 45.9567C25.3835 45.3818 24.6005 45.3037 24.1413 45.7878C23.9467 45.9931 23.8182 46.2526 23.7723 46.5326C23.5396 47.835 23.4521 49.1347 23.8282 50.5189C24.4518 50.692 25.1105 50.6895 25.7327 50.5117C25.8242 50.4908 25.9065 50.4404 25.9669 50.368C26.0273 50.2957 26.0626 50.2055 26.0673 50.1111C26.1287 49.1738 26.1945 48.2365 26.0953 47.2955C26.0497 46.8269 25.9127 46.3719 25.6921 45.9567ZM25.2554 49.5217C25.2383 49.6634 25.0073 49.7987 24.8197 49.7941C24.6321 49.7896 24.4417 49.6434 24.4282 49.4717C24.3966 49.0566 24.3767 48.6406 24.3668 48.4772C24.393 47.8986 24.3975 47.5734 24.4273 47.2501C24.4432 47.1136 24.4861 46.9817 24.5536 46.8623C24.6149 46.7478 24.7051 46.6225 24.8639 46.6615C24.9511 46.6827 25.0285 46.7334 25.0831 46.805C25.1575 46.9209 25.2141 47.0473 25.2509 47.1802C25.4719 47.9604 25.3502 48.7424 25.2554 49.5217Z" fill="#3E1C66"/>
<path d="M20.8448 47.4205C20.7546 47.2434 20.4308 47.1135 20.2413 47.1744C20.1509 47.1984 20.0696 47.2489 20.0077 47.3193C19.9457 47.3898 19.9058 47.4771 19.8931 47.5704C19.8263 48.1262 19.7794 48.6848 19.7307 49.1844C19.7668 49.7593 19.7948 50.2743 19.8327 50.7856C19.8453 50.9537 20.041 51.109 20.2242 51.1072C20.3633 51.1075 20.5023 51.0978 20.6401 51.0781C21.0442 51.0127 21.2274 50.8265 21.249 50.4423C21.2977 49.5985 21.2995 48.7557 21.0569 47.9355C21.0005 47.7582 20.9296 47.5859 20.8448 47.4205Z" fill="#3E1C66"/>
<path d="M59.8036 51.2406C60.8131 51.5821 60.9593 51.5975 60.9764 50.514C60.9764 50.3269 60.9764 50.1398 60.9764 49.9536H60.9142C60.9142 49.533 60.9439 49.1098 60.9033 48.6938C60.8632 48.4175 60.7816 48.1489 60.6616 47.8972C60.6196 47.8135 60.555 47.7435 60.4752 47.6953C60.3954 47.6471 60.3036 47.6226 60.2105 47.6248C60.1177 47.6165 60.0246 47.6385 59.9452 47.6875C59.8657 47.7366 59.8041 47.8101 59.7694 47.8972C59.6715 48.1078 59.607 48.3324 59.5781 48.563C59.533 49.2624 59.5204 49.9645 59.5014 50.6647C59.4947 50.7584 59.5121 50.8523 59.5519 50.9372C59.616 51.0507 59.6963 51.2042 59.8036 51.2406Z" fill="#3E1C66"/>
<path d="M60.391 55.873C60.2522 55.8556 60.1117 55.8851 59.9914 55.9567C59.871 56.0284 59.7777 56.1383 59.7261 56.269C59.3273 57.2418 59.2479 58.2554 59.3535 59.2908C59.3742 59.4952 59.5917 59.745 59.8046 59.775C60.0327 59.812 60.2645 59.8205 60.4947 59.8004C60.5884 59.7917 60.6766 59.7521 60.7456 59.6877C60.8146 59.6233 60.8606 59.5377 60.8763 59.4443C60.9476 58.9375 60.9891 58.4271 61.0197 58.1274C61.0306 57.4007 61.128 56.893 60.9828 56.3835C60.947 56.2481 60.8713 56.1268 60.7656 56.0357C60.66 55.9445 60.5293 55.8878 60.391 55.873Z" fill="#3E1C66"/>
<path d="M36.4185 48.7248C36.4546 48.9973 36.6991 49.1544 37.05 49.1608C37.1434 49.1695 37.2375 49.1532 37.3227 49.1137C37.4079 49.0741 37.4812 49.0127 37.5354 48.9355C37.6346 48.7766 37.6689 48.5186 37.5128 48.416C37.0365 48.1045 37.0419 47.6485 37.0482 47.1699C37.0527 46.8883 37.0293 46.6058 37.0139 46.3243C37.0067 46.2044 36.8119 46.0291 36.7262 46.0791C36.6079 46.1361 36.51 46.2284 36.4456 46.3434C36.2814 46.7457 36.3166 47.1762 36.3175 47.7739C36.3355 47.9773 36.368 48.3515 36.4185 48.7248Z" fill="#3E1C66"/>
<path d="M19.4087 41.2159C19.4466 41.5874 19.4899 41.9597 19.5576 42.3276C19.6153 42.6391 19.849 42.7481 20.1972 42.6573C20.2874 42.6346 20.3776 42.6119 20.4678 42.581C20.8377 42.4484 20.9983 42.2177 20.9676 41.8408C20.9135 41.1396 20.8534 40.4396 20.7872 39.7409C20.7668 39.6019 20.7329 39.4653 20.6862 39.333C20.6354 39.2023 20.5474 39.0895 20.4334 39.0087C20.3193 38.928 20.1841 38.8828 20.0447 38.8789C19.7813 38.8862 19.5414 39.1141 19.4565 39.3975C19.3321 39.8144 19.3916 40.234 19.4105 40.6546C19.4001 40.8415 19.3995 41.0289 19.4087 41.2159Z" fill="#3E1C66"/>
</svg>
