<svg width="81" height="80" viewBox="0 0 81 80" fill="none" xmlns="http://www.w3.org/2000/svg">
<circle cx="40.5" cy="40" r="25" fill="#3D1B64"/>
<path d="M51.3602 51.6807C50.4282 51.0375 49.4975 50.6372 48.5139 50.4555C48.3077 50.4181 48.0493 50.3704 47.751 50.3391C48.1333 49.6819 48.3912 48.9543 48.5107 48.1957C48.5159 48.1651 48.5218 48.1338 48.5283 48.1004C48.9207 47.7976 49.2576 47.4236 49.523 46.9964C49.5647 46.9296 49.6211 46.8741 49.6874 46.8344C50.4639 46.2887 51.0443 45.4891 51.3373 44.5616C51.4757 44.5167 51.6147 44.4711 51.7531 44.4255C51.9156 44.3697 52.0794 44.3207 52.2445 44.271C52.5291 44.1845 52.8521 44.0865 53.1843 43.9586C53.8063 43.7176 54.4074 43.4406 54.9126 43.201C55.5287 42.9097 55.8654 42.4223 56.009 42.214L56.0253 42.1916C56.2688 41.8338 56.418 41.4157 56.4578 40.979C56.4977 40.5422 56.4269 40.1023 56.2525 39.7031C56.089 39.3118 55.8298 38.9723 55.5008 38.7185C55.1718 38.4648 54.7846 38.3057 54.378 38.2573L54.2795 38.2464C53.9492 38.2104 53.5746 38.1695 53.17 38.1654C52.7188 38.1609 52.2678 38.1575 51.817 38.1552C52.2034 37.5481 52.5937 36.93 52.9742 36.3099C53.1731 35.9733 53.3462 35.6207 53.4917 35.2556L53.5674 35.0773C54.0635 33.9283 53.6177 32.4989 52.5558 31.8244C52.1986 31.5977 51.7929 31.4671 51.3753 31.4444C50.9576 31.4217 50.5411 31.5076 50.1632 31.6944C49.2931 32.1127 48.4666 32.6234 47.6968 33.2184C47.1438 33.6485 46.5908 34.0796 46.0378 34.5116C45.842 33.0979 45.6357 31.5895 45.4158 30.0601C45.3558 29.6757 45.2685 29.2964 45.1547 28.9254C45.0244 28.4539 44.7712 28.0292 44.4234 27.6986C44.0756 27.3681 43.6467 27.1446 43.1844 27.0529C41.9091 26.7902 40.6717 27.6689 40.3669 29.0513C40.3186 29.2698 40.2768 29.5019 40.2429 29.7409L40.2239 29.877C40.1143 30.6414 40.0046 31.4064 39.9009 32.1722L39.7925 32.9679C39.7012 33.6411 39.6072 34.3292 39.5184 35.0221C39.3605 34.9377 39.2123 34.8676 39.0955 34.8145C37.9813 34.2891 36.8408 33.8267 35.6789 33.4294C36.5782 32.1878 36.7792 30.6958 36.2362 29.2828C36.6435 28.1372 36.8575 27.0223 37.0129 26.0442C37.2845 24.4005 37.0941 22.71 36.4647 21.1767C36.3629 20.9316 36.2413 20.6959 36.1011 20.4723C35.898 20.1515 35.6308 19.8803 35.3179 19.6772C35.005 19.474 34.6537 19.3438 34.288 19.2954C33.9224 19.247 33.551 19.2815 33.1993 19.3967C32.8477 19.5118 32.524 19.7048 32.2505 19.9624C32.1284 20.0802 32.0077 20.2007 31.8876 20.3211C31.6781 20.5301 31.4803 20.7295 31.2917 20.8915C30.72 21.3884 30.0399 21.8697 29.1517 22.4053C28.7545 22.6395 28.3713 22.8986 28.0043 23.1813C26.836 24.0927 26.0731 25.3914 25.7977 26.9372C25.7611 27.1414 25.7246 27.3708 25.6998 27.6219C24.929 28.1855 24.4402 29.0915 24.356 30.1921C24.3186 30.747 24.33 31.3043 24.3899 31.857C24.4371 32.3408 24.5879 32.8074 24.8313 33.2222C25.0746 33.6371 25.4042 33.9895 25.7957 34.2537C25.7054 34.4499 25.6291 34.6529 25.5673 34.8608C25.3857 35.4468 25.3834 36.0772 25.5608 36.6646C25.2625 37.772 25.5275 38.8747 26.2748 39.6745C26.408 40.3695 26.7658 40.9958 27.2883 41.449C27.3307 41.7166 27.3549 41.9871 27.3608 42.2583C27.3986 44.0797 27.4711 45.5745 27.5886 46.9603C27.6147 47.27 27.6375 47.5804 27.6603 47.8901C27.7158 48.6524 27.7733 49.4406 27.8823 50.2445C27.9071 50.4249 27.9253 50.6257 27.9475 50.8387C27.9835 51.3141 28.0489 51.7866 28.1433 52.2531C28.0983 52.3559 28.0532 52.4573 28.0076 52.5574C27.4982 53.6869 27.292 54.9393 27.411 56.1812C27.5481 57.7468 28.0526 59.1278 28.9121 60.2754C29.1902 60.6478 29.4401 60.9833 29.6777 61.3209C30.1346 61.9703 30.3304 62.6251 30.2964 63.382C30.2687 63.9834 30.3139 64.586 30.4309 65.1755C30.4971 65.5135 30.6383 65.8306 30.8431 66.1015C31.0478 66.3724 31.3106 66.5896 31.6102 66.7356C32.7386 67.2839 33.9312 67.6752 35.1574 67.8996C36.7649 68.195 38.3495 68.3549 39.6881 68.472C41.6807 68.6469 43.4272 68.7341 45.0399 68.7341C46.3608 68.7341 47.5931 68.6755 48.7979 68.5598C50.2816 68.4242 51.7543 68.1785 53.2046 67.8247C53.5575 67.7381 53.9024 67.619 54.2351 67.4687C55.0927 67.08 55.6749 66.3211 55.8739 65.3314C56.0795 64.3104 56.1043 63.3432 56.1128 62.3637C56.1304 60.2435 55.7068 58.1075 54.8525 56.0152C54.1287 54.2373 52.9533 52.782 51.3602 51.6807Z" fill="white"/>
<path d="M50.4497 34.8519L50.3968 34.7981L50.3838 34.8076L50.4497 34.8519Z" fill="#FF4D6B"/>
<path d="M49.788 36.258C50.008 35.9048 50.2259 35.5495 50.4348 35.1887C50.5099 35.0587 50.4687 34.9253 50.3806 34.8096C48.9996 35.7993 47.6584 36.8461 46.3237 37.912C46.8459 38.4566 47.3092 38.8098 47.9038 39.1025C48.514 38.1475 49.1837 37.228 49.788 36.258Z" fill="#FF4D6B"/>
<path d="M36.5247 41.2929C36.0313 42.484 36.4464 43.8678 37.2008 44.492C37.3137 44.5846 37.426 44.6343 37.5683 44.5601C37.6668 44.1517 37.7438 43.7378 37.8705 43.3349C38.296 41.9906 39.0583 40.9655 40.4093 40.5265C40.7643 40.4107 41.1239 40.3093 41.4764 40.1861C42.5136 39.8129 43.6502 39.8823 44.6385 40.3794C45.1623 40.6261 45.6697 40.9092 46.1572 41.2269C47.0337 41.8102 47.6994 42.5943 48.0597 43.6323C48.0916 43.7313 48.1402 43.8235 48.2033 43.9046C48.2277 43.924 48.2564 43.9366 48.2868 43.9412C48.3172 43.9459 48.3481 43.9424 48.3769 43.9311C48.5208 43.7787 48.6114 43.5802 48.634 43.3675C48.7339 42.6127 48.6386 41.8891 48.2953 41.2092C47.4227 39.483 46.011 38.4647 44.2749 37.8691C44.1763 37.8439 44.0762 37.8248 43.9754 37.812C42.2889 37.4716 40.671 37.7337 39.1118 38.4334C37.862 38.9991 37.0514 40.02 36.5247 41.2929Z" fill="#FF4D6B"/>
<path d="M42.4176 37.0402C42.7531 37.0483 43.0892 37.0402 43.4664 37.0402C43.5108 36.8693 43.5474 36.8019 43.5415 36.7393C43.3933 35.1221 43.1636 33.5164 42.9202 31.9127C42.913 31.8664 42.8608 31.827 42.8281 31.7827C42.6748 31.91 42.6617 32.0985 42.6402 32.2626C42.4391 33.7655 42.2486 35.2698 42.0626 36.7747C42.056 36.8305 42.1083 36.8945 42.1415 36.9755C42.2313 37.0065 42.3238 37.0281 42.4176 37.0402Z" fill="#FF4D6B"/>
<path d="M49.8683 42.105C50.6077 41.8647 51.3478 41.6285 52.0814 41.3685C52.2263 41.3175 52.5148 41.3161 52.4763 41.1357C52.4228 40.8832 52.146 41.035 51.9692 41.0248C51.633 41.0044 51.295 41.0186 50.9576 41.0186V40.9941C50.519 40.9941 50.081 40.9941 49.6425 40.9941C49.5421 40.9891 49.4416 40.9994 49.3442 41.0248C49.315 41.0381 49.2895 41.0587 49.2699 41.0849C49.2503 41.111 49.2373 41.1418 49.2319 41.1745C49.2534 41.3831 49.2907 41.5895 49.3435 41.7919C49.4277 42.1036 49.5889 42.1962 49.8683 42.105Z" fill="#FF4D6B"/>
<path d="M35.0577 42.265C35.1883 42.3113 35.3188 42.3331 35.4663 42.1766C35.5205 41.8532 35.6745 41.4993 35.5929 41.0821C35.1021 40.965 34.6316 41.0521 34.1682 41.0821C33.7368 41.1086 33.2949 41.0963 32.8818 41.2692C32.8596 41.2788 32.8485 41.3169 32.8315 41.3427C32.9157 41.5184 33.0926 41.5599 33.2427 41.615C33.8425 41.8417 34.4521 42.0513 35.0577 42.265Z" fill="#FF4D6B"/>
<path d="M45.4151 41.7587C44.9153 41.4644 44.4007 41.1983 43.8736 40.9616C43.441 40.7542 42.9629 40.6716 42.4893 40.7227C41.749 40.809 41.0265 41.0169 40.3486 41.3387C40.0676 41.4627 39.8143 41.6461 39.6046 41.8771C38.9519 42.6361 38.5877 43.5325 38.4702 44.5385C38.4324 44.8639 38.4996 45.1715 38.7535 45.403C38.8077 45.3723 38.8925 45.3539 38.9114 45.3063C38.9744 45.1438 39.0275 44.9774 39.0707 44.8081C39.0948 44.7051 39.1433 44.6101 39.2117 44.5317C39.2801 44.4534 39.3662 44.3942 39.4623 44.3595C40.141 44.1138 40.718 43.6788 41.3269 43.2997L42.3712 42.6538C42.6322 42.4924 42.8802 42.5176 43.1315 42.6885C43.4715 42.9179 43.8207 43.1336 44.164 43.3589C44.709 43.7163 45.2735 44.0396 45.8948 44.2206C46.1957 44.3071 46.3595 44.4711 46.4391 44.7652C46.5116 45.0374 46.5925 45.3015 46.6682 45.5643C46.7107 45.5684 46.7426 45.582 46.7642 45.5711C46.8281 45.5496 46.8864 45.513 46.9345 45.4642C47.3137 44.9238 47.3816 44.1138 47.0755 43.5699C46.6637 42.8321 46.1331 42.1909 45.4151 41.7587Z" fill="#FF4D6B"/>
<path d="M28.4692 35.7355L28.5717 35.7484C29.1049 35.7892 29.4573 35.6123 29.7556 35.2924C29.9168 35.1208 29.9449 34.8506 29.8209 34.6083C29.782 34.5308 29.718 34.4704 29.6402 34.4378C29.5624 34.4052 29.476 34.4027 29.3966 34.4306C29.0182 34.5836 28.6792 34.8264 28.4066 35.1399C28.3649 35.1949 28.3284 35.2539 28.2976 35.3162C28.2166 35.4557 28.3224 35.7164 28.4692 35.7355Z" fill="#FF4D6B"/>
<path d="M29.5403 38.3552C29.3811 38.4023 29.2244 38.4584 29.071 38.5233C29.0399 38.5358 29.0116 38.555 28.9879 38.5795C28.9642 38.604 28.9457 38.6333 28.9334 38.6657C28.9211 38.698 28.9154 38.7327 28.9167 38.7675C28.9179 38.8023 28.926 38.8364 28.9405 38.8677C28.996 39.0039 29.0939 39.1073 29.2362 39.1019C29.3535 39.1006 29.468 39.0636 29.5656 38.9956C29.6632 38.9275 29.7397 38.8313 29.7857 38.7187C29.7983 38.6881 29.8083 38.6564 29.8157 38.624C29.8209 38.5369 29.6173 38.3314 29.5403 38.3552Z" fill="#FF4D6B"/>
<path d="M31.7658 31.9285C32.1704 31.9053 32.577 31.8774 32.9771 31.8127C33.4855 31.7304 33.6245 31.5493 33.6082 31.0422C33.6053 30.8312 33.5755 30.6215 33.5194 30.4187C33.4581 30.2145 33.3236 30.043 33.09 30.0253C32.2128 29.9572 31.335 29.8946 30.775 29.8538C29.813 29.8538 29.1695 29.8449 28.5266 29.8538C28.1892 29.8599 27.8511 29.896 27.515 29.9314C27.4124 29.9403 27.317 29.9904 27.2491 30.0711C27.1811 30.1519 27.1459 30.257 27.1508 30.3643C27.1632 30.6801 27.1939 30.9966 27.2292 31.3111C27.269 31.6752 27.4902 31.8611 27.8166 31.9468C28.3504 32.0877 28.8915 32.0598 29.4325 32.0367C30.2118 32.006 30.9891 31.9734 31.7658 31.9285Z" fill="#FF4D6B"/>
<path d="M37.4235 38.6616C37.7824 38.377 38.2204 38.1851 38.565 37.8482C38.5852 37.8284 38.5852 37.7862 38.5943 37.7542C37.3008 36.9953 35.2423 36.1206 34.2979 35.9362C34.2529 35.9273 34.1961 35.9872 34.1445 36.0151C34.8566 36.8142 36.2187 37.9162 37.4235 38.6616Z" fill="#FF4D6B"/>
<path d="M28.5016 29.1063C29.0159 29.1826 29.4552 29.1547 29.8924 29.1628C30.7409 29.1785 31.5854 29.1628 32.4293 29.2166C32.8986 29.2459 33.2125 29.0757 33.4266 28.6666C33.562 28.4233 33.6771 28.1682 33.7705 27.9043C34.0383 27.1035 34.2195 26.2741 34.3109 25.4314C34.4042 24.4785 34.3109 23.5399 33.9069 22.6754C33.6772 22.6414 33.5688 22.7877 33.4422 22.9C32.4861 23.7475 31.4875 24.5336 30.365 25.1299C30.1256 25.2617 29.894 25.408 29.6712 25.5682C28.7425 26.2176 28.3659 27.1522 28.3979 28.2909C28.405 28.5346 28.4586 28.7769 28.5016 29.1063ZM29.6549 27.7171C29.6844 27.4898 29.7574 27.271 29.8695 27.0736C29.9816 26.8762 30.1306 26.7044 30.3075 26.5681C30.9739 26.0345 31.6585 25.5254 32.4039 25.1149C32.4522 25.0884 32.5311 25.1149 32.5925 25.1258C32.6212 25.1326 32.6434 25.1701 32.6793 25.2027C32.644 25.2926 32.6264 25.4069 32.567 25.4798C32.1408 26.0243 31.6657 26.5246 31.0659 26.8629C30.6091 27.1188 30.2305 27.4401 29.9766 27.9165C29.927 28.0091 29.8063 28.071 29.728 27.9996C29.6653 27.9465 29.6431 27.8097 29.6549 27.7171Z" fill="#FF4D6B"/>
<path d="M31.9927 34.8458C31.7456 35.0264 31.5621 35.2865 31.4706 35.5864C31.3948 35.8436 31.6089 36.1785 31.6846 36.1826C32.2309 36.2194 32.5089 36.054 32.7021 35.7409C32.7499 35.6502 32.7654 35.5448 32.7458 35.4434C32.7237 35.324 32.6786 35.2104 32.6132 35.1097C32.5478 35.009 32.4635 34.9231 32.3653 34.8574C32.3109 34.8183 32.2467 34.7964 32.1806 34.7943C32.1145 34.7923 32.0493 34.8102 31.9927 34.8458Z" fill="#FF4D6B"/>
<path d="M44.6341 49.4801C45.4911 48.9144 45.82 48.0616 45.9244 47.0746C45.9623 46.6886 45.9773 46.3006 45.9695 45.9127C45.9662 45.6296 45.9075 45.3505 45.7293 45.1286C45.2026 44.8652 44.6792 44.6174 44.1675 44.3438C43.6323 44.0572 43.1755 43.6162 42.5881 43.4004L39.6191 45.2103C39.6446 46.9432 39.9885 48.5455 41.2619 49.8095C41.3409 49.8739 41.4064 49.9545 41.4544 50.0464C41.4816 50.1411 41.4793 50.2424 41.4479 50.3357C41.4355 50.3772 41.3376 50.416 41.2821 50.4119C41.1827 50.3961 41.0852 50.3697 40.991 50.333C40.7228 50.2492 40.6053 50.3037 40.5635 50.5685C40.4761 51.1622 40.3345 51.746 40.1406 52.3116C40.0753 52.4907 40.1602 52.6418 40.3436 52.735C41.1202 53.1298 41.9648 53.2442 42.8047 53.3326C43.4798 53.4154 44.1632 53.3823 44.828 53.2346C44.9585 53.2033 45.089 53.1666 45.1478 52.9841C44.9272 52.2354 44.6994 51.4608 44.484 50.7298C44.2027 50.5406 44.0122 50.8748 43.7746 50.7836C43.7243 50.7638 43.6532 50.6794 43.6623 50.6433C43.6943 50.5113 43.7276 50.3581 43.8124 50.2656C44.0709 49.9872 44.3248 49.685 44.6341 49.4801Z" fill="#FF4D6B"/>
<path d="M41.6828 59.0501C41.2912 59.3905 40.8996 59.7308 40.5146 60.0711C38.7524 61.6367 36.9034 63.0572 34.7595 64.0108C34.6345 64.0663 34.5136 64.1313 34.3979 64.2055C34.3503 64.2368 34.3241 64.3049 34.2876 64.3566C34.3307 64.4083 34.3653 64.4927 34.4181 64.5063C34.8443 64.618 35.2666 64.7405 35.7019 64.8126C36.4377 64.9342 37.176 65.0372 37.917 65.1216C38.9952 65.2449 40.0708 65.4069 41.1548 65.4436C44.0004 65.5403 46.8473 65.6308 49.6876 65.2762C50.632 65.1577 51.5646 64.9923 52.494 64.7956C52.6937 64.7534 52.8856 64.6942 53.0351 64.5308C53.4175 62.8108 53.148 59.6232 52.3935 58.1122C52.3432 58.1045 52.2919 58.1145 52.2477 58.1406C52.2035 58.1668 52.1689 58.2075 52.1494 58.2565C51.6116 59.5062 50.7345 60.4897 49.8514 61.4712C49.2399 62.1519 48.4861 62.6114 47.7205 63.0769C47.6239 62.7516 47.622 62.6638 47.7107 62.5692C48.2981 61.9368 48.8855 61.3024 49.482 60.6735C50.0801 60.0468 50.6319 59.3737 51.1326 58.6601C51.4417 58.1949 51.6836 57.6849 51.8505 57.1463C51.881 57.0634 51.894 56.9746 51.8889 56.886C51.8837 56.7973 51.8604 56.7109 51.8205 56.6324C51.4132 55.8449 50.8852 55.1642 50.1588 54.6646C50.1105 54.6306 50.0283 54.6483 49.963 54.6421C49.9279 54.6998 49.9019 54.763 49.886 54.8293C49.8325 55.6638 49.5434 56.4282 49.1159 57.1075C48.1274 58.6793 46.8456 60.0275 45.3468 61.0717C44.7901 61.4617 44.1401 61.7074 43.5318 62.0171C43.4522 62.058 43.2707 61.9967 43.2648 61.9287C43.2597 61.8602 43.265 61.7912 43.2805 61.7245C43.2953 61.6553 43.325 61.5904 43.3672 61.5349C43.4095 61.4794 43.4633 61.4346 43.5246 61.4039C44.0826 61.1221 44.5375 60.7035 44.9702 60.2467C45.2091 59.9969 45.478 59.7784 45.7371 59.5504C46.6135 58.7685 47.4252 57.911 48.1637 56.987C48.4967 56.5851 48.7666 56.1307 48.9632 55.6407C49.1903 55.0594 49.2608 54.4836 48.9221 53.8784C48.3653 53.5653 47.7166 53.5381 47.0803 53.4782C46.9098 53.4652 46.7387 53.4932 46.5803 53.5601C46.4218 53.627 46.2803 53.7311 46.1665 53.8642C46.0052 54.0452 45.8544 54.2361 45.7149 54.4359C44.5186 56.1171 43.229 57.7045 41.6828 59.0501Z" fill="#FF4D6B"/>
<path d="M29.7119 36.6871C29.5259 36.619 29.336 36.572 29.229 36.54C28.8243 36.5468 28.5495 36.6415 28.3805 36.945C28.2944 37.1002 28.2585 37.267 28.3368 37.4385C28.4151 37.61 28.5763 37.6645 28.7479 37.6727C29.2309 37.6951 29.5644 37.4372 29.8222 37.0417C29.8849 36.9457 29.8235 36.7265 29.7119 36.6871Z" fill="#FF4D6B"/>
<path d="M30.6243 40.8417C30.8645 40.5334 31.0055 40.1719 31.1144 39.8023C31.3553 38.9855 31.3912 38.134 31.3931 37.2839C31.3931 37.1028 31.3018 36.9585 31.2026 36.8074C30.6987 36.0403 30.7098 35.2895 31.2247 34.5612C31.384 34.3359 31.5628 34.1242 31.7214 33.9207C31.7704 33.5484 31.8519 33.204 31.7469 32.8058C31.0244 32.6656 30.2967 32.7085 29.5429 32.8255C29.5344 32.9957 29.5259 33.1318 29.522 33.2686C29.5221 33.3041 29.5285 33.3391 29.5409 33.3721C29.5531 33.4044 29.5686 33.4352 29.5872 33.464C29.6708 33.6083 29.8307 33.5586 29.9468 33.6171C30.5277 33.9078 30.747 34.3659 30.5786 34.9989C30.5081 35.2664 30.3698 35.5148 30.2321 35.8429C30.2895 35.9198 30.326 35.979 30.3724 36.0301C30.6615 36.348 30.7209 36.7053 30.5453 37.1028C30.4611 37.2927 30.3717 37.4799 30.2973 37.6399C30.5865 38.5894 30.7953 38.7773 29.83 39.9541C29.8398 40.2802 29.9606 40.5667 30.1237 40.839C30.2438 41.0411 30.4709 41.0384 30.6243 40.8417Z" fill="#FF4D6B"/>
<path d="M42.5879 57.0292C43.0996 56.5153 43.563 55.9476 44.0237 55.3841C44.2646 55.0907 44.4591 54.7544 44.6633 54.4311C44.6662 54.4004 44.6622 54.3695 44.6517 54.3406C44.6412 54.3118 44.6244 54.2859 44.6026 54.265C44.4352 54.2452 44.2664 54.24 44.0981 54.2494C43.1155 54.3091 42.1297 54.2243 41.1697 53.9975C40.4056 53.8233 39.6907 53.4666 39.0812 52.9554C38.4408 52.4278 37.8842 51.7982 37.4319 51.0897C37.2857 50.8576 37.1859 50.5813 36.9307 50.439C36.8824 50.486 36.8152 50.5214 36.7949 50.5752C36.3968 51.6642 36.0118 52.7574 35.6078 53.8424C35.1855 54.9797 34.4154 55.7965 33.3953 56.3676C33.3663 56.3781 33.3353 56.3811 33.3049 56.3763C33.2746 56.3716 33.2458 56.3593 33.221 56.3404C33.1762 56.289 33.1516 56.222 33.1518 56.1525C33.1477 56.0469 33.1644 55.9415 33.2008 55.8428C33.3842 55.4228 33.6022 55.026 33.9291 54.7034C34.4598 54.1827 34.8063 53.5463 35.0498 52.835C35.2455 52.2693 35.4857 51.7228 35.7024 51.1673C36.1012 50.1579 36.1749 49.1097 36.0065 48.0438C35.9572 47.7665 35.865 47.4994 35.7337 47.2528C35.6642 47.1092 35.5577 46.9885 35.4262 46.9044C35.2947 46.8202 35.1433 46.7759 34.9891 46.7764C34.4591 46.7607 34.3181 46.8444 34.1693 47.3468C33.8467 48.4294 33.3446 49.4447 32.6858 50.3465C32.3393 50.8229 32.028 51.3334 31.7029 51.8296C31.2232 52.562 30.846 53.3516 30.5001 54.1602C30.1542 54.9688 30.1274 55.7986 30.3754 56.6433C30.5501 57.2546 30.8313 57.827 31.205 58.332C31.5176 58.7499 31.8256 59.1726 32.1148 59.6083C32.7452 60.5612 33.0879 61.6217 33.2008 62.7679C33.2217 62.9782 33.2367 63.1899 33.2602 63.4009C33.2672 63.4346 33.2807 63.4665 33.2998 63.4946C33.3189 63.5227 33.3433 63.5465 33.3715 63.5646C33.3996 63.5826 33.431 63.5945 33.4637 63.5996C33.4964 63.6047 33.5297 63.6029 33.5617 63.5942C34.705 63.1528 35.7991 62.5837 36.825 61.8966C38.9278 60.5067 40.8009 58.8214 42.5879 57.0292Z" fill="#FF4D6B"/>
<path d="M30.7379 50.642C30.7549 50.7815 30.7873 50.9185 30.8345 51.0504C30.847 51.0822 30.866 51.1108 30.8901 51.1343C30.9142 51.1577 30.9429 51.1756 30.9741 51.1865C31.0054 51.1895 31.037 51.185 31.0663 51.1732C31.0956 51.1613 31.1219 51.1426 31.1432 51.1184C31.7018 50.3221 32.2568 49.5223 32.8081 48.7191C32.8327 48.6776 32.8487 48.6313 32.8551 48.583C32.2501 45.7289 32.019 42.8906 31.8108 40.0066C31.7632 40.1298 31.7162 40.253 31.6673 40.3748C31.5759 40.6022 31.4963 40.8356 31.3892 41.0555C31.1464 41.5497 30.8077 41.9193 30.234 41.9689C30.1864 41.973 30.1453 42.0622 30.1035 42.1119C30.0806 43.5923 30.2223 46.2231 30.4181 47.9166C30.5221 48.8241 30.6287 49.7326 30.7379 50.642Z" fill="#FF4D6B"/>
<path d="M45.3439 49.9307C45.949 49.3623 46.2831 48.6483 46.4215 47.8206C46.4796 47.4742 46.5716 47.1339 46.6499 46.7826C47.0356 46.4859 47.4696 46.2476 47.7281 45.8195C47.9277 45.4925 48.1924 45.2139 48.5041 45.0027C49.0034 44.6528 49.2873 44.1362 49.4178 43.5229C49.4596 43.3187 49.4296 43.0941 49.6136 42.879C50.0528 42.6422 50.5789 42.504 51.0899 42.3277C51.5402 42.1725 52.0036 42.0588 52.4481 41.8873C52.9872 41.6783 53.5145 41.4374 54.0386 41.1896C54.1502 41.1365 54.2344 41.0031 54.3127 40.8915C54.4067 40.7554 54.3075 40.4742 54.1613 40.4586C53.8258 40.4225 53.4891 40.3823 53.1523 40.3789C51.6962 40.364 50.2401 40.3626 48.818 40.3558C48.5974 40.1203 48.3912 39.9365 48.3311 39.6003C48.6575 39.0952 49.0079 38.5731 49.3454 38.0443C49.9654 37.073 50.5854 36.103 51.1911 35.1174C51.3719 34.8227 51.4978 34.4905 51.6362 34.1692C51.693 34.0386 51.5846 33.7942 51.4547 33.7112C51.3968 33.674 51.3306 33.653 51.2625 33.6503C51.1945 33.6475 51.127 33.6631 51.0664 33.6955C50.3269 34.0513 49.6241 34.4846 48.9688 34.9888C48.0986 35.6663 47.2284 36.3426 46.3582 37.0178C46.086 37.2282 45.823 37.4562 45.4444 37.5549C45.2859 37.5086 45.0861 37.4664 44.8975 37.3915C44.6822 37.3057 44.427 37.3057 44.2292 37.0512C44.1515 36.4386 44.0732 35.7709 43.9825 35.1072C43.7671 33.5321 43.5476 31.9578 43.324 30.3841C43.2779 30.105 43.2124 29.8297 43.1282 29.5605C43.1068 29.4744 43.0622 29.3966 42.9996 29.3362C42.937 29.2759 42.859 29.2356 42.7751 29.2201C42.6446 29.1922 42.4807 29.3372 42.4351 29.5441C42.3972 29.7163 42.3665 29.8899 42.3417 30.0648C42.2269 30.8687 42.1113 31.6726 42.0024 32.4778C41.832 33.7377 41.6538 34.9963 41.5044 36.2596C41.4208 36.9668 41.4926 37.1757 40.6344 37.2567C39.9106 37.6216 39.2534 37.3799 38.6112 37.0171C38.4917 36.9491 38.3684 36.8912 38.2444 36.834C37.0043 36.2637 35.7486 35.7327 34.4427 35.3448C34.1163 35.2481 33.79 35.1589 33.4754 35.0725C33.3208 34.8159 33.2007 34.5586 33.029 34.3469C32.8332 34.11 32.5963 33.9147 32.3992 33.7221C32.3842 33.3439 32.4537 32.9674 32.6022 32.6221C32.9213 32.554 33.2548 32.4941 33.5812 32.405C33.712 32.3698 33.8301 32.2952 33.9205 32.1906C34.4394 31.5351 34.5732 30.8088 34.2377 30.0124C34.1548 29.8191 34.0511 29.6367 33.9114 29.3549C34.459 28.174 34.7279 26.9345 34.9282 25.6793C35.133 24.451 34.9913 23.1871 34.5203 22.0412C34.4655 21.9116 34.4 21.7873 34.3245 21.6695C34.194 21.4606 33.8677 21.417 33.6954 21.5817C33.3482 21.9173 33.016 22.2719 32.6511 22.5871C31.8941 23.2453 31.0678 23.8021 30.2154 24.3166C29.8898 24.5076 29.5753 24.7185 29.2736 24.9483C28.5055 25.548 28.0551 26.3607 27.8809 27.3381C27.8065 27.7547 27.7562 28.176 27.8078 28.6041C27.828 28.7743 27.8731 28.9554 27.7236 29.1425C27.6257 29.1691 27.4978 29.2106 27.3679 29.2372C26.7753 29.361 26.5123 29.7899 26.4685 30.3657C26.442 30.7887 26.4521 31.2133 26.4986 31.6345C26.5345 32.0081 26.7538 32.2893 27.0651 32.4696C27.363 32.6424 27.6936 32.7451 28.0336 32.7705C28.264 32.7882 28.5094 32.7215 28.7711 32.9066C28.8885 33.2467 28.9093 33.6149 28.8311 33.9671C28.5962 34.1713 28.3828 34.3489 28.1837 34.5395C27.9062 34.8032 27.7017 35.1399 27.5918 35.5142C27.5561 35.6139 27.5422 35.7205 27.5508 35.8264C27.5595 35.9324 27.5907 36.035 27.642 36.1268C27.7105 36.2487 27.7817 36.3685 27.8561 36.4964C27.7784 36.7272 27.6981 36.9579 27.6224 37.1907C27.488 37.6066 27.5846 37.9762 27.9103 38.2342C28.1713 38.4384 28.3371 38.6426 28.3345 39.0129C28.3345 39.4294 28.5459 39.7466 28.9219 39.9311C29.0088 39.9842 29.0907 40.0457 29.1666 40.1148C29.3619 40.7952 29.4681 41.4999 29.4825 42.2099C29.5145 43.7305 29.5745 45.2498 29.7031 46.7656C29.7925 47.822 29.8421 48.8845 29.9844 49.9334C30.0979 50.7686 30.081 51.629 30.406 52.4083C30.2344 52.7963 30.0797 53.1496 29.9224 53.5008C29.5737 54.2738 29.4338 55.1313 29.5177 55.9811C29.6124 57.0634 29.9322 58.0524 30.5776 58.9168C30.8485 59.2789 31.1194 59.6424 31.3798 60.0127C32.1081 61.0466 32.4671 62.2024 32.4077 63.4902C32.3886 63.9051 32.4198 64.3209 32.5004 64.7277C33.4624 65.1953 34.4793 65.5289 35.5248 65.7201C36.9639 65.9848 38.4141 66.14 39.8649 66.2646C42.7738 66.5192 45.6853 66.6342 48.6039 66.3538C49.9883 66.2258 51.3623 65.9963 52.7157 65.667C52.9465 65.6105 53.1721 65.5328 53.3899 65.4349C53.6176 65.3314 53.7436 65.1429 53.7984 64.872C53.9668 64.0347 53.9844 63.1873 53.9942 62.3385C54.0105 60.4327 53.6176 58.6248 52.9043 56.8762C52.3267 55.4618 51.4149 54.3666 50.1919 53.5226C49.5607 53.0869 48.9029 52.7738 48.1484 52.6323C47.4344 52.5009 46.7432 52.4199 46.0599 52.7384C46.0112 52.7457 45.9618 52.7457 45.9131 52.7384C45.5541 51.9298 45.1984 51.1042 45.1168 50.1955C45.1879 50.103 45.2637 50.0146 45.3439 49.9307ZM49.3441 41.0263C49.4415 41.0009 49.542 40.9906 49.6423 40.9956C50.0809 40.9956 50.5188 40.9956 50.9574 40.9956V41.0201C51.2948 41.0201 51.6329 41.0058 51.969 41.0263C52.1459 41.0365 52.4226 40.8847 52.4761 41.1372C52.5146 41.3176 52.2262 41.3189 52.0813 41.37C51.3477 41.6273 50.6076 41.8662 49.8681 42.1065C49.5888 42.1977 49.4276 42.1065 49.346 41.7947C49.2931 41.5924 49.2558 41.3859 49.2344 41.1774C49.2393 41.1447 49.2519 41.1138 49.271 41.0874C49.2901 41.061 49.3152 41.04 49.3441 41.0263ZM46.939 45.4669C46.8909 45.5157 46.8326 45.5523 46.7687 45.5738C46.7471 45.5847 46.7152 45.5738 46.6727 45.567C46.597 45.3042 46.5161 45.0374 46.4437 44.7679C46.364 44.4711 46.2002 44.3071 45.8993 44.2233C45.2774 44.0443 44.7135 43.719 44.1685 43.3616C43.8252 43.1363 43.476 42.9205 43.136 42.6912C42.8847 42.521 42.6361 42.4951 42.3757 42.6564L41.3314 43.3024C40.7225 43.6795 40.1456 44.1192 39.4668 44.3622C39.3708 44.3968 39.2846 44.4561 39.2162 44.5344C39.1478 44.6128 39.0993 44.7078 39.0752 44.8107C39.0321 44.9801 38.9789 45.1465 38.916 45.309C38.897 45.3566 38.8122 45.3771 38.758 45.4056C38.5041 45.1742 38.4369 44.8666 38.4748 44.5412C38.5922 43.5352 38.9538 42.6387 39.6091 41.8798C39.8188 41.6487 40.0721 41.4654 40.3531 41.3414C41.031 41.0196 41.7535 40.8117 42.4938 40.7254C42.9674 40.6743 43.4455 40.7569 43.8781 40.9643C44.4052 41.201 44.9198 41.4671 45.4196 41.7614C46.1376 42.1936 46.6682 42.8348 47.0846 43.5753C47.3861 44.1165 47.3182 44.9265 46.939 45.4669ZM33.016 42.2079C33.7208 42.4516 34.4224 42.7075 35.1273 42.9498C35.4053 43.0458 35.5842 43.2051 35.6644 43.5175C35.8205 44.1377 36.1731 44.6846 36.665 45.0694C36.9332 45.2804 37.2354 45.4438 37.5212 45.6303C37.6622 45.7222 37.8476 45.7861 37.9324 45.9189C38.2685 46.4634 38.7639 46.8412 39.1855 47.2965C39.3676 48.0187 39.5856 48.7212 39.9687 49.3528C40.064 49.5014 40.1007 49.6825 40.0712 49.8585C39.9569 50.5168 39.8793 51.1845 39.6273 51.8073C39.5915 51.8958 39.4968 51.9584 39.4231 52.0442C39.0112 51.8175 38.7156 51.4704 38.4506 51.1144C37.9938 50.5018 37.58 49.8592 37.1603 49.2201C36.963 48.9318 36.8417 48.5945 36.8085 48.242C36.7765 47.9617 36.7199 47.6851 36.6395 47.4156C36.2845 46.0897 35.3342 45.5779 34.0543 46.0427C33.8031 46.1333 33.5668 46.2687 33.296 46.396C33.0734 46.0223 33.0473 45.6275 33.0186 45.2613C32.939 44.2526 32.6472 43.2561 32.7875 42.2344C32.89 42.2208 32.9611 42.1888 33.016 42.2079ZM32.8313 41.3421C32.8482 41.3162 32.8593 41.2781 32.8815 41.2686C33.2946 41.0957 33.7365 41.1079 34.1679 41.0814C34.6313 41.0521 35.1018 40.965 35.5926 41.0814C35.6742 41.4986 35.5202 41.8526 35.466 42.1759C35.3179 42.3318 35.188 42.312 35.0575 42.2644C34.4518 42.0507 33.8442 41.841 33.2424 41.615C33.0917 41.5592 32.9155 41.5177 32.8313 41.3421ZM50.4529 34.852L50.3876 34.8077L50.4007 34.7982L50.4529 34.852ZM50.3805 34.8125C50.4686 34.9282 50.511 35.0616 50.4346 35.1916C50.2258 35.5524 50.0078 35.9077 49.7879 36.2609C49.1835 37.2282 48.5139 38.1477 47.9037 39.1007C47.3091 38.808 46.8431 38.4554 46.3236 37.9102C47.6583 36.8463 48.9995 35.7994 50.3805 34.8125ZM42.64 32.2661C42.6615 32.1021 42.6746 31.9135 42.828 31.7862C42.8606 31.8305 42.9128 31.87 42.92 31.9163C43.1634 33.5199 43.3932 35.1256 43.5413 36.7428C43.5472 36.8055 43.5106 36.8728 43.4663 37.0437C43.089 37.0437 42.7529 37.0485 42.4174 37.0437C42.3237 37.0328 42.2312 37.0123 42.1414 36.9824C42.1081 36.9014 42.0559 36.8375 42.0624 36.7816C42.2497 35.2733 42.439 33.769 42.64 32.2661ZM39.1118 38.4391C40.6709 37.7393 42.2889 37.4739 43.9753 37.8176C44.0762 37.8304 44.1762 37.8495 44.2749 37.8748C46.0096 38.4704 47.4226 39.4886 48.2952 41.2148C48.6385 41.8955 48.7338 42.6183 48.634 43.3732C48.6113 43.5858 48.5208 43.7843 48.3768 43.9368C48.3481 43.948 48.3171 43.9515 48.2867 43.9468C48.2564 43.9422 48.2276 43.9296 48.2032 43.9102C48.1401 43.8291 48.0915 43.7369 48.0596 43.638C47.6994 42.6 47.0337 41.8158 46.1571 41.2325C45.6697 40.9149 45.1623 40.6318 44.6384 40.3851C43.651 39.8879 42.5151 39.8177 41.4783 40.1897C41.1258 40.3116 40.7662 40.413 40.4112 40.5301C39.0602 40.9691 38.2979 41.9942 37.8724 43.3385C37.7457 43.7387 37.6687 44.1553 37.5702 44.5637C37.4279 44.6372 37.3156 44.5875 37.2027 44.4956C36.4483 43.8714 36.0332 42.4876 36.5266 41.2965C37.0513 40.0202 37.8619 38.9992 39.1118 38.4391ZM34.2991 35.9363C35.2435 36.12 37.3013 36.9954 38.5955 37.7543C38.5864 37.7863 38.5864 37.8285 38.5661 37.8482C38.2215 38.1886 37.7829 38.3771 37.4246 38.6616C36.2198 37.9163 34.8578 36.8143 34.1457 36.0152C34.196 35.9873 34.2527 35.9274 34.2991 35.9363ZM33.2849 36.4127C33.7313 36.6441 34.0609 37.0532 34.4596 37.3595C34.8408 37.6508 35.2245 37.9381 35.5992 38.2376C35.9966 38.5561 36.4646 38.7876 36.7903 39.2586L36.1428 40.2027C35.1188 40.3034 34.1157 40.4293 33.1041 40.447C32.7928 40.4525 32.6596 40.3293 32.64 40.0277C32.6126 39.6064 32.5989 39.1844 32.5702 38.763C32.535 38.2383 32.4899 37.7141 32.4397 37.0886L33.2849 36.4127ZM32.7471 35.4421C32.7666 35.5435 32.7511 35.6489 32.7033 35.7395C32.5075 36.0526 32.2321 36.216 31.6859 36.1813C31.6101 36.1772 31.3961 35.841 31.4718 35.585C31.5634 35.2852 31.7468 35.025 31.9939 34.8445C32.0505 34.8088 32.1158 34.791 32.1819 34.793C32.248 34.7951 32.3121 34.817 32.3666 34.856C32.4646 34.9221 32.5488 35.0082 32.614 35.1092C32.6791 35.2101 32.724 35.3239 32.7458 35.4434L32.7471 35.4421ZM29.6711 25.5684C29.8939 25.4082 30.1256 25.2618 30.3649 25.13C31.4874 24.5345 32.486 23.7476 33.4421 22.9009C33.5688 22.7885 33.6771 22.6422 33.9068 22.6762C34.3128 23.5407 34.4042 24.478 34.3108 25.4322C34.2194 26.2749 34.0382 27.1043 33.7704 27.9051C33.677 28.1691 33.5619 28.4241 33.4265 28.6674C33.2137 29.0758 32.8985 29.2467 32.4292 29.2174C31.5853 29.165 30.7382 29.1793 29.8924 29.1636C29.4551 29.1555 29.0158 29.1834 28.5016 29.1072C28.4585 28.7777 28.405 28.5354 28.3978 28.2904C28.3632 27.1523 28.7424 26.2177 29.6711 25.5684ZM27.8176 31.9537C27.4912 31.8679 27.2687 31.6814 27.2302 31.3179C27.1949 31.0035 27.1649 30.687 27.1519 30.3711C27.147 30.2638 27.1822 30.1587 27.2501 30.078C27.318 29.9972 27.4134 29.9471 27.5161 29.9382C27.8522 29.9028 28.1902 29.8668 28.5277 29.8606C29.1705 29.8484 29.814 29.8606 30.7761 29.8606C31.336 29.9015 32.2119 29.9648 33.091 30.0322C33.3247 30.0499 33.4591 30.22 33.5205 30.4256C33.5765 30.6284 33.6063 30.8381 33.6092 31.0491C33.6255 31.5562 33.4865 31.7372 32.9781 31.8196C32.578 31.8843 32.1714 31.9122 31.7668 31.9353C30.9901 31.9802 30.2128 32.0129 29.4349 32.0469C28.8925 32.0633 28.3514 32.0898 27.8176 31.9537ZM28.2999 35.3196C28.3307 35.2573 28.3672 35.1983 28.4089 35.1433C28.6816 34.8298 29.0206 34.587 29.399 34.434C29.4784 34.4061 29.5647 34.4086 29.6425 34.4412C29.7203 34.4738 29.7844 34.5342 29.8232 34.6117C29.9446 34.854 29.9165 35.1242 29.7579 35.2957C29.4597 35.6129 29.1053 35.7926 28.574 35.7518L28.4715 35.7389C28.3221 35.7164 28.2163 35.4557 28.2999 35.3162V35.3196ZM29.7879 38.7229C29.7411 38.8345 29.6643 38.9296 29.5668 38.9966C29.4693 39.0637 29.3552 39.0998 29.2384 39.1007C29.0961 39.1061 28.9982 39.0047 28.9428 38.8665C28.9283 38.8352 28.9201 38.801 28.9189 38.7663C28.9177 38.7315 28.9234 38.6968 28.9357 38.6645C28.9479 38.6321 28.9665 38.6028 28.9902 38.5782C29.0139 38.5537 29.0422 38.5346 29.0733 38.5221C29.2267 38.4572 29.3833 38.4011 29.5425 38.354C29.6196 38.3301 29.8232 38.5357 29.818 38.6194C29.8108 38.6534 29.8008 38.6867 29.7879 38.7188V38.7229ZM28.7476 37.6713C28.576 37.6631 28.4213 37.6154 28.3364 37.4371C28.2516 37.2588 28.294 37.0968 28.3802 36.9436C28.5492 36.6401 28.824 36.5454 29.2286 36.5386C29.3356 36.5706 29.5256 36.621 29.7116 36.6857C29.8232 36.7251 29.8845 36.9443 29.8219 37.0403C29.5641 37.4371 29.2306 37.6951 28.7476 37.6713ZM29.8297 39.9549C30.795 38.7767 30.5861 38.5888 30.297 37.6406C30.3714 37.4807 30.4608 37.2935 30.545 37.1036C30.7206 36.7061 30.6612 36.3487 30.3721 36.0309C30.3257 35.9805 30.2892 35.9206 30.2317 35.8437C30.3695 35.5156 30.5078 35.2672 30.5783 34.9997C30.7467 34.3653 30.5274 33.9106 29.9465 33.6179C29.8304 33.5594 29.6705 33.6091 29.5869 33.4648C29.5683 33.436 29.5528 33.4052 29.5406 33.3729C29.5282 33.3399 29.5218 33.3048 29.5217 33.2694C29.5256 33.1333 29.5341 32.9971 29.5425 32.8263C30.2964 32.7092 31.0241 32.6663 31.7466 32.8066C31.8536 33.2047 31.77 33.5492 31.7211 33.9215C31.5625 34.1257 31.3837 34.3367 31.2244 34.562C30.7095 35.2896 30.6984 36.0404 31.2022 36.8082C31.3014 36.9586 31.3928 37.1029 31.3928 37.2846C31.3928 38.1355 31.355 38.9863 31.1141 39.8031C31.0051 40.1727 30.8642 40.5341 30.624 40.8425C30.4706 41.0392 30.2435 41.0419 30.1234 40.8425C29.957 40.5702 29.8395 40.2823 29.8297 39.9563V39.9549ZM30.1012 42.1065C30.1456 42.0568 30.1867 41.9703 30.2317 41.9635C30.8054 41.9138 31.1455 41.5442 31.3869 41.0501C31.494 40.8309 31.5736 40.5974 31.665 40.3694C31.7139 40.2476 31.7609 40.1244 31.8086 40.0012C32.0161 42.8865 32.2471 45.7249 32.8528 48.5775C32.8464 48.6258 32.8304 48.6722 32.8058 48.7137C32.2541 49.5164 31.6991 50.3162 31.1409 51.113C31.1197 51.1372 31.0934 51.1559 31.064 51.1677C31.0347 51.1795 31.0032 51.1841 30.9719 51.1811C30.9406 51.1701 30.9119 51.1523 30.8878 51.1288C30.8637 51.1053 30.8448 51.0767 30.8322 51.0449C30.7851 50.9131 30.7527 50.7761 30.7356 50.6366C30.6246 49.729 30.5174 48.8192 30.4138 47.9071C30.22 46.219 30.0784 43.5883 30.1012 42.1078V42.1065ZM33.2653 63.4072C33.2418 63.1962 33.2268 62.9845 33.2059 62.7741C33.093 61.6279 32.749 60.5647 32.1199 59.6145C31.8307 59.1789 31.5227 58.7562 31.2101 58.3383C30.8373 57.8331 30.557 57.2606 30.3832 56.6495C30.1352 55.8048 30.1606 54.9799 30.5078 54.1665C30.855 53.3531 31.2316 52.5683 31.708 51.8359C32.0344 51.3397 32.3444 50.8319 32.6909 50.3527C33.3497 49.4509 33.8518 48.4356 34.1744 47.353C34.3232 46.848 34.4642 46.767 34.9942 46.7826C35.1484 46.7822 35.2998 46.8265 35.4313 46.9106C35.5628 46.9948 35.6693 47.1154 35.7388 47.2591C35.8701 47.5056 35.9623 47.7727 36.0116 48.05C36.18 49.1159 36.1063 50.1642 35.7075 51.1736C35.4882 51.729 35.2448 52.2756 35.0549 52.8412C34.8114 53.5539 34.4675 54.1889 33.9342 54.7096C33.6079 55.0302 33.3893 55.4291 33.2059 55.8491C33.1695 55.9477 33.1528 56.0531 33.1569 56.1588C33.1567 56.2282 33.1813 56.2952 33.2261 56.3466C33.2509 56.3655 33.2797 56.3779 33.31 56.3826C33.3404 56.3873 33.3714 56.3843 33.4004 56.3739C34.4205 55.8028 35.1906 54.986 35.6129 53.8486C36.0162 52.7595 36.4019 51.6705 36.8001 50.5814C36.8203 50.5263 36.8875 50.4909 36.9358 50.4453C37.191 50.5875 37.2908 50.8639 37.437 51.096C37.8886 51.804 38.4443 52.4334 39.0837 52.961C39.6932 53.4722 40.4081 53.8289 41.1722 54.0031C42.1322 54.2299 43.118 54.3146 44.1006 54.255C44.2689 54.2455 44.4377 54.2508 44.6051 54.2706C44.6269 54.2915 44.6437 54.3174 44.6542 54.3462C44.6647 54.375 44.6687 54.406 44.6658 54.4367C44.4616 54.7607 44.2671 55.0969 44.0262 55.3896C43.5635 55.9532 43.1001 56.5209 42.5904 57.0348C40.8054 58.827 38.9323 60.5123 36.8373 61.9083C35.8114 62.5954 34.7173 63.1645 33.574 63.6059C33.5412 63.6157 33.5067 63.6183 33.4729 63.6134C33.4391 63.6085 33.4066 63.5964 33.3775 63.5776C33.3485 63.5589 33.3235 63.5341 33.3042 63.5048C33.2848 63.4754 33.2716 63.4422 33.2653 63.4072ZM46.165 53.8643C46.2787 53.7312 46.4203 53.6271 46.5787 53.5602C46.7371 53.4933 46.9082 53.4653 47.0787 53.4783C47.715 53.5355 48.3638 53.5654 48.9205 53.8786C49.2592 54.485 49.1887 55.0595 48.9616 55.6408C48.7659 56.1311 48.497 56.586 48.1647 56.9885C47.4263 57.9125 46.6145 58.77 45.7381 59.5519C45.4771 59.7799 45.2101 59.9984 44.9713 60.2482C44.5386 60.7022 44.0837 61.1208 43.5256 61.4053C43.4644 61.4361 43.4106 61.4809 43.3683 61.5364C43.326 61.5919 43.2964 61.6567 43.2816 61.7259C43.2661 61.7927 43.2608 61.8616 43.2659 61.9301C43.2705 61.9982 43.4532 62.0595 43.5328 62.0186C44.1411 61.7089 44.7911 61.4632 45.3479 61.0732C46.8466 60.029 48.1284 58.6808 49.1169 57.109C49.5444 56.4283 49.8349 55.6653 49.8871 54.8308C49.903 54.7645 49.929 54.7013 49.9641 54.6436C50.0293 54.6497 50.1116 54.632 50.1599 54.6661C50.8837 55.1643 51.4117 55.8457 51.8196 56.6346C51.8595 56.713 51.8828 56.7995 51.8879 56.8881C51.8931 56.9768 51.88 57.0655 51.8496 57.1485C51.6827 57.687 51.4408 58.1971 51.1317 58.6623C50.631 59.3766 50.0793 60.0503 49.4811 60.6777C48.8878 61.3066 48.2992 61.941 47.7098 62.5733C47.621 62.668 47.623 62.7558 47.7196 63.0811C48.4852 62.6156 49.239 62.1547 49.8505 61.4754C50.7336 60.4939 51.6127 59.5104 52.1485 58.2607C52.168 58.2117 52.2026 58.171 52.2468 58.1448C52.291 58.1187 52.3423 58.1087 52.3926 58.1164C53.1471 59.6274 53.4166 62.8129 53.0342 64.535C52.8873 64.6984 52.6928 64.7576 52.4931 64.7998C51.5631 64.9965 50.6304 65.1619 49.6867 65.2804C46.8463 65.635 43.9995 65.5445 41.1539 65.4478C40.0725 65.411 38.9943 65.249 37.9161 65.1258C37.1764 65.041 36.438 64.938 35.701 64.8168C35.2683 64.7447 34.8434 64.6222 34.4172 64.5105C34.3657 64.4969 34.3311 64.4125 34.2867 64.3608C34.3232 64.309 34.3519 64.241 34.397 64.2097C34.5127 64.1355 34.6336 64.0705 34.7585 64.015C36.9025 63.0621 38.7541 61.6415 40.5137 60.0753C40.9 59.7316 41.2916 59.3947 41.6819 59.0543C43.228 57.7086 44.5177 56.1193 45.7127 54.4401C45.8523 54.2389 46.0033 54.0466 46.165 53.8643ZM43.7743 50.7836C44.0119 50.8748 44.2024 50.5406 44.4837 50.7298C44.6991 51.4608 44.9269 52.2341 45.1475 52.9842C45.0888 53.1659 44.9582 53.2033 44.8277 53.2346C44.1629 53.3823 43.4795 53.4154 42.8045 53.3327C41.9645 53.2442 41.12 53.1285 40.3433 52.735C40.1599 52.6418 40.077 52.4907 40.1403 52.3117C40.3347 51.746 40.4767 51.1623 40.5646 50.5685C40.6063 50.3037 40.7238 50.2493 40.992 50.333C41.0862 50.3697 41.1838 50.3961 41.2831 50.4119C41.3386 50.416 41.4365 50.3772 41.4489 50.3357C41.4803 50.2424 41.4826 50.1411 41.4554 50.0464C41.4075 49.9546 41.3419 49.8739 41.2629 49.8095C39.9896 48.5469 39.6456 46.9433 39.6202 45.2103L42.5878 43.4004C43.1752 43.6162 43.632 44.0573 44.1672 44.3438C44.6789 44.6161 45.2023 44.8652 45.729 45.1286C45.9072 45.3505 45.9659 45.6296 45.9692 45.9127C45.977 46.3006 45.962 46.6887 45.9242 47.0746C45.8197 48.0616 45.4908 48.9124 44.6339 49.4801C44.3245 49.6843 44.0706 49.9872 43.8122 50.2656C43.7267 50.3582 43.694 50.5113 43.6621 50.6434C43.6529 50.6794 43.7241 50.7638 43.7743 50.7836Z" fill="#3E1C66"/>
<path d="M29.9742 27.9166C30.228 27.4402 30.6092 27.1189 31.0634 26.863C31.6639 26.5226 32.139 26.0278 32.5645 25.4799C32.6239 25.4036 32.6416 25.2927 32.6768 25.2028C32.6409 25.1702 32.6187 25.1348 32.59 25.1259C32.5286 25.1123 32.4497 25.0885 32.4014 25.115C31.656 25.5234 30.9714 26.0346 30.3051 26.5682C30.1281 26.7045 29.9791 26.8763 29.867 27.0737C29.7549 27.2711 29.6819 27.4899 29.6524 27.7172C29.6406 27.8098 29.6635 27.9466 29.7229 27.9997C29.8038 28.0739 29.9265 28.0092 29.9742 27.9166Z" fill="#3E1C66"/>
</svg>
