<svg id="Layer_1" data-name="Layer 1" xmlns="http://www.w3.org/2000/svg" viewBox="0 0 2500 707.3"><defs><style>.cls-1{fill:#ff4d6b;}</style></defs><path class="cls-1" d="M15.22,499.53l81.15-39.27c27.05,75,79.41,119.55,176.27,119.55,73.3,0,128.28-27,128.28-94.24,0-52.36-34-86.39-99.48-101.23l-116.06-27C79.79,332.86,32.67,277,32.67,195.85c0-115.19,100.35-179.76,226-179.76,113.44,0,201.58,52.36,238.23,151L417.5,205.45C390.45,132.15,338.09,99,257.81,99c-82,0-135.26,33.16-135.26,89.88,0,40.14,27.92,71.56,97.73,87.27l113.45,27.05c103,23.56,157.94,83.77,157.94,174.53,0,117.8-89,185-226.88,185C138.25,662.71,51,606,15.22,499.53Z"/><path class="cls-1" d="M591.94,502.69c50.69,128.86,162.16,197,323.59,197.25h1c161.43-.29,272.9-68.39,323.59-197.25l-75.71-36.63c-45.21,104.51-126.49,157-247.78,160.28h-1.17c-121.29-3.27-202.57-55.77-247.78-160.28Z"/><path class="cls-1" d="M571.09,206.32h85.52v73.34h1.74c31.42-55.85,89-85.52,144.86-85.52,61.08,0,116.06,33.16,140.49,89.88,35.78-60.21,90.76-89.88,158-89.88,84.65,0,155.33,62,155.33,161.43v25.31h-87.26c0-68.06-40.14-105.59-94.25-105.59-63.7,0-117.81,50.62-117.81,137v90H870.4V380.88c0-68.06-40.14-105.59-94.24-105.59-58.23,0-109.56,46.17-116.57,105.59l-1.24-.27-87.26.27Z"/><path class="cls-1" d="M1386.14,7.37c34,0,62,25.3,62,61.08s-27.93,60.21-62,60.21-62-24.43-62-60.21S1352.11,7.37,1386.14,7.37Zm-44.5,199h89V648.75h-89Z"/><path class="cls-1" d="M1524.88,21.32H1613V648.75h-88.14Z"/><path class="cls-1" d="M1680.21,432.34c0-140.5,85.51-240,226-240,139.62,0,219,96.87,219,232.12,0,7,0,17.46-.87,26.18h-356c8.73,82.9,62,134.39,137.88,134.39,50.61,0,97.73-24.44,123.92-75.92l75.91,41c-46.25,82.9-117.8,111.7-198.09,111.7C1767.47,661.84,1680.21,569.34,1680.21,432.34ZM2031,383.47C2029.26,320.64,1985.63,270,1906.22,270c-72.43,0-121.3,41-135.26,113.44Z"/><path class="cls-1" d="M2179.36,206.32h87.26V270h2.62c23.56-48,63.71-77.67,117.81-77.67,41,0,89.88,17.45,97.73,81.16l-75,49.74c-5.24-34.91-27.06-49.74-55.85-49.74-53.23,0-85.52,53.23-85.52,129.15V648.75h-89Z"/></svg>