<svg width="81.00000000000001" height="80" xmlns="http://www.w3.org/2000/svg" fill="none">

 <g>
  <title>Layer 1</title>
  <g stroke="null">
   <circle stroke="null" fill="#3e1c66" r="25.10568" cy="39.55813" cx="40.68065"/>
   <path stroke="null" fill="#fff" d="m16.8768,47.4579c0.55429,1.59436 1.45381,3.71315 2.26285,4.6355s2.48773,1.97648 3.9635,2.12318s2.25143,0.14231 2.6722,0s1.70592,-2.4359 1.99141,-3.95296s0.75897,-4.82612 -0.52706,-6.65942c-2.18203,-3.11932 -5.18277,-3.36616 -11.18424,-2.22332c-1.34752,0.2565 -0.65795,1.3115 -0.37246,2.45347s0.75897,2.37529 1.19379,3.62355z"/>
   <path stroke="null" fill="#fff" d="m22.04288,43.46892c0.36982,3.16237 0.5376,4.84545 0.6395,6.83423s0.33468,3.67186 1.79904,4.38603s3.23176,0.40847 4.82261,0.35752s4.14007,-0.10278 5.00708,-1.22454s1.27461,-1.12791 1.27461,-5.20473s-0.69309,-6.5259 -2.61598,-8.08161s-3.37671,-2.51496 -6.62077,-2.72842c-2.43766,-0.15988 -4.98424,-0.35664 -5.18892,0.35752s0.61051,2.97877 0.88283,5.30399z"/>
   <path stroke="null" fill="#fff" d="m28.97813,44.00125c0.448,2.8391 1.03919,5.95316 1.09102,6.95457s-0.14846,2.07838 1.21224,2.42975s6.48988,1.92114 8.21689,1.86843s3.76146,-0.10453 5.49198,-0.41814s3.87741,-0.67815 4.45279,-0.88986s1.0102,-0.43922 1.84471,-2.44556s2.24265,-4.08736 2.87073,-5.34879s1.96682,-3.61564 1.80958,-4.08648s-2.91641,-1.48192 -4.69612,-1.53375s-5.23372,0.05973 -6.64712,0.84505s-1.92377,1.04007 -1.92377,1.04007s-1.85701,-2.75126 -5.3119,-5.52536s-10.87327,-3.98546 -11.29844,-2.7293c-0.23806,0.70099 2.28569,6.02255 2.88742,9.83936z"/>
   <path stroke="null" fill="#fff" d="m52.2268,44.75846c-0.9083,-0.19413 -3.11581,-0.4155 -4.07067,-0.4155s-1.49334,0.68518 -1.32995,1.46435s1.69011,3.35123 2.15217,4.22176s1.0471,2.03797 1.29481,2.70295s0.93378,0.87229 2.2321,0.87229s1.75687,-0.20819 1.75687,-0.20819a1.6945,1.6945 0 0 0 0.80904,0.831c0.60349,0.29076 0.93553,0.54024 1.93256,0.54024s1.49334,-0.20731 2.24352,-0.87229s2.28393,-2.0775 3.7395,-3.324s2.38495,-2.16007 3.1325,-3.03236s0.91445,-1.77883 0.29076,-2.44381s-3.29853,-1.35367 -6.83247,-0.8556c-1.68835,0.23806 -4.39218,1.37299 -4.39218,1.37299s-0.6316,-0.3584 -2.95857,-0.85384z"/>
   <path stroke="null" fill="#fff" d="m12.5672,53.5516c0.17569,-1.11825 0.49017,-1.77532 0.77302,-2.15217s0.28286,-0.65971 0.28286,-0.65971s0.05095,-1.01811 0.1142,-1.73403s0,-0.5824 0.34523,-1.08487s1.727,-0.91094 2.44996,-1.19379s1.16129,-0.47084 2.07223,-0.37685s1.25616,0.02811 1.47665,0.08784s0.93026,0.69221 0.93026,0.69221a11.33182,11.33182 0 0 1 1.32732,0.23718c0.58065,0.13879 1.91148,0.71856 2.50793,1.06379s1.05939,0.54199 1.74896,0.5745s1.43624,-0.06149 1.98263,0s1.6374,0.63862 2.1548,0.70978s11.40034,0 13.44006,0l8.45582,0c1.14197,0 1.94749,0.07115 2.85052,0.45152a14.06287,14.06287 0 0 0 1.90006,0.6149l6.74551,0c0.80728,0 2.12757,-0.19062 2.72315,0.66498s1.54956,2.18467 1.93256,2.84964a2.0204,2.0204 0 0 1 0,1.94837c-0.28461,0.47436 -0.80289,0.52179 -2.67396,0.52179s-24.73762,-0.04744 -27.56794,0s-22.40362,0.37773 -24.18596,0.37773c-1.99581,0 -2.35069,0 -1.78586,-3.5928z"/>
   <path stroke="null" fill="#fff" d="m16.75821,50.49026c-0.29252,1.7068 -0.74403,3.57435 -0.86175,4.01884s-0.32853,1.43273 1.14197,1.43273l47.40301,0c1.08662,0 2.16534,0.04831 2.40867,-0.39793c0.60261,-1.10946 0.31097,-1.58997 0.065,-2.19609c-0.93993,-2.31731 -1.48104,-2.95857 -1.9677,-3.15534c-0.45064,-0.18184 -1.88073,-0.72207 -1.88073,-0.72207s-0.05886,-0.6149 -0.11683,-1.04534s-0.08082,-1.08838 -1.95628,-1.22981s-11.58481,-0.53497 -13.87928,-0.62896s-14.07078,0.20995 -15.47715,0.20995s-4.83139,-0.42253 -6.51975,-0.46908s-3.37671,-0.25123 -4.08033,-0.19589s-1.77093,0.52706 -2.38583,0.71153s-1.47665,1.23859 -1.89303,3.66747z"/>
   <path stroke="null" fill="#3e1c66" d="m65.45867,53.40227l-0.43922,-0.92499s-0.64477,-0.88898 -0.79938,-1.15514s-0.70802,-0.39881 -1.46084,-0.68606s-1.15075,-0.43922 -1.15075,-0.43922l-0.13264,-1.41165s-5.12304,-0.40496 -7.63273,-0.56132s-9.28418,-0.22927 -11.13856,-0.23981s-9.49325,0.46381 -11.53474,0.29691s-6.35636,-0.49192 -8.41541,-0.49192c-0.99088,0 -2.58084,0.11332 -2.58084,0.11332l-1.05412,0.4928l-0.24333,0.7212l-0.41901,0.89513s-0.32941,1.3484 -0.42253,1.97736s-0.58504,2.49564 -0.58504,2.49564s48.05569,0.05007 48.10664,0s0.10102,-0.34435 0.09838,-0.46557s-0.19589,-0.61666 -0.19589,-0.61666zm-47.10961,0.38475l0.74579,-3.62618s0.16954,-0.23015 0.43307,-0.58416a6.29575,6.29575 0 0 1 0.51213,-0.60173c0.14318,-0.16954 0.2688,-0.31887 0.29779,-0.35137c0.07642,-0.09575 1.62862,-0.18623 2.90674,-0.22488s6.76395,0.54112 7.84882,0.6149s8.44089,-0.20643 9.20249,-0.17569s3.61564,-0.17569 4.69436,-0.04568s7.03627,0.12386 8.7905,0.224c1.45557,0.08257 5.62199,0.37158 6.99586,0.46645c0.05534,0.31272 0.16778,0.92324 0.23366,1.05412c0.08784,0.17569 0.84066,0.29867 1.30536,0.55868s1.17271,0.4805 1.37212,0.62545c0.12649,0.08784 0.32326,0.48929 0.45152,0.76775l0.29603,0.60524l0.34523,0.70275l-46.43146,-0.00966z"/>
   <path stroke="null" fill="#d3a5e5" d="m64.78052,53.78702l-46.43146,0l0.74579,-3.62618s0.16954,-0.23015 0.43307,-0.58416a6.29575,6.29575 0 0 1 0.51213,-0.60173c0.14318,-0.16954 0.2688,-0.31887 0.29779,-0.35137c0.07642,-0.09575 1.62862,-0.18623 2.90674,-0.22488s6.76395,0.54112 7.84882,0.6149s8.44089,-0.20643 9.20249,-0.17569s3.61564,-0.17569 4.69436,-0.04568s7.03627,0.12386 8.7905,0.224c1.45557,0.08257 5.62199,0.37158 6.99586,0.46645c0.05534,0.31272 0.16778,0.92324 0.23366,1.05412c0.08784,0.17569 0.84066,0.29867 1.30536,0.55868s1.17271,0.4805 1.37212,0.62545c0.12649,0.08784 0.32326,0.48929 0.45152,0.76775l0.29603,0.60524l0.34523,0.69309z"/>
   <path stroke="null" fill="#3e1c66" d="m25.9405,44.97017c-0.24333,-0.67903 -0.97155,-1.38178 -1.47138,-1.63301l0,0c-0.03075,-0.0202 -1.0471,-0.66322 -2.75829,-0.74403c-1.73755,-0.08257 -2.70382,-0.05534 -3.28271,0s-1.32644,0.20819 -1.32644,0.28461s0.23015,0.84066 0.39793,1.31765s0.62281,1.81485 0.73174,2.2321s0.67288,1.9106 0.87141,2.17061a2.1223,2.1223 0 0 1 0.224,0.43922l0.01054,0.02196a0.05886,0.05886 0 0 0 0.00527,0.01054c0.16251,0.33293 1.01371,2.13899 1.46787,2.45962s2.20663,1.17359 2.70822,1.25001s1.01986,0 1.21224,0s0.59997,-0.9408 1.09717,-2.06608s0.49544,-1.77795 0.52179,-3.16237s-0.16778,-1.90269 -0.40935,-2.58084zm-6.41873,2.82417c-0.06061,-0.23103 -0.43922,-1.12264 -0.60612,-1.86053s-0.3461,-1.03304 -0.46206,-1.46962c-0.05446,-0.20555 -0.32853,-1.05412 -0.32853,-1.05412c0.26353,-0.06061 1.21312,-0.16866 2.07311,-0.18359s1.26055,0.08784 1.89039,0.18359a8.93984,8.93984 0 0 1 1.28252,0.30745s-1.09804,0.48753 -1.65146,1.08135s-1.0752,1.34752 -1.24474,1.70065s-0.69133,1.52145 -0.69133,1.52145a0.28549,0.28549 0 0 1 -0.26177,-0.22664zm4.31663,2.3788s-0.00791,0.22664 -0.05095,0.58592l0,0a0.67376,0.67376 0 0 1 -0.02811,0.12913c-0.04041,0.18008 -0.11332,0.50861 -0.17569,0.76863c-0.02723,0.12035 -0.05183,0.22576 -0.06764,0.29515c-0.02372,0.09487 -0.04744,0.19589 -0.06852,0.28813c-0.50247,-0.13791 -1.31765,-0.48138 -1.5074,-0.6149c-0.21434,-0.15548 -0.77302,-0.33644 -0.98736,-0.67727a3.07452,3.07452 0 0 0 -0.17569,-0.25211c0.02899,-0.10014 0.06325,-0.21434 0.09926,-0.33117c0.07203,-0.23191 0.15109,-0.47523 0.21434,-0.63511a0.11156,0.11156 0 0 1 0.00527,-0.01581c0.00439,-0.00966 0.00791,-0.01933 0.01142,-0.02899c0.05622,-0.13528 0.14318,-0.35752 0.14318,-0.35752s0.19501,-0.36894 0.41901,-0.76775s0.28901,-0.25035 0.50071,-0.25035s1.01811,0.19238 1.30711,0.32678s0.33293,0.42253 0.36279,0.85296a6.76395,6.76395 0 0 1 -0.00176,0.6843zm1.9106,-2.53956c-0.15724,1.66903 -0.3136,2.14163 -0.67903,3.08155s-0.62281,1.53638 -0.62281,1.53638a1.65146,1.65146 0 0 1 -0.53936,0.06413c0.04392,-0.24333 0.1142,-0.58855 0.20643,-0.93026a5.57192,5.57192 0 0 0 0.12035,-1.03919c0.065,-0.54375 0.05271,-1.32644 -0.06149,-1.73052s-0.48138,-0.42253 -0.86614,-0.53848s-1.26934,-0.28813 -1.51881,-0.28813s-0.38475,0.25035 -0.59646,0.60261s-0.43922,0.79938 -0.43922,0.79938a2.73281,2.73281 0 0 0 -0.18886,0.47875c-0.07027,0.19238 -0.1221,0.35137 -0.16163,0.47348c-0.0202,-0.03777 -0.03953,-0.07642 -0.06061,-0.11859c-0.10717,-0.21961 -0.26968,-0.60612 -0.40759,-0.94783a0.46118,0.46118 0 0 0 0.10805,-0.25387c0.06061,-0.41199 0.51916,-1.28427 1.02426,-2.07926a9.04174,9.04174 0 0 1 1.75687,-1.93256c0.20907,-0.159 1.12615,-0.73613 1.60929,-0.85208a4.73828,4.73828 0 0 1 0.66937,0.80553c0.22927,0.38827 0.80465,1.19819 0.64741,2.86897z"/>
   <path stroke="null" fill="#d3a5e5" d="m23.8384,50.17314s-0.00791,0.22664 -0.05095,0.58592l0,0a0.67376,0.67376 0 0 1 -0.02811,0.12913c-0.04041,0.18008 -0.11332,0.50861 -0.17569,0.76863c-0.02723,0.12035 -0.05183,0.22576 -0.06764,0.29515c-0.02372,0.09487 -0.04744,0.19589 -0.06852,0.28813c-0.50247,-0.13791 -1.31765,-0.48138 -1.5074,-0.6149c-0.21434,-0.15548 -0.77302,-0.33644 -0.98736,-0.67727a3.07452,3.07452 0 0 0 -0.17569,-0.25211c0.02899,-0.10014 0.06325,-0.21434 0.09926,-0.33117c0.07203,-0.23191 0.15109,-0.47523 0.21434,-0.63511a0.11156,0.11156 0 0 1 0.00527,-0.01581c0.00439,-0.00966 0.00791,-0.01933 0.01142,-0.02899c0.05622,-0.13528 0.14318,-0.35752 0.14318,-0.35752s0.19501,-0.36894 0.41901,-0.76775s0.28901,-0.25035 0.50071,-0.25035s1.01811,0.19238 1.30711,0.32678s0.33293,0.42253 0.36279,0.85296a6.76395,6.76395 0 0 1 -0.00176,0.6843z"/>
   <path stroke="null" fill="#fff" d="m23.37108,43.72103s-1.09804,0.48753 -1.65146,1.08135s-1.0752,1.34752 -1.24474,1.70065s-0.69133,1.52145 -0.69133,1.52145a0.28549,0.28549 0 0 1 -0.26353,-0.23015c-0.06061,-0.23103 -0.43922,-1.12264 -0.60612,-1.86053s-0.3461,-1.03304 -0.46206,-1.46962c-0.05446,-0.20555 -0.32853,-1.05412 -0.32853,-1.05412c0.26353,-0.06061 1.21312,-0.16866 2.07311,-0.18359s1.26055,0.08784 1.89039,0.18359a8.93984,8.93984 0 0 1 1.28427,0.31097z"/>
   <path stroke="null" fill="#fff" d="m25.749,47.63358c-0.15724,1.66903 -0.3136,2.14163 -0.67903,3.08155s-0.62281,1.53638 -0.62281,1.53638a1.65146,1.65146 0 0 1 -0.53936,0.06413c0.04392,-0.24333 0.1142,-0.58855 0.20555,-0.93026a5.51218,5.51218 0 0 0 0.12122,-1.03919c0.065,-0.54375 0.05271,-1.32644 -0.06149,-1.73052s-0.48138,-0.42253 -0.86614,-0.53848s-1.26934,-0.28813 -1.51881,-0.28813s-0.38475,0.25035 -0.59646,0.60261s-0.43922,0.79938 -0.43922,0.79938a2.73281,2.73281 0 0 0 -0.18886,0.47875c-0.07027,0.19238 -0.1221,0.35137 -0.16163,0.47348c-0.0202,-0.03777 -0.03953,-0.07642 -0.06061,-0.11859c-0.10717,-0.21961 -0.26968,-0.60612 -0.40759,-0.94783a0.46118,0.46118 0 0 0 0.10805,-0.25387c0.06061,-0.41199 0.51916,-1.28427 1.02426,-2.07926a9.04174,9.04174 0 0 1 1.75687,-1.93256c0.20907,-0.159 1.12615,-0.73613 1.60929,-0.85208a4.73828,4.73828 0 0 1 0.66937,0.80553c0.22927,0.38827 0.80465,1.19819 0.64741,2.86897z"/>
   <path stroke="null" fill="#3e1c66" d="m33.52842,46.99847c-0.12035,-1.30096 -0.4278,-3.0429 -1.22981,-4.09351a4.5503,4.5503 0 0 0 -1.0471,-1.00493c-0.04304,-0.1994 -0.87844,-0.52706 -1.58909,-0.95047s-2.17149,-0.9083 -3.25021,-1.12176s-2.52287,-0.13704 -2.76268,-0.10366c-0.39442,0.05534 0.22664,1.66903 0.31272,2.10122s0.31799,1.41428 0.63511,3.83964c0.2934,2.23562 0.383,4.83139 0.39442,5.35846c0,0.02811 0,0.0571 0,0.08784c0.02723,0.8512 0.64741,1.58118 1.24914,1.8289s2.10825,0.21873 3.09121,0.21873s2.38056,-0.24684 2.87336,-0.52706s1.01986,-0.5824 1.1771,-1.37299c0.17744,-0.89249 0.26704,-2.96033 0.14582,-4.26041zm-8.02714,1.61896s-0.06588,-1.16305 -0.08257,-1.35894s-0.04919,-0.72734 -0.09838,-1.53023s-0.19589,-1.47665 -0.22839,-2.16886s-0.36016,-2.0081 -0.50334,-2.66342l-0.10278,-0.36016l0.9004,0a7.80314,7.80314 0 0 1 1.94134,0.21258c0.79059,0.19677 1.85613,0.76951 2.18643,0.9004s0.78356,0.42604 0.73437,0.49105a3.84579,3.84579 0 0 1 -0.57274,0.50774c-0.18096,0.1142 -1.55571,1.47314 -2.12845,2.16095s-1.19292,1.63125 -1.45469,2.30238s-0.59119,1.50652 -0.59119,1.50652zm3.68943,4.01445c-1.37827,0.04831 -2.17852,0.00703 -2.69855,-0.2811a0.88986,0.88986 0 0 1 -0.10717,-0.0694c-0.0123,-0.11771 -0.02372,-0.24157 -0.02811,-0.31009c-0.00966,-0.15548 0,-0.40232 0.18359,-0.93993l0,0l0.01054,-0.03162a0.88546,0.88546 0 0 1 0.04744,-0.15636c0.11068,-0.28549 0.37948,-0.79059 0.55956,-0.99702c0.22137,-0.25211 0.19238,-0.11859 0.91709,-0.01493a13.10186,13.10186 0 0 1 1.65146,0.33381c0.20292,0.06852 0.31624,0.37597 0.44976,0.68079c0.12035,0.27583 0.29867,0.72471 0.33205,0.8064a0.03602,0.03602 0 0 0 0,0.00703a0.01669,0.01669 0 0 0 0,0.00615a6.79909,6.79909 0 0 1 0.21785,0.80289a10.91193,10.91193 0 0 1 -1.54078,0.16339l0.00527,0zm3.55503,-1.25177c-0.08784,0.39442 -0.53497,0.68342 -0.83627,0.79059a5.73267,5.73267 0 0 1 -0.55781,0.16339a5.54205,5.54205 0 0 0 -0.22839,-0.672l-0.00527,-0.01405c-0.03777,-0.08784 -0.24245,-0.57186 -0.35137,-0.80553a5.11864,5.11864 0 0 0 -0.54814,-0.92587c-0.2363,-0.31097 -0.81343,-0.34083 -1.39056,-0.43131s-1.34664,-0.14582 -1.66903,-0.16075s-0.47436,0.26353 -0.607,0.5622s-0.45679,0.96628 -0.45679,0.96628s-0.15285,0.42428 -0.15021,0.70978c0,0.05007 0,0.10453 0,0.16251a2.92255,2.92255 0 0 1 -0.30218,-1.29306c0,-0.22664 0.33381,-1.27285 0.68869,-2.12406s1.47577,-2.73984 2.51233,-3.74741c0.85647,-0.83276 1.77093,-1.61808 2.1425,-1.95364c0.49017,0.36719 1.0796,0.92675 1.29042,1.60227c0.383,1.22981 0.66761,2.82241 0.69572,3.80802s-0.14758,2.96735 -0.23191,3.36265l0.00527,0z"/>
   <path stroke="null" fill="#d3a5e5" d="m30.72534,52.46761a10.91193,10.91193 0 0 1 -1.5399,0.16427c-1.37827,0.04831 -2.17852,0.00703 -2.69855,-0.2811a0.88986,0.88986 0 0 1 -0.10717,-0.0694c-0.0123,-0.11771 -0.02372,-0.24157 -0.02811,-0.31009c-0.00966,-0.15548 0,-0.40232 0.18359,-0.93993l0,0l0.01054,-0.03162a0.88546,0.88546 0 0 1 0.04744,-0.15636c0.11068,-0.28549 0.37948,-0.79059 0.55956,-0.99702c0.22137,-0.25211 0.19238,-0.11859 0.91709,-0.01493a13.10186,13.10186 0 0 1 1.65146,0.33381c0.20292,0.06852 0.31624,0.37597 0.44976,0.68079c0.12035,0.27583 0.29867,0.72471 0.33205,0.8064a0.03602,0.03602 0 0 0 0,0.00703s0,0.00439 0,0.00615a6.79909,6.79909 0 0 1 0.22224,0.80201z"/>
   <path stroke="null" fill="#fff" d="m32.74047,51.38011c-0.08784,0.39442 -0.53497,0.68342 -0.83627,0.79059a5.73267,5.73267 0 0 1 -0.55781,0.16339a5.54205,5.54205 0 0 0 -0.22839,-0.672l-0.00527,-0.01405c-0.03777,-0.08784 -0.24245,-0.57186 -0.35137,-0.80553a5.11864,5.11864 0 0 0 -0.54814,-0.92587c-0.2363,-0.31097 -0.81343,-0.34083 -1.39056,-0.43131s-1.34664,-0.14582 -1.66903,-0.16075s-0.47436,0.26353 -0.607,0.5622s-0.45679,0.96628 -0.45679,0.96628s-0.15285,0.42428 -0.15021,0.70978c0,0.05007 0,0.10453 0,0.16251a2.92255,2.92255 0 0 1 -0.30218,-1.29306c0,-0.22664 0.33381,-1.27285 0.68869,-2.12406s1.47577,-2.73984 2.51233,-3.74741c0.85647,-0.83276 1.77093,-1.61808 2.1425,-1.95364c0.49017,0.36719 1.0796,0.92675 1.29042,1.60227c0.383,1.22981 0.66761,2.82241 0.69572,3.80802s-0.14231,2.96735 -0.22664,3.36265z"/>
   <path stroke="null" fill="#fff" d="m30.24483,42.13985a3.84579,3.84579 0 0 1 -0.57274,0.50774c-0.18096,0.1142 -1.55571,1.47314 -2.12845,2.16095s-1.19292,1.63125 -1.45469,2.30238s-0.58767,1.50652 -0.58767,1.50652s-0.06588,-1.16305 -0.08257,-1.35894s-0.04919,-0.72734 -0.09838,-1.53023s-0.19589,-1.47665 -0.22839,-2.16886s-0.36016,-2.0081 -0.50334,-2.66342l-0.10278,-0.36016l0.9004,0a7.80314,7.80314 0 0 1 1.94134,0.21258c0.79059,0.19677 1.85613,0.76951 2.18643,0.9004s0.77917,0.42604 0.73086,0.49105z"/>
   <path stroke="null" fill="#3e1c66" d="m52.81272,42.72928c-0.46206,-0.14846 -1.9554,-0.36279 -3.19223,-0.36279s-3.6376,0.27144 -5.41907,1.14197a17.70399,17.70399 0 0 0 -2.39022,1.39671c-0.32063,-0.68606 -1.0304,-1.86404 -1.83857,-2.92695c-1.14197,-1.49334 -3.64287,-4.26129 -6.11479,-5.20385s-4.17169,-1.29745 -5.30575,-1.22981c-0.39793,0.02196 0.56308,1.86053 0.90215,3.04378s1.37036,4.80065 1.72876,7.04242s0.46294,2.98668 0.56923,3.91782s0.06237,2.06432 0.25299,2.17061s0.31536,0.14758 0.96628,0.14758c0,0 2.35596,0.607 3.66922,0.89161s2.23738,0.60261 4.29731,0.63423s5.11864,-0.76248 5.90924,-0.93466s1.56976,-0.05358 1.89918,-0.70275c0.14846,-0.04919 0.39617,-0.92236 0.60963,-1.28427s1.21927,-2.12581 1.77971,-3.09824s1.05412,-1.97648 1.41604,-2.56679s0.87316,-1.50212 0.87316,-1.68308s-0.15109,-0.24508 -0.61227,-0.39354zm-19.83946,8.3302a0.37773,0.37773 0 0 1 -0.32151,-0.32326c-0.09487,-0.6966 -0.17569,-1.8166 -0.28373,-2.5703c-0.2486,-1.6822 -0.33381,-2.03446 -0.92938,-5.31629c-0.58592,-3.2344 -1.39671,-5.3365 -1.83505,-6.14378a0.15636,0.15636 0 0 1 0.12737,-0.22927a2.0652,2.0652 0 0 1 0.57274,0.02372c0.39003,0.10805 2.21893,0.46294 3.29238,0.96189s2.57294,1.47401 4.49583,3.49793s2.74775,4.12865 2.74775,4.22703s-0.84945,0.74228 -1.47401,1.16744s-2.12318,1.8983 -2.89884,2.52287s-2.62037,1.99756 -2.82066,2.14777c-0.14582,0.1098 -0.41462,0.07203 -0.67288,0.03426zm7.63185,0.72647c-0.01405,0.26353 -0.0123,0.59558 -0.00791,0.83451c-0.50334,0 -0.65443,-0.02196 -1.42131,-0.18974c-1.04095,-0.22751 -2.67747,-0.40935 -3.19487,-0.53409c-0.3382,-0.08082 -1.0471,-0.26353 -1.49773,-0.37773c0.41023,-0.3382 1.31765,-1.06642 2.11791,-1.70065c0.50686,0.1098 1.39759,0.31448 2.06696,0.5376s1.49334,0.56747 1.97121,0.77127c-0.02196,0.3953 -0.03426,0.65883 -0.03426,0.65883zm0.24333,-3.7395c-0.06325,0.69221 -0.12737,1.66903 -0.17569,2.45962c-0.53672,-0.20292 -1.59524,-0.59821 -2.00722,-0.71153c-0.33908,-0.09399 -1.00757,-0.29164 -1.48719,-0.43922l0.6149,-0.48577c0.78093,-0.6149 2.40691,-2.08189 2.89444,-2.40691c0.1467,-0.09663 0.31536,-0.20292 0.48226,-0.31097a13.94428,13.94428 0 0 0 -0.32151,1.89303l0,0.00176zm0.48138,1.65409c0.03338,-1.00054 0.19677,-2.3138 0.37334,-2.98668c0.065,-0.24772 0.12122,-0.4849 0.16602,-0.6843a4.49495,4.49495 0 0 0 0.35137,0.43922c0.23015,0.23103 2.29008,2.70207 2.652,3.17994c0.03338,0.04304 0.07379,0.09399 0.11947,0.14933c-0.56396,0.08784 -1.55571,0.26353 -2.01337,0.38036s-1.2263,0.28988 -1.66551,0.37773c0,-0.27144 0.00703,-0.56835 0.01669,-0.85735l0,0.00176zm4.06276,2.35596c-0.69221,0.10541 -2.87512,0.55956 -4.06979,0.56044c0.00615,-0.26353 0.01142,-0.62281 0.00703,-0.831c0,-0.01142 0,-0.02196 0,-0.0325c0,-0.07379 -0.00615,-0.27407 -0.01054,-0.54375c0.56396,-0.14933 1.76917,-0.46557 2.28393,-0.5824c0.47348,-0.10805 1.38793,-0.19677 1.90006,-0.24069c0.46557,0.52179 1.00493,1.10331 1.12528,1.24474c0,0 0.00703,0.00878 0.01054,0.01318l0.01581,0.01757c0.22751,0.28813 -0.58328,0.29076 -1.26231,0.39266l0,0.00176zm6.70773,-8.18526c-0.33995,0.5745 -1.05412,1.79113 -1.27725,2.24792c-0.29779,0.60876 -1.0427,1.99932 -1.39056,2.50793s-0.99615,1.75336 -0.99615,1.75336s-0.10541,0.50949 -0.45239,0.52179s-0.73349,0.12386 -0.81958,0s-1.47841,-1.53902 -1.7762,-1.92377s-1.47753,-1.80167 -1.73755,-2.08716c-0.17569,-0.1915 -0.6149,-0.78532 -0.87844,-1.15602a0.35664,0.35664 0 0 1 0.11068,-0.51828c0.71417,-0.4155 2.33752,-1.26495 2.86633,-1.4055c0.65795,-0.17569 2.89269,-0.69484 4.17169,-0.60788a15.17497,15.17497 0 0 1 2.0081,0.28022a0.26353,0.26353 0 0 1 0.17129,0.38563l0,0.00176z"/>
   <path stroke="null" fill="#d3a5e5" d="m45.39257,52.05475c-0.69221,0.10541 -2.87512,0.55956 -4.06979,0.56044c0.00615,-0.26353 0.01142,-0.62281 0.00703,-0.831c0,-0.01142 0,-0.02196 0,-0.0325c0,-0.07379 -0.00615,-0.27407 -0.01054,-0.54375c0.56396,-0.14933 1.76917,-0.46557 2.28393,-0.5824c0.47348,-0.10805 1.38793,-0.19677 1.90006,-0.24069c0.46557,0.52179 1.00493,1.10331 1.12528,1.24474c0,0 0.00703,0.00878 0.01054,0.01318l0.01581,0.01757c0.22751,0.28988 -0.58328,0.29252 -1.26231,0.39442z"/>
   <path stroke="null" fill="#d3a5e5" d="m40.6051,51.78595c-0.01405,0.26353 -0.0123,0.59558 -0.00791,0.83451c-0.50334,0 -0.65443,-0.02196 -1.42131,-0.18974c-1.04095,-0.22751 -2.67747,-0.40935 -3.19487,-0.53409c-0.3382,-0.08082 -1.0471,-0.26353 -1.49773,-0.37773c0.41023,-0.3382 1.31765,-1.06642 2.11791,-1.70065c0.50774,0.1098 1.39759,0.31448 2.06696,0.5376s1.49334,0.56747 1.97121,0.77127c-0.02196,0.3953 -0.03426,0.65883 -0.03426,0.65883z"/>
   <path stroke="null" fill="#fff" d="m41.16993,46.15166a13.94428,13.94428 0 0 0 -0.32151,1.89303c-0.06413,0.69221 -0.12737,1.66903 -0.17569,2.45962c-0.53672,-0.20292 -1.59524,-0.59821 -2.00722,-0.71153c-0.33908,-0.09399 -1.00757,-0.29164 -1.48719,-0.43922l0.6149,-0.48577c0.78093,-0.6149 2.40691,-2.08189 2.89444,-2.40691c0.1467,-0.09487 0.31536,-0.20116 0.48226,-0.30921z"/>
   <path stroke="null" fill="#fff" d="m44.99025,49.79805c-0.56396,0.08784 -1.55571,0.26353 -2.01337,0.38036s-1.22454,0.28988 -1.66376,0.37773c0,-0.27407 0.00439,-0.57098 0.01405,-0.85999c0.03338,-1.00054 0.19677,-2.3138 0.37334,-2.98668c0.065,-0.24772 0.12122,-0.4849 0.16602,-0.6843a4.49495,4.49495 0 0 0 0.35137,0.43922c0.23015,0.23103 2.29008,2.70207 2.652,3.17994c0.03426,0.04744 0.07467,0.09838 0.12035,0.15373z"/>
   <path stroke="null" fill="#fff" d="m52.10031,43.86949c-0.33995,0.5745 -1.05412,1.79113 -1.27725,2.24792c-0.29779,0.60876 -1.0427,1.99932 -1.39056,2.50793s-0.99615,1.75511 -0.99615,1.75511s-0.10541,0.50949 -0.45239,0.52179s-0.73349,0.12386 -0.81958,0s-1.47841,-1.53902 -1.7762,-1.92377s-1.47753,-1.80167 -1.73755,-2.08716c-0.17569,-0.1915 -0.6149,-0.78532 -0.87844,-1.15602a0.35664,0.35664 0 0 1 0.11068,-0.51828c0.71417,-0.4155 2.33752,-1.26495 2.86633,-1.4055c0.65795,-0.17569 2.89269,-0.69484 4.17169,-0.60788a15.17497,15.17497 0 0 1 2.0081,0.28022a0.26353,0.26353 0 0 1 0.17129,0.38563z"/>
   <path stroke="null" fill="#fff" d="m40.83964,45.18714c0,0.10014 -0.84945,0.74228 -1.47401,1.16744s-2.12318,1.8983 -2.89884,2.52287s-2.62037,1.99756 -2.82066,2.14777c-0.14582,0.1098 -0.41286,0.07203 -0.67288,0.03426a0.37773,0.37773 0 0 1 -0.32151,-0.32326c-0.09487,-0.6966 -0.17569,-1.8166 -0.28373,-2.5703c-0.2486,-1.6822 -0.33381,-2.03446 -0.92938,-5.31629c-0.58592,-3.2344 -1.39671,-5.3365 -1.83505,-6.14378a0.15636,0.15636 0 0 1 0.12737,-0.22927a2.0652,2.0652 0 0 1 0.57274,0.02372c0.39003,0.10805 2.21893,0.46294 3.29238,0.96189s2.57294,1.47401 4.49583,3.49793s2.74775,4.12689 2.74775,4.22703z"/>
   <path stroke="null" fill="#3e1c66" d="m64.40016,46.11038c-0.16602,-0.07115 -1.34488,-0.30657 -2.28832,-0.30657s-2.24001,0.02372 -3.06486,0.18886s-2.1223,0.63687 -2.8066,0.96628a11.44953,11.44953 0 0 0 -1.32468,0.80201a1.62598,1.62598 0 0 0 -0.28901,-0.22224a17.77514,17.77514 0 0 0 -2.00547,-0.72383c-0.97506,-0.29252 -1.82978,-0.37509 -2.39374,-0.45327a8.43825,8.43825 0 0 0 -0.99175,-0.04831a0.2565,0.2565 0 0 0 -0.23542,0.35928c0.19853,0.46118 0.55605,1.26231 0.81782,1.71031c0.38388,0.65619 0.87844,1.65497 1.06554,1.9229s0.68254,1.46874 0.84769,1.64443s0.64126,-0.03162 1.13757,0s0.39266,-0.27846 0.39266,-0.36192s0.16954,-0.45415 0.16954,-0.45415s0.51388,0.04041 1.11298,0.09838c0.28549,0.02723 0.53409,0.05798 0.73174,0.06852a2.43502,2.43502 0 0 0 0.11508,0.42077c0.09487,0.2117 0.2363,0.84857 0.40144,0.91972s0.6149,0.42428 0.94344,0.42428a2.52287,2.52287 0 0 0 0.91621,-0.18799c0.21258,-0.09399 1.31765,-1.31765 2.09858,-1.97999s2.33488,-1.95803 3.1123,-2.68889s1.72173,-1.58118 1.74545,-1.70329a0.38563,0.38563 0 0 0 -0.20819,-0.3953zm-9.33074,4.52043c0,0.14406 -0.16251,0.04744 -0.26792,0.04744s-0.82397,-0.09575 -1.0919,-0.12474s-0.52706,0.05798 -0.62281,0.05798s-0.23893,0.55517 -0.26353,0.60349s-0.70275,0 -0.77214,0s-0.27759,-0.50774 -0.31624,-0.67991s-0.383,-0.67025 -0.51652,-0.86175s-0.43922,-0.766 -0.47611,-0.82309s-0.39266,-0.68079 -0.43307,-0.77566c-0.1019,-0.24245 -0.45152,-0.81519 -0.35137,-0.9856c0.08784,-0.14846 0.72647,-0.03426 1.0348,0.0246c0,0 0.68781,0.12649 0.84066,0.17569s0.63862,0.18447 0.93466,0.25211s0.80465,0.26792 1.08223,0.35137s0.66058,0.46996 0.81431,0.68957s0.30657,0.70802 0.36367,0.99615s0.04129,0.90918 0.04129,1.05237zm6.07702,-1.80782c-0.62018,0.59558 -2.15832,1.68747 -2.68011,2.28393s-0.91884,1.24123 -1.21575,1.26583s-0.89337,0.0246 -0.99263,-0.19853s-0.32414,-0.63687 -0.32414,-0.8108s0.05622,-0.73437 -0.00615,-1.28691a5.65361,5.65361 0 0 0 -0.38388,-1.5522a0.30833,0.30833 0 0 1 0.12298,-0.36982c0.37861,-0.23718 1.28779,-0.76863 1.75687,-0.89425c0.64565,-0.17569 1.53902,-0.64565 2.55625,-0.72032s2.11527,-0.09926 2.67484,-0.09926c0.60173,0 0.89864,0.13967 0.89864,0.13967s-1.78674,1.64707 -2.40691,2.24265z"/>
   <path stroke="null" fill="#fff" d="m63.55335,46.58034s-1.78674,1.64707 -2.40691,2.24265s-2.15832,1.68747 -2.68011,2.28393s-0.91884,1.24123 -1.21575,1.26583s-0.89337,0.0246 -0.99263,-0.19853s-0.32414,-0.63687 -0.32414,-0.8108s0.05622,-0.73437 -0.00615,-1.28691a5.65361,5.65361 0 0 0 -0.38388,-1.5522a0.30833,0.30833 0 0 1 0.12298,-0.36982c0.37861,-0.23718 1.28779,-0.76863 1.75687,-0.89425c0.64565,-0.17569 1.53902,-0.64565 2.55625,-0.72032s2.11527,-0.09926 2.67484,-0.09926c0.60173,0 0.89864,0.13967 0.89864,0.13967z"/>
   <path stroke="null" fill="#fff" d="m55.06942,50.63081c0,0.14406 -0.16251,0.04744 -0.26792,0.04744s-0.82397,-0.09575 -1.0919,-0.12474s-0.52706,0.05798 -0.62281,0.05798s-0.23893,0.55517 -0.26353,0.60349s-0.70275,0 -0.77214,0s-0.27759,-0.50774 -0.31624,-0.67991s-0.383,-0.67025 -0.51652,-0.86175s-0.43922,-0.766 -0.47611,-0.82309s-0.39266,-0.68079 -0.43307,-0.77566c-0.1019,-0.24245 -0.45152,-0.81519 -0.35137,-0.9856c0.08784,-0.14846 0.72647,-0.03426 1.0348,0.0246c0,0 0.68781,0.12649 0.84066,0.17569s0.63862,0.18447 0.93466,0.25211s0.80465,0.26792 1.08223,0.35137s0.66058,0.46996 0.81431,0.68957s0.30657,0.70802 0.36367,0.99615s0.04129,0.90918 0.04129,1.05237z"/>
   <path stroke="null" fill="#3e1c66" d="m34.24611,53.92055a3.76322,3.76322 0 0 1 -0.50071,0.02284c-0.23893,0.00703 -0.46118,0.02723 -0.47348,-0.03602s-0.03514,-0.45327 -0.03514,-0.6149s-0.01142,-0.51301 0,-0.53321s0.07203,-0.05007 0.50861,-0.08082a1.77707,1.77707 0 0 1 0.35137,0a0.53672,0.53672 0 0 1 0.159,0.07379s0.01757,0.35137 0.03514,0.50334s-0.01581,0.64741 -0.0448,0.66498z"/>
   <path stroke="null" fill="#3e1c66" d="m37.448,53.8573c-0.11244,0.06413 -0.31097,0.09751 -0.58152,0.08784s-0.5745,0 -0.58679,-0.1142s0.0123,-0.50949 0,-0.62018s0.00527,-0.26353 0,-0.33293s0.05798,-0.23454 0.59031,-0.19853c0.23893,0.01581 0.39354,0.01581 0.46294,0.01845s0.17569,0.06413 0.17569,0.13704a5.00708,5.00708 0 0 0 0,0.51388c0.01581,0.09311 0.05095,0.44537 -0.06061,0.50861z"/>
   <path stroke="null" fill="#3e1c66" d="m40.62706,53.33463c0.01933,0.13791 0.00615,0.47875 -0.065,0.54199s-0.15109,0.06676 -0.35137,0.06676s-0.69309,0.01493 -0.70275,-0.23542s0,-0.5499 0,-0.74052s-0.0123,-0.29252 0.14406,-0.29252l0.46469,0c0.20292,0 0.47787,-0.01142 0.51037,0.06764s-0.01669,0.45327 0,0.59207z"/>
   <path stroke="null" fill="#3e1c66" d="m43.79821,53.79229c0.01318,0.17042 -0.40935,0.18974 -0.49368,0.19413s-0.46118,0 -0.55868,0s-0.13001,-0.32678 -0.11683,-0.37158s-0.0325,-0.39003 0,-0.66058s0.3057,-0.31624 0.4849,-0.31272c0,0 0.31448,-0.02196 0.3461,0s0.22137,0.05622 0.26353,0.12298a0.60788,0.60788 0 0 1 0.07291,0.33468c0.00264,0.159 -0.01142,0.52267 0.00176,0.69309z"/>
   <path stroke="null" fill="#3e1c66" d="m46.96849,53.76858c-0.01933,0.13001 -0.20116,0.18184 -0.68167,0.18886s-0.49983,-0.07818 -0.50774,-0.18535s0.00791,-0.49807 0,-0.69484a0.40672,0.40672 0 0 1 0.18271,-0.36367c0.07818,-0.04831 0.34435,-0.05183 0.48753,-0.05183c0,0 0.23366,0.01845 0.27934,0.01845a0.71065,0.71065 0 0 1 0.18359,0.08169a0.74052,0.74052 0 0 1 0.05622,0.34171c-0.01933,0.17569 0.01933,0.53409 0,0.66498z"/>
   <path stroke="null" fill="#3e1c66" d="m50.1291,53.19672a4.93944,4.93944 0 0 1 -0.02635,0.6272c-0.02196,0.08784 -0.22664,0.11683 -0.26353,0.12913a4.81822,4.81822 0 0 1 -0.51388,0.01757c-0.16339,0 -0.30833,-0.08345 -0.30833,-0.14494s-0.06676,-0.44625 -0.06676,-0.59558s0.02987,-0.43307 0.02987,-0.46996s0.04392,-0.05973 0.06588,-0.08784s0.32941,-0.0246 0.54814,-0.02284s0.43922,-0.01054 0.48929,0.0202s0.04568,0.35489 0.04568,0.52706z"/>
   <path stroke="null" fill="#3e1c66" d="m66.8141,54.80162a2.37178,2.37178 0 0 0 -0.24772,-0.43219c-0.13001,-0.16163 -0.76687,-0.94959 -0.88634,-1.12264s-0.5701,-0.76951 -0.66146,-0.76951l-0.87844,0c-1.2219,0 -3.32839,0.00527 -3.75531,0.01845c-0.60173,0.01757 -3.52077,-0.01845 -3.52077,-0.01845s-1.60578,-0.43922 -2.09858,-0.60349s-1.66024,-0.45503 -1.66024,-0.45503s-1.42394,0.03689 -1.69714,0.03689s-4.21649,0.01845 -5.40062,-0.01845s-7.60901,0 -9.03119,0s-6.5584,0.02987 -6.87376,0.02987s-1.84471,-0.62193 -1.84471,-0.62193l-2.72315,0c-0.17569,0 -0.32151,-0.1221 -0.55517,-0.16251s-2.55273,-1.26846 -3.01567,-1.49158s-0.47963,-0.23366 -0.95925,-0.23366c-0.3013,0 -0.70275,0.00791 -0.96628,0.01493l-0.92236,-0.57713c-0.23542,0.04656 -1.11737,0 -1.44766,0s-1.88951,0.73964 -1.95276,0.79586s-0.06237,0.68342 -0.07818,1.01459s-0.01581,1.22981 -0.06325,1.35367s-0.75545,0.99175 -0.80289,1.43273s-0.37773,1.50827 -0.37773,1.50827c-0.01669,0.32326 -0.08784,0.77654 0,0.84857s0.41462,0.03953 0.78181,0.04744s4.06628,-0.06237 5.97336,-0.04216s9.66279,-0.07906 10.8276,-0.11332s15.0107,-0.00527 16.09469,-0.00703s10.45338,0.02284 11.54352,-0.00791s7.10303,0.07818 7.20317,-0.07906a0.383,0.383 0 0 0 -0.00351,-0.34523zm-47.25983,-0.14494c-0.76775,0.08784 -4.32981,0.08784 -4.40711,0.09487s-0.09224,-0.20468 0,-0.57186s0.32151,-1.24211 0.43922,-1.35718c0.05446,-0.05534 0.23718,-0.25914 0.41199,-0.47172c0.34259,0.13879 0.87844,0.35137 1.35718,0.53497c0.79059,0.30042 2.04763,0.68167 2.95242,1.06642a11.81144,11.81144 0 0 1 1.30887,0.67025c-0.9206,-0.00615 -1.75599,-0.00088 -2.06169,0.03426l-0.00088,0zm44.25821,-0.16515c-0.68781,0 -7.99376,0.05271 -9.19985,0.05271s-7.4667,0 -8.5138,0.04392s-7.7724,-0.00791 -8.82652,-0.02284s-5.83193,0.01493 -6.40555,0.05798s-5.7028,0.04304 -6.0612,0.04304c-0.12298,0 -0.68254,-0.01142 -1.39847,-0.02284c-0.35752,-0.2038 -1.10859,-0.63072 -1.28076,-0.69133c-0.22664,-0.07994 -2.09331,-0.87844 -2.91201,-1.12088c-0.63247,-0.19062 -2.17501,-0.87844 -2.84613,-1.1894c0,-0.32151 -0.00966,-0.98209 -0.00966,-1.20609c0,0 0.06061,-0.59294 0.06061,-0.74667s0.38739,-0.19589 0.92499,-0.48314s0.4603,-0.19238 0.99702,-0.15373s0.6518,0.07642 0.74843,0.17569s0.41989,0.33556 0.43922,0.35137l0,0s0.55693,-0.01933 0.82485,0s0.93993,0 0.93993,0s1.63038,0.7291 2.10825,1.01635s1.76566,0.88283 1.76566,0.88283s0.87844,0.01933 1.36157,-0.01933s1.438,-0.09575 1.438,-0.09575a5.48671,5.48671 0 0 0 0.69045,0.26353c0.32678,0.09663 1.4582,0.46118 1.84999,0.47963s4.77957,-0.09926 5.95931,-0.09926s6.47407,0.05534 7.57211,0.05534s5.65185,-0.03602 6.44508,-0.03602l2.53253,0s1.00405,0.27231 1.597,0.4603s1.79201,0.71153 2.06344,0.71153s3.47246,-0.12562 4.32981,-0.14582s3.60949,0.03162 3.60949,0.03162s0.51652,0.54024 0.607,0.69045s0.43483,0.76424 0.43483,0.76424s-1.15426,-0.04744 -1.84471,-0.04744l-0.00088,0z"/>
   <path stroke="null" fill="#d3a5e5" d="m21.61508,54.62242c-0.91884,-0.00615 -1.75687,0 -2.05993,0.03426c-0.76863,0.08784 -4.32981,0.08784 -4.40711,0.09487s-0.09224,-0.20468 0,-0.57186s0.32151,-1.24211 0.43922,-1.35718c0.05446,-0.05534 0.23718,-0.25914 0.41199,-0.47172c0.34259,0.13879 0.87844,0.35137 1.35718,0.53497c0.79059,0.30042 2.04763,0.68167 2.95242,1.06642a11.81144,11.81144 0 0 1 1.30623,0.67025z"/>
   <path stroke="null" fill="#d3a5e5" d="m65.22325,53.77648c-0.08784,-0.15021 -0.607,-0.69045 -0.607,-0.69045s-2.75126,-0.05271 -3.60949,-0.03162s-4.05749,0.14582 -4.32981,0.14582s-1.4705,-0.52706 -2.06344,-0.71153s-1.597,-0.4603 -1.597,-0.4603l-2.53253,0c-0.79059,0 -5.34791,0.03602 -6.44508,0.03602s-6.39237,-0.05534 -7.57211,-0.05534s-5.56752,0.11859 -5.95931,0.09926s-1.52321,-0.383 -1.84999,-0.47963a5.48671,5.48671 0 0 1 -0.69045,-0.26353s-0.95925,0.0571 -1.438,0.09575s-1.36157,0.01933 -1.36157,0.01933s-1.28603,-0.5947 -1.76566,-0.88283s-2.10825,-1.01635 -2.10825,-1.01635s-0.67112,0.01933 -0.93993,0s-0.82485,0 -0.82485,0l0,0c-0.02108,-0.01493 -0.35137,-0.25738 -0.43922,-0.35137s-0.21082,-0.1344 -0.74843,-0.17569s-0.4603,-0.1344 -0.99702,0.15373s-0.92499,0.33029 -0.92499,0.48314s-0.06061,0.74667 -0.06061,0.74667c0,0.224 0.00791,0.88458 0.00966,1.20609c0.67112,0.30657 2.21366,0.99878 2.84613,1.1894c0.8187,0.24508 2.68538,1.04095 2.91201,1.12088c0.17569,0.06061 0.92324,0.48753 1.28076,0.69133c0.71592,0.01142 1.27549,0.02284 1.39847,0.02284c0.35752,0 5.48759,0 6.0612,-0.04304s5.34528,-0.07203 6.40555,-0.05798s7.78557,0.06588 8.83179,0.02284s7.30331,-0.04392 8.5138,-0.04392s8.51204,-0.05271 9.19985,-0.05271s1.84471,0.04919 1.84471,0.04919s-0.34962,-0.61578 -0.43922,-0.766zm-30.97715,0.14406a3.76322,3.76322 0 0 1 -0.50071,0.02284c-0.23893,0.00703 -0.46118,0.02723 -0.47348,-0.03602s-0.03514,-0.45327 -0.03514,-0.6149s-0.01142,-0.51301 0,-0.53321s0.07203,-0.05007 0.50861,-0.08082a1.77707,1.77707 0 0 1 0.35137,0a0.53672,0.53672 0 0 1 0.159,0.07379s0.01757,0.35137 0.03514,0.50334s-0.01581,0.64741 -0.0448,0.66498zm3.20278,-0.06325c-0.11244,0.06413 -0.31097,0.09751 -0.58152,0.08784s-0.5745,0 -0.58679,-0.1142s0.0123,-0.50949 0,-0.62018s0.00527,-0.26353 0,-0.33293s0.05798,-0.23454 0.59031,-0.19853c0.23893,0.01581 0.39354,0.01581 0.46294,0.01845s0.17569,0.06413 0.17569,0.13704a5.00708,5.00708 0 0 0 0,0.51388c0.01493,0.09311 0.05007,0.44537 -0.06149,0.50861l0.00088,0zm3.17818,-0.52267c0.01933,0.13791 0.00615,0.47875 -0.065,0.54199s-0.15109,0.06676 -0.35137,0.06676s-0.69309,0.01493 -0.70275,-0.23542s0,-0.5499 0,-0.74052s-0.0123,-0.29252 0.14406,-0.29252l0.46469,0c0.20292,0 0.47787,-0.01142 0.51037,0.06764s-0.01669,0.45327 0,0.59207zm3.17115,0.45766c0.01318,0.17042 -0.40935,0.18974 -0.49368,0.19413s-0.46118,0 -0.55868,0s-0.13001,-0.32678 -0.11683,-0.37158s-0.0325,-0.39003 0,-0.66058s0.3057,-0.31624 0.4849,-0.31272c0,0 0.31448,-0.02196 0.3461,0s0.22137,0.05622 0.26353,0.12298a0.60788,0.60788 0 0 1 0.07291,0.33468c0.00264,0.159 -0.01142,0.52267 0.00176,0.69309zm3.17027,-0.02372c-0.01933,0.13001 -0.20116,0.18184 -0.68167,0.18886s-0.49983,-0.07818 -0.50774,-0.18535s0.00791,-0.49807 0,-0.69484a0.40672,0.40672 0 0 1 0.18271,-0.36367c0.07818,-0.04831 0.34435,-0.05183 0.48753,-0.05183c0,0 0.23366,0.01845 0.27934,0.01845a0.71065,0.71065 0 0 1 0.18359,0.08169a0.74052,0.74052 0 0 1 0.05622,0.34171c-0.01933,0.17569 0.01933,0.53409 0,0.66498zm3.16237,-0.57186a4.93944,4.93944 0 0 1 -0.02635,0.6272c-0.02196,0.08784 -0.22664,0.11683 -0.26353,0.12913a4.81822,4.81822 0 0 1 -0.51388,0.01757c-0.16339,0 -0.30833,-0.08345 -0.30833,-0.14494s-0.06676,-0.44625 -0.06676,-0.59558s0.02987,-0.43307 0.02987,-0.46996s0.04392,-0.05973 0.06588,-0.08784s0.32941,-0.0246 0.54814,-0.02284s0.43922,-0.01054 0.48929,0.0202s0.04392,0.35489 0.04392,0.52706l0.00176,0z"/>
  </g>
 </g>
</svg>