<svg width="81" height="80" viewBox="0 0 81 80" fill="none" xmlns="http://www.w3.org/2000/svg">
<circle cx="40.6353" cy="40" r="25" fill="#3D1B64"/>
<path d="M58.9307 62.8432C58.748 62.4166 58.4707 62.0348 58.1187 61.7252C57.7667 61.4157 57.3487 61.1862 56.8948 61.0531C56.7487 61.0101 56.6057 60.9735 56.471 60.9456C56.2129 60.4007 55.9524 59.8438 55.7164 59.2949C55.4804 58.7461 55.2559 58.1852 55.0207 57.5941C54.761 56.9433 54.4923 56.2693 54.1992 55.5969C53.7141 54.488 53.3572 53.2596 53.0943 51.7794C53.4289 51.288 53.6275 50.7205 53.6708 50.132C53.7455 49.2784 53.763 48.421 53.7231 47.5652C53.6259 45.6254 52.1511 44.2233 50.1977 44.2368H49.8849C49.5485 43.2187 49.2267 42.0732 48.9956 41.1108C49.5891 40.5866 49.9646 39.8679 50.0507 39.0913C50.1476 38.3234 50.1363 37.5461 50.0172 36.7811C49.9329 36.2756 49.7326 35.7952 49.4315 35.3758C49.1303 34.9563 48.7359 34.6086 48.2778 34.3585C47.9559 34.1786 47.6125 34.0381 47.2554 33.9403C46.9944 32.7285 46.8012 31.5039 46.6764 30.2717C46.6143 29.5962 46.5384 28.9246 46.4649 28.2746C46.4004 27.7026 46.3359 27.1306 46.2812 26.5586C46.1766 25.4624 46.0827 24.3447 45.9929 23.2454C46.7973 22.6224 47.2644 21.633 47.2268 20.4715C47.2048 19.7967 47.1598 19.1291 47.1141 18.5085C47.0868 18.0713 46.9991 17.6396 46.8536 17.2251C46.6893 16.7703 46.4201 16.3583 46.0669 16.0209C45.7137 15.6835 45.2858 15.4296 44.8161 15.279C44.7982 15.1539 44.781 15.0288 44.7639 14.9037L44.674 14.2664C44.5401 13.316 44.2935 12.5465 43.8982 11.8414C43.2776 10.7389 42.02 10.1303 40.6922 10.2912C39.473 10.4394 38.4808 11.1978 38.1027 12.2661L38.0773 12.337C37.8791 12.8624 37.7229 13.402 37.6102 13.951C37.5286 14.3979 37.4543 14.8432 37.3857 15.2829C36.1607 15.6868 35.3147 16.7169 35.1677 18.0887C35.0918 18.7945 35.055 19.4948 35.0256 20.0954C34.9505 21.6736 35.4968 22.6367 36.2693 23.2175C36.2522 23.4485 36.2326 23.6724 36.2105 23.8946C36.1017 25.0301 35.9873 26.165 35.8676 27.2995C35.7777 28.1811 35.6884 29.0627 35.5997 29.9443C35.4674 31.2803 35.2599 32.6082 34.9783 33.9219C33.5083 34.3099 32.4467 35.4403 32.1813 36.9404C32.0553 37.6679 32.0523 38.4107 32.1723 39.1391C32.2806 39.8988 32.6558 40.5982 33.2339 41.118C32.9669 42.1329 32.646 43.1574 32.3095 44.2169C32.1699 44.2169 32.0311 44.2241 31.8914 44.2305C30.032 44.3149 28.6127 45.6596 28.5163 47.4282C28.4689 48.3101 28.4346 49.3401 28.598 50.4228C28.6709 50.9115 28.8569 51.3776 29.1418 51.7858C28.9785 52.8621 28.7474 53.728 28.4289 54.5159C28.1937 55.0998 27.9634 55.6854 27.7332 56.2685C27.0978 57.8825 26.4927 59.4216 25.7896 60.9058C25.3047 61.0175 24.8463 61.2187 24.4389 61.4985C23.9093 61.8728 23.5103 62.3967 23.2956 62.9993C23.1373 63.414 23.0856 63.8602 23.145 64.2989C23.2043 64.7377 23.373 65.1555 23.6362 65.5159C23.9113 65.8942 24.2773 66.2009 24.7021 66.4093C25.1269 66.6176 25.5976 66.7211 26.073 66.7109C26.1407 66.7109 26.2069 66.7109 26.2747 66.7109C26.7083 66.7273 27.1425 66.696 27.569 66.6177C28.9826 66.3341 30.4468 66.2058 31.9968 66.0704L32.0662 66.064C33.1964 65.9644 34.3601 65.884 35.4846 65.8059C36.0246 65.7682 36.5639 65.7299 37.1023 65.6912C37.5433 65.6585 37.9851 65.6259 38.4244 65.5852C40.0182 65.4485 41.6206 65.4362 43.2164 65.5486C45.3396 65.6816 47.3085 65.8282 49.2422 65.9955L50.0401 66.0632C51.6039 66.1946 53.0804 66.3181 54.507 66.6009C54.9576 66.6825 55.4149 66.7241 55.8732 66.7252H55.9729H56.0864C57.7678 66.7252 58.5436 65.6768 58.8017 65.2196C59.0038 64.858 59.1204 64.4569 59.1427 64.0457C59.165 63.6344 59.0926 63.2235 58.9307 62.8432ZM38.6596 59.6104C39.1545 58.9022 39.8453 58.3485 40.8343 57.8658C41.0188 57.7758 41.2793 57.7064 41.8142 57.8411C42.0956 57.9234 42.3689 58.03 42.6308 58.1597C43.3519 58.5031 44.0403 59.0169 44.7288 59.7259H44.7026C42.6919 59.5382 40.6694 59.5023 38.6531 59.6184C38.6531 59.6184 38.6563 59.6136 38.6596 59.6104Z" fill="white"/>
<path d="M52.0711 59.5977C51.506 60.5927 50.7212 61.4658 50.2549 62.5062C50.3847 62.7532 50.5995 62.7739 50.8045 62.7994C51.056 62.8312 51.3083 62.8519 51.5607 62.8734C51.7714 62.8918 51.9829 62.8981 52.1927 62.9204C52.4443 62.9467 52.695 62.9834 52.9465 63.016C53.1506 63.0431 53.3548 63.1347 53.6904 62.9635C53.1857 61.8426 52.8297 60.7018 52.2303 59.6662C52.2148 59.6367 52.1584 59.6319 52.0711 59.5977Z" fill="#FF4D6B"/>
<path d="M50.1128 53.998C49.8572 54.0092 49.7437 54.1853 49.6228 54.351C48.6845 55.6415 48.3203 56.2629 48.1831 56.8205C49.1538 57.1817 50.1299 57.5436 51.1115 57.9064C51.1531 57.9128 51.1952 57.916 51.2373 57.9159C51.2675 57.9182 51.298 57.9141 51.3264 57.9038C51.3549 57.8935 51.3807 57.8773 51.4022 57.8563C51.4236 57.8353 51.4401 57.8101 51.4505 57.7823C51.461 57.7545 51.4651 57.7248 51.4627 57.6953C51.4382 57.5754 51.4074 57.4568 51.3704 57.34C51.0062 56.3309 50.639 55.325 50.2688 54.3223C50.2227 54.2116 50.1706 54.1034 50.1128 53.998Z" fill="#FF4D6B"/>
<path d="M39.6208 24.706C39.6608 24.702 39.7147 24.706 39.7359 24.6821C40.1087 24.2962 40.3953 23.8391 40.5779 23.3397C40.0601 22.3599 40.0601 22.3599 39.611 22.3447C39.5096 23.0795 39.4616 23.8204 39.4673 24.5618C39.4642 24.5819 39.4661 24.6025 39.4728 24.6217C39.4795 24.641 39.4908 24.6584 39.5059 24.6726C39.5209 24.6867 39.5392 24.6971 39.5592 24.7029C39.5792 24.7087 39.6003 24.7098 39.6208 24.706Z" fill="#FF4D6B"/>
<path d="M39.1014 30.3558C39.5407 29.9169 39.98 29.4795 40.408 29.0294C40.4702 28.9722 40.509 28.8949 40.5174 28.8119C40.5259 28.7289 40.5032 28.6457 40.4537 28.5777C40.127 28.1515 39.7914 27.7373 39.3798 27.4258C39.0826 27.5238 39.076 27.7381 39.0532 27.9356C39.0303 28.1332 39.0148 28.3451 39.0001 28.5498C38.9854 28.7546 38.9748 28.9593 38.9609 29.1641C38.947 29.3688 38.9144 29.5735 38.9168 29.7783C38.9168 29.9687 38.8017 30.1766 38.9781 30.3479C39.023 30.3502 39.0834 30.3741 39.1014 30.3558Z" fill="#FF4D6B"/>
<path d="M39.1546 20.5512C39.3392 20.544 39.4992 20.4237 39.518 20.2732C39.5425 20.07 39.5605 19.8661 39.5817 19.655C39.5629 19.416 39.5531 19.1674 39.5197 18.9236C39.5039 18.8444 39.457 18.7744 39.389 18.7285C39.2818 18.663 39.16 18.6236 39.0339 18.6138C38.9078 18.6039 38.7812 18.6239 38.6647 18.6719C38.5013 18.734 38.4629 18.9189 38.4572 19.0893C38.4458 19.4184 38.4254 19.7474 38.4221 20.0764C38.4221 20.3401 38.5961 20.5066 38.9023 20.548C38.9862 20.5562 39.0706 20.5573 39.1546 20.5512Z" fill="#FF4D6B"/>
<path d="M38.6236 34.7901C39.1953 34.2524 39.8584 33.8182 40.3843 33.208C40.0266 32.7467 39.5366 32.495 39.1112 32.1723C38.8727 31.9899 38.6334 32.103 38.5755 32.4193C38.4489 33.1036 38.3305 33.7903 38.2129 34.4762C38.1868 34.6356 38.1672 34.7949 38.3076 34.9463C38.4097 34.8969 38.542 34.8682 38.6236 34.7901Z" fill="#FF4D6B"/>
<path d="M37.7647 38.506C38.1576 38.6623 38.5868 38.711 39.006 38.647C39.0465 38.6381 39.0845 38.6203 39.1169 38.5949C39.1493 38.5695 39.1753 38.5372 39.193 38.5005C39.3175 38.1034 39.3273 37.6806 39.2215 37.2784C39.208 37.2398 39.1855 37.2048 39.1557 37.1762C39.126 37.1476 39.0898 37.1261 39.0501 37.1135C38.5886 37.0321 38.1143 37.0522 37.6618 37.1725C37.6316 37.5532 37.5899 37.8791 37.5891 38.2041C37.5916 38.3085 37.6773 38.4758 37.7647 38.506Z" fill="#FF4D6B"/>
<path d="M42.1508 32.8879C42.0259 32.9835 41.8789 33.0759 41.9058 33.3213C42.4709 33.8726 43.1234 34.3904 43.7653 34.9193C43.8192 34.964 43.9229 34.9528 44.0184 34.9695C44.0307 34.8484 44.0707 34.7242 44.0511 34.6095C43.9226 33.8803 43.7865 33.1529 43.6428 32.4275C43.5562 31.9981 43.4215 31.9535 43.0548 32.2179C42.7518 32.4378 42.4481 32.6601 42.1508 32.8879Z" fill="#FF4D6B"/>
<path d="M43.3251 20.561C43.4828 20.5371 43.6306 20.4511 43.8225 20.3778C43.8225 20.0727 43.8282 19.7875 43.8225 19.5015C43.8269 19.2963 43.8071 19.0913 43.7637 18.8905C43.7408 18.8366 43.706 18.7882 43.6618 18.7488C43.6177 18.7095 43.5652 18.68 43.5081 18.6626C43.3445 18.6297 43.1761 18.627 43.0116 18.6547C42.8352 18.6786 42.6849 18.7869 42.6735 18.9662C42.6457 19.3334 42.6375 19.7039 42.6449 20.0727C42.6506 20.4718 42.8678 20.6311 43.3251 20.561Z" fill="#FF4D6B"/>
<path d="M41.6321 28.7252C42.4226 29.8142 42.6357 30.0229 43.2547 30.3392C43.3715 29.2892 43.3045 28.5236 42.9836 27.3916C42.3793 27.6824 42.0804 28.2352 41.6321 28.7252Z" fill="#FF4D6B"/>
<path d="M36.8647 38.2531C36.8882 37.9676 36.8902 37.6809 36.8704 37.3951C36.8614 37.3059 36.73 37.1864 36.6312 37.1561C36.4674 37.1177 36.2983 37.1056 36.1306 37.1203C36.0249 37.1174 35.9217 37.1521 35.8403 37.2179C35.7589 37.2837 35.7047 37.3761 35.688 37.478C35.6773 37.5576 35.67 37.6413 35.6692 37.6484C35.6692 37.846 35.6643 37.9671 35.6692 38.0938C35.6831 38.3925 35.8284 38.5375 36.1346 38.5534C36.2612 38.5601 36.388 38.5587 36.5144 38.5494C36.6973 38.5367 36.8565 38.41 36.8647 38.2531Z" fill="#FF4D6B"/>
<path d="M42.541 24.7736C42.5794 24.8135 42.6815 24.7959 42.7541 24.8055C42.8195 23.585 42.7656 23.0999 42.4593 22.2363C42.042 22.5048 41.8395 22.9087 41.6035 23.3022C41.8186 23.8457 42.1367 24.3449 42.541 24.7736Z" fill="#FF4D6B"/>
<path d="M40.6481 20.5709C41.0213 20.606 41.3953 20.6546 41.8012 20.5287C42.0633 20.0077 41.9645 19.4397 41.922 18.8805C41.9123 18.841 41.8933 18.8042 41.8667 18.773C41.8401 18.7418 41.8065 18.717 41.7685 18.7004C41.3767 18.5511 40.944 18.5381 40.5436 18.6638C40.4884 18.6858 40.4394 18.7204 40.4006 18.7646C40.3619 18.8088 40.3344 18.8613 40.3206 18.9179C40.2994 19.364 40.3092 19.8109 40.3206 20.2579C40.3223 20.4084 40.4872 20.5558 40.6481 20.5709Z" fill="#FF4D6B"/>
<path d="M40.7167 17.6583C41.0433 17.7084 41.3831 17.808 41.7138 17.5188C41.5015 16.4171 41.5774 15.2516 41.1724 14.1475C40.9274 14.3068 40.9021 14.5689 40.8686 14.7935C40.7404 15.6483 40.6473 16.5079 40.5419 17.3667C40.5318 17.407 40.535 17.4493 40.5509 17.4878C40.5983 17.5531 40.6538 17.6487 40.7167 17.6583Z" fill="#FF4D6B"/>
<path d="M35.8487 45.4542C36.845 44.7555 37.7653 43.9645 38.8163 43.1256C38.4856 42.4883 38.181 41.9506 37.8633 41.4184C37.6722 41.0997 37.455 40.7922 37.246 40.4815C37.2283 40.4451 37.1998 40.4146 37.1643 40.3939C37.0957 40.3585 37.0178 40.3438 36.9405 40.3517C36.9029 40.3648 36.8687 40.3859 36.8405 40.4134C36.8122 40.441 36.7906 40.4743 36.7772 40.511C36.4187 42.082 35.9606 43.6267 35.4902 45.169C35.4584 45.2749 35.5082 45.4032 35.5196 45.5211C35.6266 45.4988 35.7646 45.5131 35.8487 45.4542Z" fill="#FF4D6B"/>
<path d="M47.9282 57.4717C47.8897 57.4669 47.8506 57.4709 47.8139 57.4834C47.7772 57.4958 47.744 57.5163 47.7167 57.5434C47.6934 57.574 47.677 57.6093 47.6688 57.6467C47.6607 57.6841 47.6608 57.7227 47.6694 57.76C48.1242 59.2203 48.7718 60.6025 49.4815 61.9591C49.4986 61.9902 49.5411 62.0093 49.5901 62.0484C49.6832 61.979 49.8171 61.9257 49.8702 61.8301C50.4263 60.8247 51.2462 59.9612 51.6472 58.7774C50.3569 58.3782 49.1711 57.8493 47.9282 57.4717Z" fill="#FF4D6B"/>
<path d="M34.5749 57.5555C34.5031 57.4225 34.3528 57.4288 34.2426 57.4679C33.1352 57.8614 32.0306 58.2621 30.9287 58.67C30.8234 58.709 30.7352 58.7927 30.6021 58.8779C31.0414 59.9821 31.827 60.8631 32.3872 61.8677C32.4631 62.0055 32.6028 62.1067 32.7416 62.2581C32.8633 62.0884 32.9866 61.9665 33.0503 61.8223C33.666 60.5126 34.1119 59.1408 34.6019 57.7849C34.622 57.7078 34.6124 57.6262 34.5749 57.5555Z" fill="#FF4D6B"/>
<path d="M31.2676 57.8512C32.1381 57.5325 33.0102 57.2139 33.875 56.8809C33.9714 56.8434 34.0269 56.7064 34.1323 56.5781C33.4235 55.7464 33.029 54.7188 32.2434 53.9492C32.1773 53.9994 32.1275 54.0185 32.1136 54.0512C31.6048 55.2708 31.2324 56.5383 30.6829 57.7755C30.9499 57.9667 31.1108 57.9133 31.2676 57.8512Z" fill="#FF4D6B"/>
<path d="M32.6231 49.9263C33.0886 49.9589 33.5557 49.9828 34.022 49.9868C34.9978 49.994 35.9737 49.9868 36.9496 49.9868C39.2835 49.9868 41.6169 49.9887 43.9497 49.9924C45.4351 49.9924 46.9206 50.0019 48.406 49.9924C48.9131 49.9924 49.4211 49.9422 49.9274 49.8928C50.0551 49.8772 50.1725 49.8162 50.2571 49.7216C50.3417 49.627 50.3877 49.5053 50.3863 49.3798C50.3953 48.8492 50.5113 48.3099 50.3047 47.7865C50.1748 47.7347 50.0597 47.6598 49.9413 47.6487C49.5624 47.6152 49.181 47.5881 48.798 47.5897C48.0344 47.5937 47.2701 47.6558 46.5114 47.6279C44.7304 47.5618 42.951 47.4726 41.1683 47.5594C40.9992 47.5682 40.8294 47.5515 40.6595 47.5507C39.811 47.5459 38.9634 47.5347 38.1149 47.5403C36.6727 47.5499 35.2306 47.5993 33.7868 47.5794C31.7069 47.5515 31.684 47.479 31.9461 49.6506C32.1209 49.8561 32.3708 49.9095 32.6231 49.9263Z" fill="#FF4D6B"/>
<path d="M30.2958 59.7882C30.2745 59.7513 30.2403 59.723 30.1995 59.7085C30.1117 59.6979 30.0233 59.6928 29.9349 59.6934C29.5127 60.6693 29.0856 61.6531 28.6634 62.641C28.6279 62.7141 28.6152 62.7958 28.6267 62.876C28.643 62.9405 28.7247 63.0433 28.7688 63.0393C29.7324 62.9458 30.6946 62.8428 31.6555 62.7302C31.7666 62.7167 31.867 62.6187 31.9952 62.5462C31.8762 62.2776 31.7432 62.0152 31.5967 61.7599C31.1737 61.1003 30.7319 60.4438 30.2958 59.7882Z" fill="#FF4D6B"/>
<path d="M36.797 56.0077C37.437 55.5312 38.1354 55.1343 38.8761 54.8263C40.3174 54.2463 41.7653 54.263 43.2115 54.7848C44.0519 55.0884 44.8007 55.5584 45.5136 56.0842C45.7398 56.2515 45.9219 56.4889 46.2241 56.543C46.2469 56.5056 46.2943 56.4634 46.2845 56.4355C45.8615 55.3568 45.3462 54.3196 44.7966 53.2043C44.1711 53.1979 43.6648 53.19 43.1585 53.1884C41.8442 53.1852 40.5308 53.1836 39.2182 53.1836C38.7517 53.1836 38.2854 53.186 37.8194 53.1908C37.5932 53.1908 37.3931 53.2704 37.2959 53.4768C36.8506 54.412 36.415 55.3513 35.9893 56.2945C35.9673 56.3423 36.0424 56.4315 36.0873 56.5335C36.3298 56.3558 36.561 56.1782 36.797 56.0077Z" fill="#FF4D6B"/>
<path d="M47.7177 52.387C47.9245 52.4168 48.1335 52.4296 48.3424 52.4252C49.9716 52.3766 50.0034 52.5391 49.5902 50.8319C49.4387 50.7881 49.283 50.759 49.1256 50.7451C48.6225 50.7451 48.1195 50.7563 47.6173 50.7794C47.5765 50.7878 47.5387 50.8061 47.5072 50.8327C47.4758 50.8594 47.4518 50.8934 47.4376 50.9315C47.3755 51.3769 47.3559 51.8246 47.5233 52.2547C47.5438 52.2893 47.5719 52.3191 47.6054 52.342C47.639 52.3648 47.6774 52.3802 47.7177 52.387Z" fill="#FF4D6B"/>
<path d="M47.3852 56.365C48.1822 55.4529 48.789 54.4149 49.4488 53.4119C49.4659 53.3856 49.4398 53.3322 49.4341 53.2916C48.744 53.1602 47.564 53.1219 46.0508 53.1912C45.9396 53.2035 45.8323 53.2382 45.7356 53.2932C45.9553 54.4244 46.5457 55.378 47.052 56.3666C47.0887 56.4431 47.3198 56.4407 47.3852 56.365Z" fill="#FF4D6B"/>
<path d="M45.7356 38.5557C45.899 38.5639 46.0627 38.5607 46.2256 38.5461C46.4485 38.5254 46.5808 38.3724 46.5931 38.1414C46.598 38.0617 46.5931 37.9821 46.5931 37.6778C46.598 37.7781 46.5931 37.657 46.5857 37.5367C46.5795 37.4359 46.5367 37.3405 46.4651 37.2675C46.3935 37.1946 46.2976 37.1488 46.1946 37.1384C46.0314 37.127 45.8677 37.127 45.7046 37.1384C45.5315 37.148 45.3779 37.2834 45.3779 37.434C45.3738 37.7144 45.3779 37.9916 45.3951 38.2752C45.3975 38.4306 45.5462 38.5493 45.7356 38.5557Z" fill="#FF4D6B"/>
<path d="M43.4973 43.1402C44.4707 44.0444 45.7839 45.0848 46.5507 45.5524C46.5989 45.5819 46.6887 45.5469 46.8153 45.5381C46.7516 45.1246 46.6127 44.7415 46.5058 44.3495C46.1914 43.1976 45.8843 42.0392 45.5764 40.8897C45.5234 40.6921 45.5209 40.4221 45.3102 40.3607C44.9991 40.2699 44.9101 40.587 44.7925 40.7766C44.3768 41.445 43.9808 42.1245 43.5871 42.8048C43.5308 42.9052 43.5243 43.0343 43.4973 43.1402Z" fill="#FF4D6B"/>
<path d="M44.0763 52.4165C44.8782 52.4165 45.6804 52.4107 46.4829 52.399C46.6291 52.399 46.7753 52.2094 46.7867 52.0501C46.8178 51.6078 46.7379 51.1649 46.554 50.7595C45.7112 50.6902 44.839 50.7309 43.8273 50.7508C43.7905 51.0694 43.7562 51.267 43.7456 51.4677C43.735 51.6685 43.7456 51.8788 43.757 52.0843C43.766 52.2317 43.9391 52.4165 44.0763 52.4165Z" fill="#FF4D6B"/>
<path d="M34.6247 52.3431C34.8697 52.1128 34.8175 51.8125 34.833 51.5329C34.846 51.2995 34.9489 51.0477 34.6574 50.7641C34.0027 50.7206 33.3457 50.7206 32.691 50.7641C32.1577 52.5032 32.339 52.3574 33.7648 52.4044C34.058 52.4172 34.3487 52.4721 34.6247 52.3431Z" fill="#FF4D6B"/>
<path d="M39.6877 52.4415C40.408 52.459 41.1291 52.475 41.8502 52.4734C43.0939 52.4694 43.0277 52.4734 43.0294 51.3063C43.0294 51.2266 43.0171 51.1414 43.0106 51.0593C43.0038 50.978 42.9692 50.9011 42.9123 50.8412C42.8555 50.7813 42.7797 50.7417 42.697 50.7287C41.6003 50.6547 40.5035 50.5957 39.3325 50.751C39.1757 51.2617 39.228 51.672 39.2574 52.0806C39.2729 52.2949 39.4313 52.4359 39.6877 52.4415Z" fill="#FF4D6B"/>
<path d="M35.1121 56.4799C35.6438 55.4746 36.1868 54.5082 36.4914 53.4359C36.5061 53.3826 36.4285 53.3053 36.3698 53.197C35.3457 53.189 34.2972 53.1802 33.2478 53.1739C33.1637 53.1734 33.0797 53.1782 32.9963 53.1882C32.9546 53.1949 32.9148 53.2101 32.8795 53.2328C32.8507 53.2562 32.8249 53.283 32.8027 53.3125C33.1294 53.9896 34.258 55.7151 34.7626 56.2871C34.8378 56.3572 34.9635 56.3931 35.1121 56.4799Z" fill="#FF4D6B"/>
<path d="M43.0532 37.1065C42.8899 37.59 42.8613 38.0625 43.0801 38.5365C43.1185 38.6201 43.2884 38.6958 43.3921 38.6902C43.7677 38.6687 44.1417 38.6105 44.5247 38.5651C44.702 38.1182 44.6652 37.7103 44.5525 37.3112C44.5288 37.2244 44.3704 37.1224 44.2683 37.116C43.891 37.0929 43.5113 37.1065 43.0532 37.1065Z" fill="#FF4D6B"/>
<path d="M38.141 52.4123C38.183 52.4146 38.2249 52.4055 38.2619 52.3861C38.328 52.3391 38.4309 52.2841 38.4375 52.2267C38.4709 51.9001 38.4873 51.5719 38.4938 51.2437C38.4938 51.0843 38.4848 50.9123 38.2145 50.7442C37.6494 50.7306 36.9773 50.7083 36.3044 50.7243C36.0986 50.729 35.8961 50.7681 35.6895 50.7912C35.4037 51.2787 35.4127 51.7599 35.5393 52.4012C36.4588 52.441 37.2983 52.445 38.141 52.4123Z" fill="#FF4D6B"/>
<path d="M35.8047 46.3714C35.7381 46.4214 35.6775 46.4786 35.6242 46.5419C35.6054 46.5666 35.6168 46.6215 35.6291 46.6598C35.6413 46.698 35.6691 46.7355 35.6952 46.7395C36.4434 46.8384 37.203 46.8218 37.9459 46.6901C38.217 45.9675 38.484 45.2776 38.7306 44.5814C38.7633 44.4889 38.7176 44.3702 38.698 44.2627C38.4775 44.2627 38.3264 44.4029 38.168 44.5264C37.3802 45.1403 36.5924 45.7553 35.8047 46.3714Z" fill="#FF4D6B"/>
<path d="M40.2268 37.1057C40.1866 37.1178 40.1502 37.1396 40.1208 37.1689C40.0914 37.1983 40.07 37.2343 40.0586 37.2738C40.0047 37.6833 39.945 38.0991 40.0586 38.5046C40.0855 38.5986 40.217 38.6878 40.3215 38.7324C40.4418 38.7735 40.569 38.7919 40.6963 38.7866C42.3035 38.8121 42.3582 38.9348 42.1793 37.1288C41.5324 37.0371 40.8758 37.0294 40.2268 37.1057Z" fill="#FF4D6B"/>
<path d="M37.7964 39.5906C37.7915 39.7029 37.7555 39.8001 37.789 39.8599C38.2387 40.6565 38.6949 41.4489 39.1577 42.237C39.2157 42.3366 39.2998 42.4282 39.4982 42.3597C39.7963 41.7543 39.8975 41.0604 40.0633 40.3809C40.2373 39.6679 40.0715 39.5659 39.419 39.5603C38.8759 39.5516 38.3304 39.4544 37.7964 39.5906Z" fill="#FF4D6B"/>
<path d="M42.1091 39.7014C42.1328 40.6271 42.3786 41.4811 42.711 42.3144C42.729 42.3598 42.8482 42.3669 42.9788 42.4123C43.4876 41.5838 43.9416 40.7099 44.4488 39.8687C44.4847 39.8097 44.4602 39.7157 44.4684 39.5293C43.6942 39.5691 42.9168 39.46 42.1091 39.7014Z" fill="#FF4D6B"/>
<path d="M44.812 46.7984C45.3191 46.792 45.8254 46.7984 46.3326 46.7984C46.4542 46.7984 46.5931 46.7856 46.6102 46.6391C46.6064 46.6012 46.5946 46.5645 46.5755 46.5313C46.5564 46.4981 46.5304 46.4691 46.4992 46.4463C45.6825 45.7967 44.8605 45.1512 44.0329 44.5096C43.8696 44.3838 43.6908 44.2786 43.2588 43.9902C43.6238 44.9805 43.8786 45.6711 44.1326 46.3618C44.2469 46.6741 44.478 46.8024 44.812 46.7984Z" fill="#FF4D6B"/>
<path d="M38.7943 44.1689L38.7314 44.2383C38.8139 44.2574 38.8376 44.2359 38.7943 44.1689Z" fill="#FF4D6B"/>
<path d="M38.511 36.2271C39.3693 36.3148 42.479 36.3371 43.668 36.2638C43.6786 36.224 43.7121 36.1706 43.6974 36.1467C43.3438 35.5811 42.2764 34.6331 41.0842 33.8213C40.1704 34.4586 39.3513 35.2218 38.5461 36.0009C38.5036 36.0447 38.5216 36.1507 38.511 36.2271Z" fill="#FF4D6B"/>
<path d="M41.2117 28.0634C41.6265 27.6141 42.0512 27.1616 42.4677 26.7019C42.6579 26.4916 42.6669 26.2876 42.4938 26.0295C42.0798 25.4137 41.6576 24.8043 41.179 24.1064C40.5374 24.7975 39.9983 25.5731 39.5776 26.4103C40.2489 27.332 40.6727 27.7622 41.2117 28.0634Z" fill="#FF4D6B"/>
<path d="M41.7784 21.7794C41.8184 21.7188 41.8029 21.624 41.816 21.5149C41.7098 21.487 41.5979 21.4289 41.4893 21.4352C41.1227 21.448 40.7462 21.3556 40.3877 21.5077C40.6482 22.1538 40.6482 22.1538 41.157 22.5434C41.4485 22.3522 41.5979 22.0518 41.7784 21.7794Z" fill="#FF4D6B"/>
<path d="M39.3849 31.5525C39.6544 31.7461 39.9451 31.9827 40.2636 32.1763C40.5821 32.3699 40.7985 32.6925 41.2019 32.7459L42.9593 31.48C42.4587 30.763 41.8266 30.2189 41.304 29.5872C41.2615 29.5354 41.1676 29.5243 41.0451 29.4717C40.5551 29.9991 40.0448 30.5408 39.5401 31.0841C39.4307 31.202 39.3147 31.3215 39.3849 31.5525Z" fill="#FF4D6B"/>
<path d="M56.1329 63.5322C55.9309 63.4764 55.7255 63.4332 55.518 63.4031C55.2289 63.3577 54.9185 63.4079 54.5984 63.1681C54.173 62.2544 53.6944 61.2864 53.269 60.3002C52.7439 59.0798 52.289 57.8306 51.7566 56.6141C50.9849 54.8464 50.5676 52.9966 50.303 51.1054C50.2711 50.8807 50.3446 50.6736 50.557 50.5868C50.8697 50.4569 50.9987 50.2522 51.0257 49.9279C51.0912 49.1862 51.107 48.4411 51.0731 47.6973C51.051 47.2536 50.8346 46.8274 50.2132 46.8306C49.7044 46.8306 49.1948 46.8202 48.6861 46.8107C48.4337 46.8059 48.174 46.8314 47.9552 46.6641C47.15 44.7163 46.1692 41.1506 46.0198 39.625C46.2762 39.3605 46.6559 39.4657 46.9646 39.3454C47.2325 39.2418 47.3835 39.0713 47.4146 38.8044C47.4837 38.2697 47.4777 37.7283 47.3966 37.1952C47.3759 37.0722 47.3259 36.9556 47.2506 36.8549C47.1752 36.7542 47.0767 36.6721 46.963 36.6153C46.6663 36.4508 46.33 36.3664 45.9888 36.3707C45.698 36.3707 45.3902 36.4265 45.1003 36.2034C45.0341 35.9987 44.9369 35.7677 44.8847 35.5279C44.5164 33.8693 44.1889 32.2051 44.0338 30.509C43.9202 29.2726 43.7577 28.0394 43.6401 26.8047C43.5021 25.3627 43.3862 23.9184 43.2694 22.4749C43.2486 22.228 43.2543 21.9797 43.2865 21.734C43.3007 21.6771 43.3264 21.6235 43.362 21.5763C43.3976 21.5291 43.4424 21.4893 43.494 21.4592C43.6108 21.4096 43.7373 21.3851 43.8647 21.3875C44.362 21.3485 44.5931 21.1095 44.5752 20.5526C44.5556 19.932 44.5139 19.3122 44.4682 18.6933C44.4569 18.4871 44.4179 18.2833 44.3522 18.087C44.3179 17.9883 44.2558 17.9009 44.1731 17.8349C44.0904 17.7689 43.9903 17.7268 43.8843 17.7134C43.4695 17.6536 43.0407 17.7931 42.6675 17.6744C42.4079 17.4131 42.4021 17.1167 42.3605 16.8363C42.2519 16.0986 42.1506 15.3601 42.0461 14.6224C41.9701 14.0871 41.8395 13.5645 41.5724 13.0889C41.4638 12.8953 41.2458 12.834 41.0204 12.8618C40.8457 12.8826 40.6684 12.9535 40.6121 13.1136C40.4486 13.5379 40.3179 13.9736 40.2209 14.4169C40.047 15.3521 39.9172 16.2962 39.7734 17.237C39.7481 17.4027 39.7269 17.5628 39.5186 17.6879C39.2287 17.6879 38.8915 17.6831 38.5542 17.6879C38.0961 17.6959 37.8568 17.8894 37.8062 18.3611C37.74 18.9785 37.7057 19.599 37.6763 20.2188C37.6379 21.025 37.7123 21.2967 38.7102 21.4337C38.7804 21.4433 38.8425 21.5134 38.9625 21.5978C38.9871 21.7854 38.9991 21.9743 38.9984 22.1634C38.9592 22.8238 38.9168 23.4851 38.8523 24.1439C38.6538 26.1626 38.444 28.1797 38.2406 30.1983C38.0587 32.0524 37.7391 33.8911 37.2844 35.6999C37.2354 35.8935 37.2345 36.1158 37.05 36.2448C37.0126 36.2709 36.9713 36.2911 36.9275 36.3046C36.7642 36.3253 36.5919 36.3412 36.4236 36.354C36.2118 36.3574 36.0002 36.3718 35.7899 36.397C35.2183 36.5006 34.8916 36.8383 34.7961 37.3832C34.7193 37.8334 34.7193 38.2929 34.7961 38.7431C34.8459 39.0538 34.997 39.2713 35.3375 39.3525C35.616 39.4195 35.9353 39.3772 36.1852 39.633C36.2668 39.809 36.2146 40.0153 36.1737 40.2129C35.7246 42.4061 34.9831 44.5148 34.2955 46.7366C33.9223 46.7605 33.6716 46.7836 33.4201 46.7908C32.9538 46.8043 32.4867 46.7979 32.0204 46.8187C31.5214 46.8418 31.1964 47.1174 31.1719 47.5675C31.127 48.3944 31.1009 49.2229 31.2258 50.0466C31.2345 50.1497 31.2722 50.2484 31.3347 50.3319C31.3973 50.4154 31.4822 50.4804 31.5802 50.5198C31.8554 50.633 31.9387 50.8552 31.9069 51.1229C31.7387 52.6078 31.4634 54.0705 30.9 55.467C29.8931 57.9676 28.9744 60.5057 27.7454 62.9188C27.6196 63.1657 27.4587 63.3171 27.1803 63.3474C26.9271 63.3736 26.6699 63.3776 26.4216 63.427C26.257 63.4599 26.101 63.5256 25.9635 63.6198C25.8761 63.6983 25.8128 63.799 25.7806 63.9106C25.7422 64.011 25.8835 64.1312 26.0255 64.1281C26.3644 64.1217 26.7123 64.1544 27.039 64.089C28.6224 63.7704 30.2287 63.6334 31.8326 63.4923C33.523 63.3442 35.2167 63.2406 36.9087 63.1163C37.3317 63.0853 37.7547 63.0542 38.1769 63.0152C39.911 62.8654 41.6546 62.851 43.3911 62.9721C45.4228 63.0996 47.453 63.2502 49.4815 63.4238C51.3393 63.5832 53.2036 63.7074 55.0386 64.0707C55.3733 64.1248 55.712 64.1515 56.0512 64.1504C56.2072 64.1504 56.3836 64.1599 56.4824 63.9839C56.551 63.8524 56.3762 63.6031 56.1329 63.5322ZM51.3703 57.3399C51.407 57.457 51.4375 57.5758 51.4618 57.696C51.4642 57.7255 51.4601 57.7552 51.4496 57.783C51.4392 57.8108 51.4227 57.8361 51.4013 57.857C51.3798 57.878 51.354 57.8942 51.3255 57.9045C51.2971 57.9148 51.2667 57.9189 51.2364 57.9167C51.1943 57.9168 51.1522 57.9136 51.1106 57.9071C50.1307 57.5465 49.1545 57.1845 48.1822 56.8213C48.3194 56.2636 48.6836 55.6414 49.6219 54.3517C49.742 54.186 49.8555 54.0099 50.1119 53.9988C50.1703 54.1041 50.2229 54.2123 50.2695 54.323C50.6402 55.3273 51.0072 56.3329 51.3703 57.3399ZM32.8795 53.2252C32.9148 53.2025 32.9546 53.1873 32.9963 53.1806C33.0797 53.1707 33.1637 53.1659 33.2478 53.1663C34.2971 53.1727 35.3457 53.1814 36.3697 53.1894C36.4285 53.3017 36.5061 53.379 36.4914 53.4284C36.1868 54.5007 35.6438 55.467 35.1121 56.4723C34.9635 56.3887 34.8377 56.3529 34.7659 56.2716C34.2579 55.6996 33.1277 53.9741 32.806 53.2969C32.8276 53.2704 32.8523 53.2464 32.8795 53.2252ZM32.6908 50.7636C33.3456 50.7201 34.0026 50.7201 34.6573 50.7636C34.9488 51.0472 34.8459 51.299 34.8328 51.5324C34.8173 51.812 34.8663 52.1123 34.6246 52.3426C34.3486 52.4716 34.053 52.4143 33.7647 52.4039C32.343 52.3537 32.1576 52.5027 32.6908 50.7636ZM35.6878 50.7883C35.8912 50.7652 36.0962 50.7262 36.3028 50.7214C36.9757 50.7055 37.6477 50.7278 38.2129 50.7413C38.4832 50.9094 38.4946 51.0791 38.4921 51.2408C38.4856 51.569 38.4693 51.8972 38.4358 52.2239C38.4293 52.2836 38.3264 52.3386 38.2602 52.3832C38.2232 52.4027 38.1814 52.4118 38.1394 52.4095C37.2982 52.4421 36.4587 52.4382 35.5376 52.3959C35.411 51.757 35.402 51.2759 35.6911 50.7883H35.6878ZM36.7968 56.0079C36.5608 56.1784 36.3297 56.356 36.088 56.5361C36.0431 56.4317 35.968 56.3425 35.99 56.2971C36.4179 55.3549 36.8534 54.4157 37.2966 53.4794C37.3938 53.2762 37.5939 53.195 37.8201 53.1934C38.2866 53.1886 38.7529 53.1862 39.2189 53.1862C40.5321 53.1862 41.8455 53.1878 43.1592 53.191C43.6655 53.191 44.1718 53.2005 44.7973 53.2069C45.3469 54.3222 45.8589 55.3578 46.2852 56.4381C46.295 56.4628 46.2476 56.5082 46.2248 56.5456C45.9218 56.4915 45.7405 56.2541 45.5143 56.0868C44.8014 55.561 44.0525 55.091 43.2122 54.7875C41.766 54.2657 40.3181 54.2489 38.8768 54.8289C38.1359 55.1361 37.4373 55.5322 36.7968 56.0079ZM39.3324 50.7501C40.5035 50.5907 41.6002 50.6537 42.6969 50.7278C42.7796 50.7407 42.8554 50.7803 42.9123 50.8402C42.9691 50.9002 43.0037 50.977 43.0105 51.0584C43.0171 51.138 43.0293 51.2233 43.0293 51.3053C43.0293 52.4732 43.0938 52.4684 41.8501 52.4724C41.129 52.4724 40.4079 52.4581 39.6877 52.4405C39.4313 52.435 39.2728 52.294 39.2573 52.0797C39.2279 51.6718 39.1757 51.2615 39.3324 50.7509V50.7501ZM43.7471 51.4671C43.7561 51.2663 43.7904 51.0687 43.8288 50.7501C44.8373 50.7302 45.7127 50.6895 46.5555 50.7588C46.7395 51.1642 46.8194 51.6071 46.7882 52.0494C46.7768 52.2087 46.6306 52.3967 46.4844 52.3983C45.6825 52.4095 44.8803 52.4153 44.0779 52.4158C43.939 52.4158 43.7675 52.2294 43.7602 52.0837C43.7488 51.8805 43.7373 51.6742 43.7471 51.4694V51.4671ZM45.7356 53.2929C45.8333 53.2379 45.9418 53.2034 46.0541 53.1918C47.5673 53.1225 48.7489 53.1607 49.4374 53.2922C49.4431 53.3328 49.4692 53.3862 49.4521 53.4124C48.7922 54.4154 48.1855 55.4534 47.3884 56.3656C47.3231 56.4453 47.092 56.4453 47.052 56.3656C46.5424 55.377 45.952 54.4234 45.7356 53.2929ZM47.4407 50.9317C47.4549 50.8935 47.4789 50.8595 47.5103 50.8329C47.5418 50.8063 47.5796 50.7879 47.6204 50.7795C48.1226 50.7564 48.6256 50.7429 49.1287 50.7453C49.2861 50.7592 49.4418 50.7883 49.5933 50.8321C50.0065 52.5401 49.9747 52.3776 48.3455 52.4254C48.1366 52.4298 47.9276 52.417 47.7208 52.3872C47.6804 52.3803 47.642 52.3648 47.6084 52.3418C47.5748 52.3188 47.5468 52.2889 47.5265 52.2541C47.3591 51.8239 47.3754 51.3762 47.4374 50.9309L47.4407 50.9317ZM45.7021 37.1371C45.8652 37.1257 46.029 37.1257 46.1921 37.1371C46.2951 37.1475 46.391 37.1932 46.4626 37.2662C46.5343 37.3391 46.577 37.4346 46.5833 37.5354C46.5939 37.6557 46.5955 37.7744 46.5906 37.6764C46.5906 37.9783 46.5947 38.0596 46.5906 38.1401C46.5784 38.3711 46.4461 38.524 46.2231 38.5447C46.0602 38.5593 45.8965 38.5625 45.7332 38.5543C45.547 38.5455 45.3983 38.4268 45.3894 38.2707C45.373 37.9911 45.3681 37.7131 45.3722 37.4294C45.373 37.2805 45.529 37.1466 45.7021 37.1371ZM45.3101 40.3603C45.5208 40.4216 45.5233 40.6917 45.5764 40.8893C45.8842 42.0428 46.1913 43.1995 46.5057 44.3491C46.6127 44.7402 46.7507 45.1242 46.8152 45.5377C46.6886 45.5464 46.5988 45.5815 46.5506 45.552C45.7805 45.0844 44.4706 44.044 43.4972 43.1398C43.5242 43.0338 43.5291 42.9048 43.5871 42.8044C43.9807 42.124 44.3767 41.4445 44.7924 40.7761C44.91 40.5865 45.0006 40.2695 45.3101 40.3603ZM41.1788 24.1088C41.6574 24.8067 42.0771 25.4161 42.4936 26.0319C42.6667 26.29 42.6569 26.494 42.4675 26.7043C42.051 27.1639 41.6263 27.6164 41.2115 28.0657C40.6701 27.7646 40.2487 27.3344 39.5783 26.4127C39.9985 25.5747 40.5373 24.7983 41.1788 24.1064V24.1088ZM40.3867 21.507C40.7452 21.354 41.1217 21.4472 41.4883 21.4345C41.5978 21.4305 41.7096 21.4887 41.815 21.5142C41.8019 21.6233 41.815 21.7181 41.7774 21.7786C41.5969 22.0511 41.4508 22.3514 41.1552 22.537C40.6472 22.1507 40.6472 22.1507 40.3867 21.507ZM41.3038 29.5889C41.8264 30.2206 42.4585 30.764 42.9591 31.4817L41.2017 32.7476C40.7983 32.6942 40.5729 32.3668 40.2634 32.178C39.9539 31.9892 39.6542 31.7478 39.3847 31.5542C39.3145 31.3232 39.4304 31.2037 39.5399 31.0858C40.0445 30.5425 40.5517 30.0008 41.0449 29.4734C41.1674 29.5236 41.2613 29.5347 41.3038 29.5865V29.5889ZM43.694 36.1469C43.7087 36.1708 43.6753 36.2265 43.6646 36.264C42.4756 36.3373 39.3659 36.3149 38.5077 36.2273C38.5183 36.1477 38.5003 36.0449 38.5452 36.0011C39.3504 35.222 40.1695 34.458 41.0833 33.8215C42.2764 34.6308 43.3437 35.5812 43.694 36.1469ZM44.4486 39.8688C43.9382 40.71 43.4842 41.5839 42.9787 42.4124C42.848 42.367 42.7288 42.3599 42.7108 42.3144C42.3785 41.4812 42.1327 40.6272 42.109 39.7015C42.9166 39.4625 43.6924 39.5692 44.4715 39.5294C44.4633 39.7158 44.4878 39.8098 44.4519 39.8688H44.4486ZM40.6921 38.7861C40.5648 38.7914 40.4376 38.773 40.3173 38.732C40.2128 38.6873 40.0813 38.5981 40.0543 38.5041C39.94 38.0986 39.9996 37.6828 40.0543 37.2733C40.0658 37.2338 40.0872 37.1978 40.1166 37.1684C40.146 37.1391 40.1824 37.1173 40.2226 37.1052C40.8719 37.0288 41.5287 37.0366 42.1759 37.1283C42.3589 38.9343 42.3058 38.8116 40.697 38.7861H40.6921ZM40.0584 40.3794C39.8951 41.0589 39.7914 41.7528 39.4933 42.3583C39.2949 42.4268 39.2108 42.3352 39.1528 42.2356C38.696 41.4443 38.2414 40.6511 37.789 39.856C37.7555 39.7963 37.789 39.6967 37.7964 39.5868C38.3304 39.4545 38.8776 39.5517 39.419 39.5565C40.0715 39.5621 40.2373 39.664 40.0633 40.377L40.0584 40.3794ZM39.7318 46.3805C39.7487 46.2169 39.7815 46.0553 39.8298 45.8977C40.4308 44.1451 40.8457 42.3439 41.4957 40.5706C41.628 41.086 41.7513 41.6062 41.895 42.1169C42.0387 42.6275 42.1939 43.1445 42.3621 43.6528C42.5303 44.1611 42.7386 44.6574 42.897 45.1664C43.0489 45.6595 43.3927 46.1152 43.2629 46.7191C42.073 46.7717 40.911 46.9087 39.7612 46.6713C39.7415 46.5748 39.7319 46.4765 39.7326 46.3781L39.7318 46.3805ZM43.258 43.9906C43.69 44.279 43.8696 44.3841 44.0321 44.51C44.858 45.1521 45.6801 45.7976 46.4983 46.4466C46.5296 46.4695 46.5556 46.4984 46.5747 46.5316C46.5938 46.5648 46.6056 46.6015 46.6094 46.6394C46.5922 46.7884 46.4534 46.7987 46.3317 46.7987C45.8246 46.7987 45.3183 46.79 44.8112 46.7987C44.4772 46.7987 44.2461 46.6745 44.1318 46.3622C43.8786 45.6707 43.6238 44.98 43.2588 43.9898L43.258 43.9906ZM44.5515 37.3115C44.6642 37.7099 44.7009 38.1185 44.5237 38.5655C44.1407 38.6109 43.7667 38.669 43.3911 38.6905C43.2874 38.6961 43.1175 38.6204 43.0791 38.5368C42.8603 38.066 42.8872 37.5904 43.0522 37.1068C43.5103 37.1068 43.89 37.0933 44.2673 37.1164C44.3702 37.1211 44.5286 37.2239 44.5523 37.3107L44.5515 37.3115ZM43.6442 32.4281C43.7896 33.1541 43.9257 33.8815 44.0525 34.6101C44.0721 34.7249 44.0321 34.8491 44.0199 34.9702C43.9243 34.9535 43.8206 34.9646 43.7667 34.92C43.1249 34.3911 42.4724 33.8732 41.9073 33.322C41.877 33.0766 42.024 32.9842 42.1523 32.8886C42.4495 32.66 42.7533 32.4385 43.0587 32.2186C43.4237 31.9533 43.5585 31.998 43.645 32.4273L43.6442 32.4281ZM43.2539 30.3401C42.6349 30.0215 42.4217 29.8152 41.6312 28.7261C42.0796 28.2362 42.3785 27.6833 42.9828 27.395C43.3045 28.5238 43.3715 29.2894 43.2547 30.3393L43.2539 30.3401ZM42.67 18.9681C42.6831 18.7889 42.8333 18.6805 43.0081 18.6566C43.1726 18.6289 43.3411 18.6316 43.5046 18.6646C43.5617 18.682 43.6142 18.7114 43.6584 18.7508C43.7025 18.7901 43.7373 18.8385 43.7602 18.8924C43.8037 19.0932 43.8234 19.2982 43.819 19.5034C43.8272 19.7878 43.819 20.073 43.819 20.3797C43.6271 20.453 43.4793 20.5391 43.3217 20.563C42.8643 20.6331 42.6471 20.4769 42.639 20.0762C42.6324 19.705 42.643 19.3346 42.6708 18.9673L42.67 18.9681ZM42.4585 22.2343C42.7647 23.0979 42.8186 23.583 42.7533 24.8035C42.6806 24.7939 42.5785 24.8115 42.5401 24.7716C42.1358 24.3429 41.8178 23.8437 41.6027 23.3002C41.8395 22.9051 42.042 22.5012 42.4593 22.2327L42.4585 22.2343ZM40.5427 17.3645C40.6472 16.5057 40.7403 15.6461 40.8693 14.7913C40.9028 14.5667 40.9249 14.3022 41.1731 14.1452C41.5814 15.2494 41.4998 16.4149 41.7145 17.5166C41.3838 17.8058 41.0441 17.7062 40.7174 17.656C40.6546 17.6465 40.599 17.5509 40.5541 17.4855C40.5374 17.4474 40.5334 17.405 40.5427 17.3645ZM40.3214 18.9179C40.3352 18.8613 40.3626 18.8088 40.4014 18.7646C40.4402 18.7204 40.4892 18.6858 40.5443 18.6638C40.9448 18.5381 41.3774 18.551 41.7693 18.7004C41.8068 18.7168 41.8401 18.7413 41.8666 18.7721C41.893 18.8029 41.912 18.8391 41.922 18.8781C41.9644 19.4357 42.0632 20.0053 41.8011 20.5263C41.3928 20.6522 41.0212 20.606 40.648 20.5685C40.4847 20.5534 40.3214 20.4092 40.3214 20.2555C40.3099 19.8109 40.3001 19.364 40.3214 18.9179ZM40.5778 23.3393C40.3956 23.8395 40.1089 24.2974 39.7359 24.684C39.7146 24.7071 39.6607 24.7039 39.6207 24.7079C39.6002 24.7118 39.5789 24.7109 39.5588 24.7051C39.5387 24.6994 39.5203 24.689 39.5052 24.6749C39.4901 24.6607 39.4786 24.6433 39.4719 24.6239C39.4651 24.6046 39.4632 24.5839 39.4664 24.5637C39.4608 23.8215 39.5091 23.0798 39.6109 22.3443C40.0601 22.3594 40.0601 22.3594 40.5778 23.3393ZM38.9021 20.547C38.5959 20.5056 38.4195 20.3391 38.4219 20.0754C38.4219 19.7464 38.4456 19.4174 38.457 19.0884C38.4627 18.9179 38.5011 18.7331 38.6644 18.671C38.781 18.6229 38.9076 18.603 39.0337 18.6128C39.1598 18.6227 39.2816 18.662 39.3888 18.7275C39.4568 18.7734 39.5037 18.8435 39.5195 18.9227C39.5529 19.1665 39.5627 19.4134 39.5815 19.654C39.5603 19.8651 39.5423 20.0691 39.5178 20.2722C39.499 20.4228 39.339 20.5431 39.1544 20.5502C39.0703 20.5555 38.9859 20.5537 38.9021 20.5447V20.547ZM38.9168 29.7801C38.9168 29.5754 38.9462 29.3706 38.9609 29.1659C38.9756 28.9612 38.9854 28.7564 39.0001 28.5517C39.0148 28.3469 39.0278 28.1414 39.0532 27.9375C39.0785 27.7335 39.0842 27.5256 39.3798 27.4276C39.7881 27.7391 40.1311 28.1534 40.4537 28.5796C40.5032 28.6476 40.5258 28.7307 40.5174 28.8138C40.509 28.8968 40.4701 28.974 40.4079 29.0313C39.9784 29.479 39.5391 29.9187 39.1013 30.3577C39.0834 30.376 39.0197 30.3537 38.978 30.3497C38.8016 30.176 38.9192 29.9681 38.9168 29.7777V29.7801ZM38.2129 34.4803C38.3296 33.7944 38.4489 33.1077 38.5754 32.4234C38.6334 32.1047 38.8727 31.994 39.1111 32.1764C39.5366 32.4998 40.0266 32.7516 40.3843 33.212C39.8584 33.8223 39.1912 34.2564 38.6236 34.7942C38.542 34.8738 38.4097 34.9009 38.3076 34.9495C38.1671 34.7918 38.1867 34.6308 38.2129 34.4747V34.4803ZM37.6641 37.1777C38.1166 37.0575 38.5909 37.0373 39.0523 37.1188C39.0921 37.1314 39.1283 37.1529 39.158 37.1815C39.1878 37.2101 39.2103 37.2451 39.2238 37.2837C39.3296 37.6858 39.3197 38.1087 39.1953 38.5057C39.1776 38.5424 39.1516 38.5747 39.1192 38.6001C39.0867 38.6255 39.0488 38.6434 39.0082 38.6523C38.589 38.7163 38.1599 38.6675 37.767 38.5113C37.6796 38.477 37.5939 38.3137 37.5939 38.2094C37.5922 37.8788 37.6339 37.5529 37.6641 37.1721V37.1777ZM36.1354 38.5551C35.8291 38.5392 35.6838 38.3958 35.6699 38.0954C35.6642 37.972 35.6699 37.8477 35.6699 37.6501C35.6699 37.6429 35.6781 37.5609 35.6887 37.4796C35.7055 37.3778 35.7596 37.2854 35.841 37.2196C35.9224 37.1538 36.0256 37.1191 36.1313 37.1219C36.299 37.1073 36.4681 37.1194 36.6319 37.1578C36.7307 37.1873 36.8622 37.3068 36.8711 37.3968C36.8909 37.6825 36.889 37.9693 36.8654 38.2548C36.8573 38.4141 36.698 38.5384 36.5159 38.5519C36.3893 38.561 36.2621 38.562 36.1354 38.5551ZM35.4821 45.1672C35.95 43.6249 36.4106 42.0802 36.7691 40.5093C36.7825 40.4726 36.8041 40.4392 36.8323 40.4117C36.8606 40.3841 36.8948 40.363 36.9324 40.3499C37.0096 40.342 37.0875 40.3567 37.1561 40.3922C37.1917 40.4128 37.2201 40.4433 37.2378 40.4798C37.446 40.7905 37.6641 41.0956 37.8552 41.4166C38.1728 41.9488 38.4774 42.4889 38.8082 43.1238C37.7572 43.9627 36.8368 44.7538 35.8406 45.4524C35.7589 45.5114 35.6184 45.497 35.5057 45.5161C35.5025 45.3998 35.4527 45.2716 35.4845 45.1672H35.4821ZM38.7281 44.5817C38.4832 45.278 38.2145 45.9678 37.9434 46.6904C37.2005 46.8221 36.441 46.8388 35.6927 46.7398C35.6666 46.7398 35.6372 46.692 35.6266 46.6601C35.616 46.6283 35.6029 46.5669 35.6217 46.5422C35.675 46.4789 35.7356 46.4217 35.8022 46.3717C36.5894 45.7551 37.3772 45.1391 38.1655 44.5235C38.3239 44.4001 38.475 44.2614 38.6955 44.2598C38.7175 44.3706 38.7633 44.4877 38.7306 44.5801L38.7281 44.5817ZM33.7851 47.5771C35.2265 47.597 36.6686 47.5476 38.1132 47.538C38.9617 47.5324 39.8094 47.5436 40.6578 47.5484C40.8277 47.5484 40.9975 47.5659 41.1666 47.5571C42.9493 47.4703 44.7287 47.5571 46.5098 47.6256C47.2717 47.6535 48.036 47.5914 48.7963 47.5874C49.1769 47.5874 49.5582 47.6129 49.9396 47.6464C50.0596 47.6575 50.1731 47.7324 50.303 47.7842C50.5104 48.3076 50.3944 48.8469 50.3846 49.3775C50.386 49.503 50.3401 49.6247 50.2554 49.7193C50.1708 49.8139 50.0534 49.8749 49.9257 49.8905C49.4194 49.9399 48.9115 49.9861 48.4043 49.9901C46.9189 50.002 45.4334 49.9901 43.948 49.9901C41.6152 49.9901 39.2818 49.9882 36.9479 49.9845C35.972 49.9845 34.9962 49.9933 34.0203 49.9845C33.554 49.9845 33.0869 49.9566 32.6214 49.924C32.3691 49.9072 32.1192 49.8539 31.9453 49.6451C31.6848 47.4775 31.7076 47.5476 33.7876 47.5755L33.7851 47.5771ZM32.111 54.0561C32.1249 54.0235 32.1747 54.0044 32.2409 53.9542C33.0265 54.7205 33.4209 55.7482 34.1297 56.5831C34.0244 56.7113 33.9664 56.8484 33.8725 56.8858C33.0077 57.2196 32.1355 57.5367 31.265 57.8561C31.1082 57.9143 30.9473 57.9716 30.6803 57.7836C31.2323 56.5417 31.608 55.2742 32.1135 54.0545L32.111 54.0561ZM31.6529 62.7323C30.692 62.846 29.7298 62.949 28.7661 63.0414C28.722 63.0414 28.6404 62.9427 28.624 62.8781C28.6125 62.798 28.6253 62.7163 28.6608 62.6431C29.083 61.6577 29.5101 60.6738 29.9323 59.6956C30.0207 59.695 30.1091 59.7001 30.1969 59.7107C30.2377 59.7252 30.2719 59.7534 30.2932 59.7904C30.7293 60.446 31.1711 61.0984 31.5941 61.7628C31.7406 62.0181 31.8736 62.2806 31.9926 62.5491C31.8669 62.6192 31.7664 62.7172 31.6554 62.7308L31.6529 62.7323ZM32.7415 62.2591C32.6026 62.1102 32.463 62.0066 32.3871 61.8688C31.8293 60.861 31.0437 59.9847 30.6044 58.8774C30.735 58.7922 30.8232 58.7085 30.931 58.6695C32.0335 58.2632 33.1381 57.8625 34.2449 57.4674C34.3551 57.4283 34.5054 57.4219 34.5772 57.555C34.6147 57.6257 34.6243 57.7073 34.6042 57.7844C34.1142 59.1387 33.6708 60.5121 33.0526 61.8218C32.9848 61.966 32.8656 62.0879 32.7439 62.2576L32.7415 62.2591ZM47.3925 62.5045C46.2558 62.3826 45.106 62.3452 44.4951 62.3101C41.9759 62.0895 39.9866 62.1006 37.994 62.2639C36.9683 62.3436 35.9394 62.3874 34.9112 62.4408C35.1693 61.194 35.4902 59.9178 36.0586 58.7762C36.1909 58.5675 36.3232 58.3588 36.4669 58.1549C37.2778 56.9949 38.3729 56.1752 39.6517 55.5538C40.5753 55.1037 41.53 55.0918 42.4985 55.3435C42.9463 55.4685 43.3808 55.635 43.7961 55.8406C45.0341 56.4293 46.0631 57.2881 46.9695 58.2863C47.1902 58.5338 47.3739 58.8106 47.515 59.1084C47.8417 59.7816 48.1471 60.4627 48.4207 61.1574C49.0356 62.7196 49.2152 62.6989 47.395 62.5029L47.3925 62.5045ZM49.5876 62.0496C49.5386 62.0106 49.4962 61.9915 49.479 61.9604C48.7694 60.6061 48.1218 59.2216 47.6669 57.7613C47.6584 57.724 47.6582 57.6853 47.6664 57.6479C47.6746 57.6105 47.6909 57.5753 47.7143 57.5446C47.7415 57.5176 47.7748 57.4971 47.8114 57.4846C47.8481 57.4722 47.8873 57.4682 47.9258 57.4729C49.1687 57.8505 50.3544 58.3795 51.6447 58.7786C51.2437 59.9624 50.4238 60.826 49.8677 61.8313C49.8187 61.9254 49.6832 61.9763 49.5901 62.048L49.5876 62.0496ZM52.9439 63.0175C52.6924 62.9849 52.4417 62.9482 52.1902 62.9219C51.9803 62.8996 51.7688 62.8933 51.5581 62.8749C51.3058 62.8534 51.0535 62.8327 50.8019 62.8009C50.597 62.7754 50.3822 62.7547 50.2524 62.5077C50.7186 61.4673 51.5034 60.5958 52.0685 59.5992C52.1559 59.6334 52.2123 59.6382 52.2278 59.6653C52.8272 60.7009 53.1832 61.8441 53.6879 62.965C53.3539 63.1346 53.1506 63.043 52.9464 63.0159L52.9439 63.0175Z" fill="#3E1C66"/>
</svg>
