<svg width="80" height="80" viewBox="0 0 80 80" fill="none" xmlns="http://www.w3.org/2000/svg">
<circle cx="39.5" cy="40" r="25" fill="#3D1B64"/>
<g clip-path="url(#clip0_17953_110701)">
<path d="M28.7682 15.9396C27.8102 16.8458 27.3859 18.4088 28.2292 20.1628C27.7302 21.989 27.1642 24.8565 26.9709 27.4367C26.6436 31.7996 26.6251 35.2401 26.5627 37.2736C26.5127 38.8871 26.4511 42.4138 26.428 43.8021C26.4233 44.0653 25.8419 44.2493 25.594 44.1678C25.2782 44.0645 24.8647 43.9869 24.5081 44.1142C24.0315 44.2835 23.5894 44.7851 23.3345 45.1236C23.3051 45.1625 23.268 45.1948 23.2255 45.2186C23.183 45.2423 23.1361 45.2569 23.0878 45.2614C23.0395 45.2659 22.9907 45.2603 22.9446 45.2448C22.8986 45.2294 22.8562 45.2045 22.8201 45.1717C22.3712 44.761 21.4971 44.0459 20.925 44.1165C20.0848 44.2213 19.2608 45.3363 18.1065 47.3093C17.254 48.7706 16.6379 50.2304 16.5771 51.541C16.5162 52.8517 16.5678 58.9717 16.5055 61.3244C16.4431 63.6771 16.9028 64.8138 18.5077 65.15C19.1707 65.2898 21.0805 65.643 21.0805 65.643C21.5063 65.907 21.9759 66.0912 22.4667 66.1866C24.06 66.4552 37.3061 66.3752 39.5625 66.4971C41.8188 66.619 50.2612 66.4343 51.5141 66.4971C52.767 66.56 56.3564 66.4801 56.8831 66.2456C57.3113 66.0553 57.5323 65.5305 57.5323 65.5305C57.5323 65.5305 58.6481 65.5041 60.3816 65.4047C61.3249 65.3503 62.5016 65.3053 62.5016 62.3167C62.5016 60.0502 62.0396 53.865 61.9464 52.3136C61.787 49.6434 62.0157 49.8732 60.7728 47.5446C60.1998 46.47 59.0886 44.271 58.2562 44.271C57.7571 44.271 57.108 44.8379 56.6682 45.2921C56.6038 45.3582 56.5266 45.4102 56.4414 45.445C56.3562 45.4797 56.2648 45.4964 56.173 45.494C56.0811 45.4916 55.9907 45.4701 55.9074 45.431C55.8241 45.3918 55.7496 45.3358 55.6887 45.2665C55.2451 44.7641 54.6175 44.1235 54.3334 44.1678C54.0441 44.2196 53.7676 44.3277 53.5194 44.4861C53.2845 44.6298 52.7231 44.4566 52.7224 44.1802C52.7147 42.1459 52.6939 36.3783 52.6939 35.1282C52.6939 33.6041 52.6115 28.3731 52.4136 25.2051C52.2002 21.725 51.7035 20.0945 51.7035 20.0945C51.7035 20.0945 52.0886 19.3444 51.9122 17.9701C51.8098 17.1657 51.1945 15.7657 49.294 15.7657C48.4068 15.7657 47.5074 16.397 47.5074 16.397L47.0215 14.5475C47.0215 14.5475 47.743 13.8541 47.4496 12.2422C47.1416 10.5541 45.3581 9.4469 43.5931 10.301C40.3988 11.8392 42.2647 14.9085 42.2647 14.9085C42.2647 14.9085 41.2589 17.6455 40.2501 23.7749C39.6148 27.6393 39.9313 29.3654 39.5255 29.3654C39.132 29.3654 39.266 28.3436 39.1712 25.6384C39.0622 22.948 38.7611 20.269 38.2703 17.6222C37.9206 15.7284 37.5479 14.4582 37.5479 14.4582C37.5479 14.4582 38.2371 13.0248 37.4863 11.5519C36.8649 10.3336 34.483 9.32888 33.073 10.9975C31.7284 12.5853 32.7973 14.4582 32.7973 14.4582C32.634 14.893 32.4954 15.3368 32.3822 15.7875C31.0623 14.9163 29.5398 15.2106 28.7682 15.9396Z" fill="white"/>
<path d="M37.0732 42.9087L37.1988 45.3553L39.1471 44.1324L41.4404 45.3553V42.2021L39.3819 43.9942L37.0732 42.2021V42.9087Z" fill="#3E1C66"/>
<path d="M37.0064 35.3593L36.9355 36.6847L39.2235 33.8087L41.4405 36.5023V34.0098L39.3128 33.2598L37.0064 34.0207V35.3593Z" fill="#3E1C66"/>
<path d="M19.0458 55.8107C19.0073 57.4265 18.9072 58.418 18.9072 59.8677C18.9072 61.3173 19.0004 62.1598 19.0381 62.4649C19.0759 62.7701 19.4162 63.076 19.6812 63.076C19.9461 63.076 21.0581 63.4401 21.755 63.4401H24.2423C24.2423 63.4401 25.4629 59.0493 26.3039 56.6974C26.8044 55.2933 27.3934 53.9229 28.0673 52.5946L29.2417 51.3639V48.5686C29.2417 48.5686 28.8413 47.706 28.6256 47.4342C28.41 47.1625 28.0288 46.6415 27.8556 46.6415C27.6823 46.6415 27.2187 47.5662 27.2187 47.5662C27.2187 47.5662 26.819 48.5632 26.7035 48.6354C26.588 48.7076 25.9196 47.6936 25.7794 47.442C25.5191 46.9823 25.3482 46.5716 25.0163 46.5421C24.6844 46.5126 24.384 47.0988 24.0668 47.5779C23.7495 48.057 23.2197 49.2861 23.0302 49.3016C22.8408 49.3171 22.6336 48.8443 22.4912 48.4522C22.3487 48.0601 21.7065 46.8853 21.4616 46.8853C21.2167 46.8853 20.7269 47.5437 20.4097 48.081C20.0924 48.6183 19.3824 50.325 19.2384 50.686C19.0944 51.0471 19.0736 52.5022 19.0736 53.2282C19.0736 53.9542 19.0458 55.8107 19.0458 55.8107Z" fill="#3E1C66"/>
<path d="M19.9243 51.1461C19.9243 51.1461 20.488 49.6895 20.6644 49.2624C20.8407 48.8354 21.2981 47.6823 21.4229 47.8555C21.7309 48.2857 21.8849 48.9542 22.0913 49.3137C22.3562 49.771 22.8499 50.452 22.9554 50.4877C23.3681 50.2547 23.5961 49.9364 23.9765 49.2609C24.3569 48.5854 24.7535 47.6986 24.9653 47.6629C25.177 47.6272 25.6868 48.764 25.8632 49.0132C26.0395 49.2624 26.4107 49.7765 26.6926 49.8479C26.9744 49.9193 27.6937 48.3897 27.9116 48.0543C28.034 47.7608 28.3736 48.3563 28.6309 48.8004C28.7017 49.2982 28.6309 50.8619 28.6309 50.8619C28.4141 51.1566 28.1735 51.4327 27.9116 51.6873C27.5381 52.0352 27.0098 53.1012 26.5162 54.4166C26.0226 55.7319 24.4678 58.8595 24.293 59.6771C24.1182 60.4947 23.4459 62.2712 23.4459 62.2712C23.4459 62.2712 20.5558 62.4847 20.0622 62.2712C19.5685 62.0577 19.6771 61.0988 19.6771 59.9255C19.6771 58.7523 19.8889 54.9927 19.9243 54.1099C19.9597 53.227 19.8881 52.0709 19.9243 51.1461Z" fill="#FFD261"/>
<path d="M20.9773 56.0118C22.0747 56.3845 22.2333 56.4 22.2503 55.2229C22.2503 55.0195 22.2503 54.8161 22.2503 54.6126H22.1825C22.1825 54.1545 22.2148 53.6941 22.1717 53.2406C22.1432 52.9456 22.0262 52.6513 21.9083 52.3741C21.8259 52.1808 21.628 52.0845 21.417 52.0752C21.3161 52.066 21.2148 52.09 21.1286 52.1438C21.0424 52.1976 20.9758 52.2781 20.9388 52.3733C20.8456 52.6063 20.7463 52.8524 20.7301 53.0978C20.6808 53.8587 20.6677 54.6227 20.647 55.3852C20.6399 55.487 20.659 55.5889 20.7024 55.681C20.7732 55.806 20.8603 55.9722 20.9773 56.0118Z" fill="#3E1C66"/>
<path d="M24.4714 51.9065C24.3206 51.8879 24.168 51.9202 24.0373 51.9983C23.9066 52.0764 23.8053 52.1959 23.7491 52.3382C23.3155 53.3965 23.2293 54.4991 23.344 55.6257C23.3664 55.8478 23.6028 56.1203 23.8299 56.1529C24.0779 56.1934 24.3298 56.2025 24.58 56.1801C24.6821 56.171 24.7783 56.1279 24.8534 56.0576C24.9286 55.9873 24.9784 55.8939 24.9951 55.7919C25.0721 55.2406 25.1167 54.6839 25.1491 54.3585C25.1606 53.5712 25.2661 53.0145 25.1083 52.4617C25.0698 52.3153 24.9884 52.184 24.8748 52.085C24.7612 51.986 24.6206 51.9238 24.4714 51.9065Z" fill="#3E1C66"/>
<path d="M60.1541 55.8114C60.1918 57.4272 60.4459 58.4187 60.4459 59.8684C60.4459 61.318 60.419 62.2265 60.3805 62.5316C60.342 62.8368 60.0023 63.1427 59.7374 63.1427C59.4725 63.1427 58.0756 63.3089 57.3795 63.3089C56.6833 63.3089 54.0026 63.444 54.0026 63.444C54.0026 63.444 52.6935 59.0531 51.8526 56.7012C51.3658 55.358 50.9544 53.9883 50.6205 52.5984L49.8896 51.3677V47.9761C49.8896 47.9761 50.4664 47.2416 50.6836 46.9667C50.9008 46.6919 51.1033 46.4193 51.2766 46.4193C51.4498 46.4193 51.8241 46.9667 51.8241 46.9667C51.8241 46.9667 52.2677 47.8799 52.5587 48.3706C52.6288 48.4886 53.0855 47.6951 53.2241 47.4388C53.4397 47.0428 53.874 46.3704 54.206 46.3409C54.5379 46.3114 54.792 46.893 55.1093 47.3728C55.4265 47.8527 55.9086 49.1432 56.0957 49.1587C56.2829 49.1742 56.6694 48.47 56.8727 48.1058C57.2709 47.3954 57.6066 46.8875 57.8515 46.8875C58.0964 46.8875 58.4745 47.6073 58.7918 48.1446C59.1091 48.6819 59.5942 50.3187 59.7382 50.6852C59.8822 51.0517 59.903 52.5013 59.903 53.2273C59.903 53.9533 60.1541 55.8114 60.1541 55.8114Z" fill="#3E1C66"/>
<path d="M50.4607 48.5405C50.4607 48.5405 51.1622 47.542 51.2747 47.542C51.3871 47.542 51.8461 48.5708 51.9985 48.8682C52.0822 49.0246 52.1771 49.1746 52.2827 49.317C52.3058 49.3491 52.3351 49.3762 52.3688 49.3968C52.4025 49.4173 52.4399 49.4309 52.4788 49.4367C52.5178 49.4425 52.5575 49.4404 52.5956 49.4305C52.6337 49.4206 52.6695 49.4031 52.7009 49.3791C52.9172 49.2137 53.0435 49.0033 53.3231 48.6702C53.5903 48.3518 54.0354 47.5102 54.1763 47.4527C54.3173 47.3953 54.9995 48.9668 55.2075 49.2789C55.4154 49.5911 55.9283 50.4149 56.1516 50.4149C56.3749 50.4149 56.9278 49.4156 57.125 49.046C57.3407 48.6295 57.5897 48.2314 57.8696 47.8557C57.9975 47.6942 58.7991 50.3303 59.0248 50.8124C59.2504 51.2946 59.1372 53.0851 59.4468 56.4076C59.7563 59.7301 59.8695 61.8327 59.7001 62.0028C59.5307 62.1728 59.4144 62.4826 59.007 62.4826C58.5997 62.4826 54.6784 62.6022 54.4636 62.4826C54.2487 62.363 53.0774 58.9986 52.9234 58.3992C52.7694 57.7998 50.8696 52.1216 50.7595 51.877C50.6494 51.6324 50.3906 51.2985 50.3652 51.0531C50.3398 50.8078 50.2797 48.7735 50.4607 48.5405Z" fill="#FFD261"/>
<path d="M58.2544 55.9776C57.1662 56.3464 57.0091 56.3658 56.9922 55.1949C56.9922 54.9931 56.9922 54.7912 56.9922 54.5893H57.06C57.06 54.1359 57.0276 53.6793 57.0707 53.2297C57.0992 52.937 57.2147 52.6451 57.3318 52.3702C57.4134 52.1784 57.6098 52.0829 57.8193 52.0744C57.9194 52.0648 58.0199 52.0884 58.1055 52.1416C58.1911 52.1949 58.2572 52.2749 58.2936 52.3694C58.386 52.6023 58.4846 52.8446 58.5 53.0876C58.5485 53.8423 58.5616 54.5994 58.5824 55.3557C58.5898 55.4566 58.5709 55.5578 58.5277 55.6492C58.4569 55.7726 58.3699 55.938 58.2544 55.9776Z" fill="#3E1C66"/>
<path d="M54.6616 51.9066C54.9897 51.8833 55.2561 52.0371 55.3778 52.3344C55.8075 53.3834 55.8938 54.4775 55.7798 55.5956C55.7575 55.8153 55.5234 56.0855 55.2977 56.1173C55.0521 56.1578 54.8025 56.1669 54.5546 56.1445C54.454 56.1349 54.3592 56.0922 54.285 56.023C54.2107 55.9539 54.1609 55.8621 54.1434 55.7617C54.0664 55.2143 54.0217 54.663 53.9894 54.3408C53.9778 53.5597 53.8731 53.0076 54.0294 52.4594C54.0673 52.3138 54.148 52.1832 54.2608 52.0845C54.3736 51.9859 54.5133 51.9239 54.6616 51.9066Z" fill="#3E1C66"/>
<path d="M41.1569 32.8767L41.1191 33.5972C41.1191 33.5972 40.4977 33.1026 39.3718 33.1554C38.6647 33.201 37.9705 33.3686 37.3195 33.6508C37.2934 33.6617 37.2803 33.6687 37.2803 33.6687V32.8813C37.2803 32.8813 37.2934 32.8705 37.3195 32.8526C37.8851 32.4772 38.5376 32.2563 39.2132 32.2112C39.9212 32.177 40.6158 32.4148 41.1569 32.8767Z" fill="#FFD261"/>
<path d="M50.7082 37.5646C50.729 36.2166 50.4818 34.0449 50.4617 30.2744C50.4417 26.5039 50.3077 23.8096 50.0397 21.7893C49.9288 20.9523 49.7525 20.3264 49.5661 19.88C49.9866 19.5368 50.1191 18.8644 50.1052 18.4676C50.0821 17.9241 49.6478 17.5071 48.9816 17.6414C48.163 17.8061 48.0221 18.3255 47.999 18.8683C47.9836 19.2177 48.0275 19.6377 48.2994 19.8846C48.0832 20.4065 47.8943 20.9393 47.7333 21.481C47.3483 22.7513 46.9517 25.1948 46.7222 27.0995C46.4927 29.0041 46.321 32.2559 46.321 32.2559C46.321 32.2559 46.2848 33.2374 46.1901 28.4428C46.0954 23.6481 45.9075 19.2805 45.7196 17.5723C45.6056 16.5311 45.4054 15.1482 45.1805 14.2864C45.4338 14.0009 45.5832 13.6369 45.6041 13.2545C45.6187 12.6713 45.2791 11.919 44.6576 11.9671C44.6576 11.9671 44.385 11.7668 43.9961 12.2187C43.6073 12.6706 43.6373 13.0029 43.5934 13.5154C43.5649 13.8593 43.8406 14.1847 44.1679 14.3749C43.6812 15.524 43.213 17.5972 42.6462 20.0151C41.8638 23.343 41.451 28.4723 41.3602 30.1362C41.3309 30.6502 41.3078 31.4624 41.2878 32.3755C40.6864 31.9828 39.9866 31.7709 39.2702 31.7644C38.3576 31.7644 37.7138 32.0082 37.3203 32.2257C37.3249 30.4305 37.2679 28.4591 37.2679 27.3215C37.2679 25.1312 36.8898 20.6852 36.6018 18.7207C36.4039 17.3627 36.0258 15.3882 35.5545 14.2988C35.5067 14.3434 35.4507 14.3782 35.3897 14.4013C35.1525 14.4875 34.7359 14.4688 34.4156 14.3174C34.0144 15.4782 33.5608 17.6213 33.4045 19.0375C33.1804 21.0625 32.9285 23.548 32.8038 26.2586C32.602 23.6264 31.9613 21.3133 31.7303 20.248C31.6835 20.0221 31.6194 19.8001 31.5385 19.5841C31.4751 19.6058 31.4084 19.6163 31.3414 19.6152C31.008 19.6152 30.75 19.5966 30.5459 19.5213C30.3403 19.9506 30.2025 20.5873 30.0646 21.1161C29.849 21.9422 29.2237 25.4216 29.0073 27.226C28.7909 29.0305 28.8795 34.8167 28.8579 35.8595C28.8363 36.9023 28.5137 44.2328 28.5137 45.1677V52.2769L28.5237 52.2637C28.5237 52.2637 28.928 51.9221 29.3377 51.5812C29.3377 51.311 29.3377 51.0322 29.3377 50.7512C29.3377 48.9839 29.3423 47.1127 29.3377 46.6033C29.3261 45.6095 29.36 41.6534 29.4216 40.8265C29.4447 40.5081 29.4616 39.3512 29.4732 37.9777C30.0446 37.5972 31.2552 36.8005 32.3225 36.1584C32.331 37.7494 32.3471 40.3125 32.3225 41.2054C32.2994 41.9562 32.3887 45.6483 32.428 48.3372C32.428 48.5988 32.4349 48.8512 32.438 49.0895C32.6829 48.8877 32.8831 48.7184 32.9971 48.6136C33.0741 48.546 33.185 48.4583 33.3274 48.348V39.8248C33.3274 39.3481 33.3051 37.5964 33.2782 35.6196C34.4333 35.0473 35.9211 34.6288 36.5895 34.4549C36.578 36.4348 36.6981 40.4569 36.6981 41.5253C36.6981 42.155 36.6912 43.7848 36.6881 45.2523C36.6881 45.5209 36.6881 45.7849 36.6881 46.0357C36.9129 45.8851 37.1863 45.705 37.4697 45.5194V42.7094C37.6414 42.9051 37.8008 43.0712 37.8547 43.1559C37.9934 43.3663 38.7788 44.3827 39.1408 44.3827C39.5027 44.3827 40.3229 43.489 40.758 43.1038C40.8904 42.9909 41.011 42.8644 41.1176 42.7265C41.0991 43.4004 41.0806 44.062 41.0668 44.6567C41.0598 44.9238 41.0544 45.1777 41.049 45.413C41.1892 45.4907 41.307 45.5582 41.3856 45.6001C41.4872 45.6537 41.6936 45.7795 41.9539 45.9472C41.9539 45.8098 41.9585 45.684 41.96 45.573C41.96 45.5458 41.96 45.5194 41.96 45.4953C41.96 45.3928 41.96 45.3051 41.96 45.2329V45.163C41.9639 43.836 42.0733 37.3068 42.0733 36.7446C42.0733 36.5187 42.084 35.6987 42.0971 34.708C43.3211 35.0999 44.5186 35.5717 45.6818 36.1204C45.6688 37.9691 45.6534 39.8179 45.6649 40.6758C45.6803 41.7629 45.5779 45.0822 45.4924 47.5941C45.487 47.7494 45.4816 47.9047 45.477 48.06C45.477 48.1135 45.4724 48.1679 45.4716 48.2215C45.4716 48.2991 45.4655 48.3837 45.4631 48.4622C45.822 48.7394 46.2686 49.0756 46.7184 49.4125V48.4629C46.7184 47.9971 46.7415 40.1191 46.7715 39.4063C46.7869 39.0103 46.7715 37.9117 46.7808 36.6973C47.8279 37.2781 48.8253 37.9458 49.7625 38.6935C49.7625 41.266 49.7625 43.7242 49.7756 44.7259C49.7902 45.9682 49.7571 48.5608 49.7217 50.915V50.9297C49.7217 51.0027 49.7217 51.0749 49.7217 51.1472V51.3063C49.7217 51.325 49.7217 51.3436 49.7217 51.3622C49.7217 51.5098 49.7178 51.6565 49.7155 51.8009C50.0613 52.148 50.3493 52.4555 50.3493 52.4555C50.3493 52.4555 50.4302 52.676 50.5464 53.0076C50.5549 52.551 50.5634 52.0867 50.5719 51.6231C50.6335 48.2494 50.5719 44.8905 50.5911 44.5356C50.6235 43.8096 50.6874 38.9141 50.7082 37.5646ZM30.348 23.159C30.4712 22.7381 30.733 20.9849 31.0064 20.8948C31.1604 20.8451 31.604 23.0922 31.7819 24.1505C31.9074 24.9013 32.063 25.7616 32.1485 26.733C31.7177 26.7561 31.2891 26.8108 30.8663 26.8968C30.4928 26.983 30.03 27.1864 29.7027 27.3441C29.8744 25.8307 30.2394 23.5301 30.348 23.159ZM29.494 32.3693C29.494 31.2823 29.5425 29.0717 29.648 27.9093C29.6484 27.9036 29.6484 27.8979 29.648 27.8922C29.7543 27.8379 29.8752 27.7734 29.9953 27.702C30.3434 27.4947 31.0149 27.3138 31.4469 27.2851C31.6968 27.2746 31.9471 27.2903 32.1939 27.3316C32.2054 27.5428 32.2131 27.7595 32.2154 27.9808C32.2309 29.1866 32.2878 32.3724 32.3086 34.1474C31.4615 34.5814 30.1147 35.3012 29.4863 35.6397C29.4917 34.1482 29.494 32.8103 29.494 32.3693ZM29.4747 37.3658C29.4747 37.0195 29.4794 36.667 29.4809 36.3137C30.0477 36.0031 31.2244 35.3649 32.3148 34.8136C32.3148 34.9409 32.3148 35.0504 32.3148 35.1381C32.3148 35.2601 32.3148 35.4153 32.3148 35.5963C31.336 36.1607 30.0692 36.9776 29.4747 37.3658ZM33.627 24.1699C33.7402 23.3399 33.8842 20.5268 34.2577 19.1486C34.4941 18.2719 34.6943 15.4363 35.0278 15.5893C35.5769 15.8385 35.7655 19.4436 35.8749 20.0811C35.9657 20.6316 36.3292 23.2739 36.4609 25.2352C35.9758 25.208 35.1602 25.1801 34.6728 25.2616C34.2646 25.3307 33.7833 25.5155 33.4406 25.6638C33.5023 25.1211 33.5685 24.6016 33.627 24.1699ZM36.5941 33.8453C36.5941 33.8912 36.5941 33.9401 36.5903 33.9913C35.9226 34.1753 34.357 34.6257 33.2651 35.1055C33.2604 34.8578 33.2574 34.6078 33.2543 34.3578C34.481 33.8065 35.9942 33.3042 36.608 33.1069C36.6049 33.3896 36.5995 33.6396 36.5941 33.8453ZM33.245 33.6978C33.215 31.4166 33.1865 29.272 33.1865 28.7953C33.1865 28.2556 33.2558 27.393 33.3475 26.4977C33.7864 26.2454 34.5334 25.8595 35.0617 25.8323C35.5446 25.8233 36.0271 25.8665 36.5009 25.9612C36.5009 26.0124 36.5009 26.0614 36.5056 26.1103C36.5464 27.6174 36.6088 30.4895 36.6103 32.4438C35.6577 32.6915 34.1545 33.2941 33.245 33.6978ZM37.2803 33.6691V32.8818C37.2803 32.8818 37.2934 32.8709 37.3195 32.853C37.8851 32.4777 38.5376 32.2567 39.2132 32.2117C39.9212 32.1775 40.6158 32.4153 41.1569 32.8771L41.1191 33.5977C41.1191 33.5977 40.4977 33.1031 39.3718 33.1559C38.6647 33.2014 37.9705 33.369 37.3195 33.6512C37.2926 33.6621 37.2803 33.6691 37.2803 33.6691ZM37.3373 36.0893C37.3373 36.0404 37.3373 35.9961 37.3334 35.955C37.3249 35.6359 37.3203 35.0062 37.3195 34.2142C37.7819 34.0313 38.253 33.872 38.7311 33.7366C38.4498 34.0815 38.1955 34.4478 37.9703 34.8322C37.787 35.1645 37.5105 35.7205 37.3373 36.0893ZM40.758 41.9655C40.7164 42.1317 39.6752 43.6505 39.3464 43.6505C39.0176 43.6505 38.1143 42.471 37.8062 42.1806C37.4982 41.8902 37.6422 40.6852 37.5598 40.0842C37.4774 39.4832 37.5252 37.2113 37.6484 36.6282C37.7007 36.3828 38.2036 35.5512 38.4092 35.2197C38.6148 34.8881 38.9552 34.0798 39.2817 34.0798C39.6082 34.0798 39.8262 34.6583 40.1157 35.1327C40.2913 35.4208 40.8088 36.1538 40.8311 36.6421C40.8311 37.3254 40.8057 38.5367 40.8465 39.4281C40.8873 40.3195 40.7988 41.8002 40.758 41.9655ZM41.2331 36.0893C41.086 35.8214 40.5639 34.8757 40.2674 34.4269C40.0988 34.1715 39.9224 33.8461 39.7461 33.6015C40.2374 33.6613 40.8558 33.9385 41.257 34.1451C41.247 34.8252 41.2393 35.4969 41.2331 36.0893ZM44.1301 13.3639C44.1509 13.131 44.1363 12.9757 44.3165 12.7637C44.4967 12.5518 44.6245 12.6473 44.6245 12.6473C44.9125 12.6248 45.0696 12.9734 45.0635 13.2428C45.0558 13.3772 45.0141 13.5073 44.9426 13.6209C44.8594 13.7537 44.7431 13.8492 44.6245 13.8391C44.5698 13.8329 44.5164 13.8185 44.4659 13.7964C44.2842 13.718 44.1147 13.5464 44.1301 13.3639ZM42.7956 23.6567C43.0443 22.5122 43.3008 19.8 43.6188 18.8426C43.9368 17.8853 44.0239 15.8921 44.5614 15.7857C44.8178 15.8929 45.0073 18.0778 45.0327 18.5662C45.0581 19.0546 45.1744 21.3444 45.353 23.7638C45.4046 24.4626 45.4462 25.2911 45.4809 26.1374C44.999 25.8335 44.4697 25.6137 43.9153 25.4876C43.463 25.4 43.0007 25.378 42.5422 25.4223C42.6285 24.6536 42.7193 24.0053 42.7956 23.6567ZM45.6811 35.5497C44.515 34.9895 43.3199 34.4929 42.101 34.062C42.101 33.836 42.1064 33.6062 42.1094 33.3771C42.9404 33.6823 44.6299 34.3089 45.6857 34.7748C45.6865 35.0271 45.6865 35.2872 45.6811 35.5497ZM45.688 34.0744C44.5329 33.5961 42.9373 33.0448 42.1164 32.7668C42.1287 31.8211 42.1372 30.9499 42.1372 30.4724C42.1372 29.654 42.2912 27.6873 42.4698 26.0319C42.9467 25.9755 43.4291 25.9889 43.9022 26.0715C44.539 26.1825 45.1382 26.5288 45.5047 26.778C45.5725 28.6415 45.6118 30.4903 45.6587 31.2753C45.6865 31.7147 45.6926 32.7894 45.6865 34.0767L45.688 34.0744ZM48.6374 18.8558C48.6467 18.6446 48.7021 18.442 49.0225 18.3768C49.2827 18.3247 49.4522 18.4878 49.4614 18.6998C49.4683 18.8597 49.4129 19.1338 49.2365 19.2642C49.1742 19.3096 49.0994 19.3343 49.0225 19.3349C48.8269 19.3403 48.7275 19.2573 48.679 19.1408C48.6457 19.0516 48.6316 18.9564 48.6374 18.8613V18.8558ZM47.7179 25.7935C48.036 24.3601 48.2686 21.2124 48.9647 21.2124C49.4868 21.2124 49.5384 23.954 49.5969 24.5682C49.627 24.8866 49.6739 26.2966 49.7094 27.7362C49.3612 27.5253 48.9941 27.3483 48.6128 27.2074C48.2608 27.1018 47.8957 27.0476 47.5285 27.0467C47.5886 26.5265 47.6525 26.0924 47.7179 25.7989V25.7935ZM49.7587 37.9513C49.2127 37.5809 48.0891 36.8425 46.7854 36.1219C46.7915 35.8548 46.7985 35.5862 46.81 35.3229C47.7665 35.8463 49.1041 36.639 49.7594 37.0312C49.7594 37.341 49.7594 37.6484 49.7587 37.9567V37.9513ZM49.7587 36.3067C49.1357 35.9185 47.8858 35.1475 46.8439 34.6078C46.8608 34.3469 46.8824 34.0977 46.9078 33.8663C47.0541 32.5347 47.2443 29.6602 47.4577 27.6275C47.8468 27.6335 48.2342 27.6824 48.6128 27.7734C49.0036 27.8738 49.3778 28.0307 49.724 28.2393C49.7525 29.404 49.7733 30.5074 49.7733 30.9771C49.7679 31.4678 49.7679 33.7312 49.761 36.3122L49.7587 36.3067Z" fill="#3E1C66"/>
<path d="M40.7578 41.9648C40.7162 42.131 39.675 43.6497 39.3462 43.6497C39.0174 43.6497 38.1141 42.4703 37.806 42.1799C37.498 41.8895 37.642 40.6844 37.5596 40.0835C37.4772 39.4825 37.525 37.2106 37.6482 36.6274C37.7005 36.3821 38.2034 35.5505 38.409 35.2189C38.6146 34.8874 38.955 34.0791 39.2815 34.0791C39.608 34.0791 39.826 34.6576 40.1155 35.132C40.2911 35.42 40.8086 36.153 40.8309 36.6414C40.8309 37.3247 40.8055 38.536 40.8463 39.4273C40.8871 40.3187 40.7986 41.7994 40.7578 41.9648Z" fill="#FFD261"/>
<path d="M39.1139 37.9262C39.6452 37.8688 40.182 38.382 40.182 39.3766C40.182 40.3713 40.1204 42.0694 39.5251 42.0896C38.9298 42.1098 38.333 41.4894 38.333 40.2051C38.333 38.9209 38.3538 38.0093 39.1139 37.9262Z" fill="#3E1C66"/>
<path d="M32.1479 26.7326C31.7171 26.7556 31.2886 26.8104 30.8657 26.8964C30.4923 26.9826 30.0294 27.186 29.7021 27.3436C29.8739 25.8303 30.2412 23.5297 30.3475 23.1585C30.4707 22.7377 30.7325 20.9844 31.0059 20.8944C31.1599 20.8447 31.6035 23.0917 31.7814 24.1501C31.9069 24.9009 32.0624 25.762 32.1479 26.7326Z" fill="#FFD261"/>
<path d="M32.3067 34.1477C31.4596 34.5817 30.1128 35.3015 29.4844 35.64C29.4913 34.1492 29.4936 32.8106 29.4936 32.3696C29.4936 31.2826 29.5421 29.072 29.6476 27.9096C29.648 27.9039 29.648 27.8982 29.6476 27.8925C29.7539 27.8382 29.8748 27.7737 29.9949 27.7023C30.343 27.495 31.0145 27.3141 31.4465 27.2854C31.6965 27.2749 31.9468 27.2906 32.1935 27.3319C32.2051 27.5431 32.2128 27.7598 32.2151 27.9811C32.2289 29.1861 32.2867 32.3719 32.3067 34.1477Z" fill="#FFD261"/>
<path d="M32.317 35.5961C31.3359 36.1606 30.0691 36.9775 29.4746 37.3657C29.4746 37.0194 29.4792 36.6669 29.4808 36.3136C30.0475 36.003 31.2242 35.3648 32.3147 34.8135C32.3147 34.9408 32.3147 35.0503 32.3147 35.138C32.3154 35.2599 32.3162 35.4152 32.317 35.5961Z" fill="#FFD261"/>
<path d="M32.431 49.0878C31.6316 49.7478 30.3587 50.7525 30.0668 50.9816C29.9128 51.105 29.6209 51.3426 29.3352 51.581C29.3352 51.3108 29.3352 51.032 29.3352 50.751C29.3352 48.9837 29.3399 47.1125 29.3352 46.6031C29.3237 45.6092 29.3576 41.6532 29.4192 40.8263C29.4423 40.5079 29.4592 39.351 29.4708 37.9774C30.0422 37.597 31.2527 36.8003 32.3201 36.1582C32.3286 37.7492 32.3447 40.3123 32.3201 41.2052C32.297 41.956 32.3863 45.6481 32.4256 48.3369C32.4248 48.5971 32.4279 48.8494 32.431 49.0878Z" fill="#FFD261"/>
<path d="M36.4617 25.2349C35.9765 25.2077 35.161 25.1798 34.6735 25.2613C34.2654 25.3304 33.7841 25.5152 33.4414 25.6635C33.5046 25.12 33.5708 24.6013 33.6293 24.1696C33.7425 23.3396 33.8865 20.5265 34.26 19.1482C34.4964 18.2716 34.6966 15.436 35.0301 15.589C35.5791 15.8382 35.7678 19.4433 35.8772 20.0808C35.9665 20.6313 36.33 23.2775 36.4617 25.2349Z" fill="#FFD261"/>
<path d="M36.6103 32.4438C35.6577 32.6915 34.1545 33.2979 33.2451 33.6977C33.215 31.4165 33.1865 29.2719 33.1865 28.7952C33.1865 28.2555 33.2558 27.3929 33.3475 26.4976C33.7864 26.2453 34.5334 25.8594 35.0617 25.8322C35.5446 25.8232 36.0271 25.8664 36.501 25.9611C36.501 26.0124 36.501 26.0613 36.5056 26.1102C36.5464 27.6173 36.6088 30.4894 36.6103 32.4438Z" fill="#FFD261"/>
<path d="M36.6076 33.1064C36.6076 33.3891 36.5999 33.6391 36.5937 33.8449C36.5937 33.8907 36.5937 33.9396 36.5899 33.9908C35.9222 34.1749 34.3567 34.6252 33.2647 35.105C33.2601 34.8574 33.257 34.6073 33.2539 34.3573C34.4806 33.806 35.9939 33.3037 36.6076 33.1064Z" fill="#FFD261"/>
<path d="M36.692 41.5237C36.692 42.1535 36.685 43.7832 36.682 45.2507C36.682 45.5194 36.682 45.7834 36.682 46.0342C36.4402 46.1957 36.2538 46.323 36.1691 46.3867C35.8272 46.6406 34.1253 47.7424 33.3198 48.3426V39.8241C33.3198 39.3473 33.2975 37.5956 33.2705 35.6188C34.4256 35.0465 35.9134 34.628 36.5819 34.4541C36.5718 36.4348 36.692 40.4569 36.692 41.5237Z" fill="#FFD261"/>
<path d="M31.5386 19.5837C31.4751 19.6054 31.4085 19.6159 31.3415 19.6147C31.008 19.6147 30.75 19.5961 30.546 19.5208C30.2695 19.4199 30.0916 19.2102 29.9615 18.7707C29.7305 18.0075 30.5675 17.1091 30.9849 17.0144C31.7604 16.8358 32.1585 17.5866 32.197 17.9112C32.2317 18.2063 32.1424 19.3787 31.5386 19.5837Z" fill="#3E1C66"/>
<path d="M31.0229 17.6523C31.4141 17.5623 31.615 17.9412 31.6343 18.105C31.6535 18.2688 31.5973 18.9684 31.203 18.9645C30.8088 18.9607 30.6216 18.9234 30.51 18.5383C30.3983 18.1531 30.8126 17.7005 31.0229 17.6523Z" fill="#FFD261"/>
<path d="M35.5539 14.2982C35.5061 14.3428 35.4501 14.3776 35.3891 14.4007C35.1519 14.4868 34.7353 14.4682 34.415 14.3168C34.1839 14.2073 33.9999 14.0287 33.976 13.7694C33.919 13.156 33.9175 12.086 34.9217 11.8958C35.7434 11.7405 35.9651 12.583 35.9844 13.0224C36.0006 13.3982 35.8535 14.0303 35.5539 14.2982Z" fill="#3E1C66"/>
<path d="M34.9475 12.5457C35.348 12.4681 35.4558 12.8812 35.465 13.0955C35.4743 13.3098 35.3749 13.6949 35.1755 13.7671C34.976 13.8393 34.514 13.7585 34.4863 13.4565C34.4585 13.1545 34.4578 12.6397 34.9475 12.5457Z" fill="#FFD261"/>
<path d="M30.3694 39.305C30.5234 39.2902 30.5234 39.8283 30.5234 39.9207C30.5234 40.0131 30.5496 41.521 30.5234 41.7524C30.4972 41.9838 30.575 42.5684 30.3694 42.6756C30.1638 42.7827 29.922 42.6911 29.922 41.9985C29.922 41.3059 29.858 40.0279 29.922 39.8283C29.9859 39.6288 30.203 39.3197 30.3694 39.305Z" fill="#3E1C66"/>
<path d="M31.4342 38.6672C31.2424 38.6408 31.083 38.852 31.083 39.2674C31.083 39.6829 31.0676 40.6992 31.083 40.992C31.0984 41.2847 31.0761 42.0386 31.2547 42.0386C31.4334 42.0386 31.7391 41.8833 31.7391 41.6504V40.2217C31.7391 39.7139 31.7699 38.7131 31.4342 38.6672Z" fill="#3E1C66"/>
<path d="M30.0368 44.4749C30.0669 44.4308 30.1073 44.395 30.1545 44.3706C30.2017 44.3462 30.2541 44.334 30.3071 44.3351C30.3071 44.3351 30.4227 44.3196 30.4673 44.5983C30.512 44.8771 30.5513 45.7289 30.5513 46.27C30.5513 46.8112 30.5767 47.7104 30.5513 47.8028C30.5258 47.8952 30.3972 48.1281 30.217 48.1281C30.0368 48.1281 29.8697 47.8175 29.8697 47.5396C29.8697 47.2616 29.8574 46.2087 29.8697 45.7289C29.8821 45.249 30.0368 44.4749 30.0368 44.4749Z" fill="#3E1C66"/>
<path d="M31.2336 43.6738C31.6187 43.4921 31.7249 43.8594 31.7249 44.2468C31.7249 44.6343 31.8019 45.7633 31.8019 46.143C31.8019 46.5226 31.9097 47.1725 31.6025 47.3123C31.2952 47.4521 31.0041 47.4979 31.0041 46.6135C31.0041 45.7291 31.0188 45.1273 31.0041 44.7244C30.9895 44.3214 30.9726 43.7981 31.2336 43.6738Z" fill="#3E1C66"/>
<path d="M34.5199 37.0989C34.4036 37.1074 34.1256 37.4358 34.1256 37.5647C34.1256 37.6936 34.1133 38.7054 34.1133 39.1441C34.1133 39.5828 34.1803 40.4306 34.2342 40.4454C34.2881 40.4602 34.4182 40.6007 34.6292 40.6007C34.8156 40.3973 34.7833 40.2319 34.7833 39.9143C34.7833 39.5967 34.7678 38.4515 34.7548 38.012C34.7417 37.5725 34.7347 37.0864 34.5199 37.0989Z" fill="#3E1C66"/>
<path d="M35.7216 36.6889C35.5291 36.7549 35.2057 36.8853 35.2342 37.2324C35.2627 37.5795 35.245 38.3093 35.2342 38.8909C35.2234 39.4725 35.2904 39.9709 35.4067 39.9709C35.523 39.9709 35.8687 39.7434 35.9373 39.4717C36.0058 39.1999 35.9511 38.5182 35.9373 38.0337C35.9234 37.5492 35.9388 36.6135 35.7216 36.6889Z" fill="#3E1C66"/>
<path d="M34.6891 41.6303C34.5143 41.583 34.3187 41.7251 34.234 41.8897C34.1493 42.0543 34.1085 42.3229 34.1085 43.7935C34.1085 45.2642 34.0261 45.8263 34.1909 45.8263C34.3557 45.8263 34.8208 45.6314 34.8416 45.4707C34.8624 45.31 34.8316 44.1228 34.8416 43.7283C34.8516 43.3339 34.887 41.6847 34.6891 41.6303Z" fill="#3E1C66"/>
<path d="M35.5782 41.2034C35.4627 41.2617 35.3148 41.3238 35.2825 41.5319C35.2501 41.74 35.304 42.5211 35.2825 42.9C35.2609 43.2789 35.2278 45.1168 35.3803 45.1401C35.5328 45.1634 35.9139 45.0942 35.9355 44.8528C35.9571 44.6113 35.8816 42.7563 35.8816 42.6228C35.8816 42.4892 35.8377 41.5218 35.8377 41.3727C35.8377 41.2236 35.7237 41.1297 35.5782 41.2034Z" fill="#3E1C66"/>
<path d="M30.2978 28.9608C30.4873 28.9289 30.6459 29.1091 30.6775 29.1836C30.7091 29.2581 30.7406 29.7372 30.6775 29.7473C30.6143 29.7574 30.2239 29.9709 30.1184 29.8964C30.0129 29.8219 30.066 29.3754 30.1184 29.2263C30.1589 29.126 30.2201 29.0355 30.2978 28.9608Z" fill="#3E1C66"/>
<path d="M30.3455 30.1514C30.5426 30.1195 30.7536 30.229 30.7536 30.4488C30.7536 30.6685 30.8307 30.9488 30.5496 31.0024C30.2685 31.056 29.9566 31.1134 30.0174 30.5738C30.0783 30.0341 30.3455 30.1514 30.3455 30.1514Z" fill="#3E1C66"/>
<path d="M30.2971 31.2691C30.4634 31.2373 30.6952 31.3468 30.7168 31.5347C30.7384 31.7226 30.7938 32.1093 30.7168 32.1838C30.6398 32.2584 30.2548 32.3329 30.1469 32.2475C30.0391 32.1621 30.0099 32.0145 30.0206 31.7156C30.0279 31.6243 30.0568 31.5361 30.1049 31.4584C30.1531 31.3807 30.219 31.3158 30.2971 31.2691Z" fill="#3E1C66"/>
<path d="M30.375 32.5176C30.2696 32.525 30.1712 32.5737 30.1009 32.6532C30.0305 32.7326 29.9938 32.8367 29.9984 32.9431C30.0138 33.2087 29.9507 33.7514 30.1409 33.7514C30.3311 33.7514 30.7085 33.666 30.7516 33.4409C30.7843 33.2294 30.7843 33.0141 30.7516 32.8026C30.7316 32.7397 30.7254 32.4843 30.375 32.5176Z" fill="#3E1C66"/>
<path d="M31.3798 28.6276C31.188 28.6998 31.1349 28.7884 31.1033 29.0787C31.0914 29.2716 31.1399 29.4634 31.242 29.6269C31.242 29.6269 31.627 29.6914 31.6786 29.5299C31.7302 29.3684 31.7209 29.0298 31.7209 28.9576C31.7209 28.8854 31.5161 28.5772 31.3798 28.6276Z" fill="#3E1C66"/>
<path d="M31.4247 29.877C31.2876 29.877 31.1167 29.9546 31.1167 30.0827C31.1167 30.2108 31.0805 30.693 31.1167 30.693C31.1529 30.693 31.3092 30.7792 31.4247 30.7792C31.5402 30.7792 31.6927 30.6138 31.6927 30.53C31.6927 30.4461 31.7697 30.2139 31.6927 30.0827C31.6247 29.9898 31.5317 29.9184 31.4247 29.877Z" fill="#3E1C66"/>
<path d="M31.414 31.0234C31.2346 31.0234 31.0882 31.23 31.1059 31.4598C31.1237 31.6896 31.0713 31.9047 31.26 31.9474C31.4486 31.9901 31.7082 31.9373 31.7174 31.8185C31.7266 31.6997 31.7174 31.3356 31.7174 31.2385C31.7174 31.1415 31.414 31.0234 31.414 31.0234Z" fill="#3E1C66"/>
<path d="M31.4179 32.2842C31.2238 32.2842 31.0243 32.3851 31.0444 32.6491C31.0644 32.9131 30.9835 33.2912 31.2307 33.3161C31.4779 33.3409 31.6242 33.3479 31.7313 33.1996C31.8383 33.0513 31.7313 32.8005 31.7313 32.549C31.7313 32.2974 31.4179 32.2842 31.4179 32.2842Z" fill="#3E1C66"/>
<path d="M35.6443 26.6942C35.4256 26.6647 35.2515 26.8774 35.2176 26.9636C35.1837 27.0498 35.1645 27.598 35.2377 27.6081C35.3108 27.6182 35.7636 27.8472 35.8822 27.7579C36.0008 27.6686 35.9238 27.1601 35.8583 26.9916C35.8085 26.8784 35.7355 26.7771 35.6443 26.6942Z" fill="#3E1C66"/>
<path d="M35.5935 28.0581C35.3671 28.0294 35.1315 28.1583 35.1376 28.4137C35.1438 28.6692 35.0668 28.9875 35.3902 29.0349C35.7137 29.0823 36.0718 29.1405 35.9832 28.5263C35.8946 27.9121 35.5935 28.0581 35.5935 28.0581Z" fill="#3E1C66"/>
<path d="M35.6459 29.3336C35.4542 29.3026 35.1923 29.433 35.1754 29.6528C35.1584 29.8725 35.1115 30.312 35.1985 30.3943C35.2855 30.4766 35.7375 30.5496 35.8515 30.4463C35.9655 30.343 36.0001 30.1746 35.9778 29.8345C35.9555 29.4944 35.6459 29.3336 35.6459 29.3336Z" fill="#3E1C66"/>
<path d="M35.2172 31.8962C35.1845 31.8517 35.1585 31.8025 35.1402 31.7503C35.1217 31.6789 35.1114 31.6057 35.1094 31.5321C35.121 31.3856 35.144 31.2402 35.1779 31.0973C35.1964 31.0243 35.4328 30.9505 35.7247 30.9125C35.8648 30.8946 35.9773 30.9342 35.9819 31.0087C35.9957 31.2129 36.0065 31.4187 36.0173 31.6245C36.0188 31.6405 36.0188 31.6566 36.0173 31.6726C36.005 31.81 35.7031 31.9055 35.3666 31.9366C35.3137 31.9409 35.2609 31.9266 35.2172 31.8962Z" fill="#3E1C66"/>
<path d="M34.2892 27.0465C34.072 27.0132 33.8941 27.2228 33.8587 27.3082C33.8233 27.3936 33.7948 27.9418 33.8679 27.9527C33.9411 27.9635 34.39 28.2011 34.5094 28.1142C34.6288 28.0272 34.5618 27.5171 34.4986 27.3478C34.4508 27.2335 34.3794 27.1308 34.2892 27.0465Z" fill="#3E1C66"/>
<path d="M34.2377 28.4086C34.012 28.3752 33.7756 28.5002 33.7756 28.7557C33.7756 29.0111 33.6948 29.3287 34.0174 29.3846C34.3401 29.4405 34.6974 29.5026 34.6189 28.8869C34.5403 28.2712 34.2377 28.4086 34.2377 28.4086Z" fill="#3E1C66"/>
<path d="M34.2884 29.6862C34.0974 29.6521 33.8333 29.7778 33.8125 29.9968C33.7917 30.2158 33.7355 30.6552 33.8225 30.7391C33.9095 30.823 34.3562 30.9022 34.4755 30.8028C34.5949 30.7034 34.6295 30.5333 34.6118 30.1925C34.5941 29.8516 34.2884 29.6862 34.2884 29.6862Z" fill="#3E1C66"/>
<path d="M33.8464 32.3312C33.8155 32.286 33.7912 32.2366 33.774 32.1845C33.7573 32.1124 33.7482 32.0387 33.7471 31.9647C33.7616 31.8188 33.7874 31.6742 33.8241 31.5322C33.8441 31.4593 34.0813 31.3894 34.3739 31.3568C34.5141 31.3412 34.6257 31.3824 34.6296 31.4569C34.6396 31.6619 34.6465 31.8677 34.655 32.0734C34.655 32.089 34.6511 32.1053 34.6496 32.1216C34.635 32.259 34.3308 32.3499 33.9943 32.3739C33.9415 32.3781 33.889 32.3629 33.8464 32.3312Z" fill="#3E1C66"/>
<path d="M45.4806 26.133C44.9985 25.8304 44.4692 25.612 43.915 25.487C43.4628 25.3994 43.0004 25.3775 42.542 25.4218C42.6321 24.6531 42.723 24.0047 42.7992 23.6561C43.0479 22.5116 43.3044 19.7994 43.6224 18.8421C43.9405 17.8847 44.0275 15.8915 44.565 15.7852C44.8214 15.8923 45.0109 18.0773 45.0363 18.5657C45.0617 19.054 45.178 21.3438 45.3566 23.7633C45.4044 24.4621 45.446 25.2867 45.4806 26.133Z" fill="#FFD261"/>
<path d="M45.6596 40.6743C45.675 41.7614 45.5726 45.0807 45.4871 47.5925C45.4817 47.7478 45.4763 47.9031 45.4717 48.0584C45.4717 48.112 45.4671 48.1664 45.4663 48.2199C45.4663 48.2976 45.4602 48.3822 45.4579 48.4606C45.1568 48.2277 44.9188 48.0406 44.7871 47.928C44.3312 47.5335 42.8211 46.5063 41.9463 45.9472C41.9463 45.8098 41.9509 45.684 41.9524 45.573C41.9524 45.5458 41.9524 45.5194 41.9524 45.4953C41.9524 45.3928 41.9524 45.3051 41.9524 45.2329V45.163C41.9563 43.836 42.0657 37.3068 42.0657 36.7447C42.0657 36.5187 42.0764 35.6988 42.0895 34.708C43.3135 35.0999 44.511 35.5717 45.6743 36.1204C45.6635 37.9676 45.6481 39.8163 45.6596 40.6743Z" fill="#FFD261"/>
<path d="M45.6863 34.7691C45.6863 35.0246 45.6863 35.2847 45.6817 35.5456C44.5156 34.9854 43.3205 34.4888 42.1016 34.0579C42.1016 33.8319 42.107 33.6021 42.11 33.373C42.9402 33.6821 44.6297 34.3118 45.6863 34.7691Z" fill="#FFD261"/>
<path d="M45.6859 34.0767C44.5308 33.5984 42.9352 33.0472 42.1143 32.7692C42.1266 31.8235 42.1351 30.9523 42.1351 30.4748C42.1351 29.6564 42.2891 27.6896 42.4677 26.0342C42.9446 25.9779 43.427 25.9912 43.9001 26.0738C44.5369 26.1848 45.1361 26.5311 45.5026 26.7804C45.5704 28.6439 45.6097 30.4926 45.6566 31.2776C45.6859 31.7148 45.6921 32.7894 45.6859 34.0767Z" fill="#FFD261"/>
<path d="M49.7594 37.0363C49.7594 37.3407 49.7594 37.6482 49.7594 37.9564C49.2134 37.5861 48.0899 36.8477 46.7861 36.1271C46.7923 35.86 46.7992 35.5913 46.8108 35.3281C47.7657 35.8515 49.1041 36.6442 49.7594 37.0363Z" fill="#FFD261"/>
<path d="M49.7092 27.7416C49.3613 27.5289 48.9941 27.35 48.6126 27.2074C48.2607 27.1017 47.8955 27.0476 47.5283 27.0466C47.5907 26.5264 47.6546 26.0924 47.7201 25.7989C48.0381 24.3655 48.2707 21.2178 48.9668 21.2178C49.4889 21.2178 49.5405 23.9594 49.5991 24.5736C49.6268 24.892 49.6715 26.3059 49.7092 27.7416Z" fill="#FFD261"/>
<path d="M49.7675 30.9793C49.7675 31.4677 49.7614 33.7311 49.7575 36.3121C49.1345 35.9238 47.8847 35.1528 46.8428 34.6132C46.8597 34.3523 46.8813 34.103 46.9067 33.8717C47.053 32.54 47.2432 29.6656 47.4565 27.6328C47.8458 27.637 48.2334 27.6841 48.6124 27.7734C49.0032 27.8737 49.3775 28.0307 49.7236 28.2392C49.7498 29.4062 49.7675 30.5096 49.7675 30.9793Z" fill="#FFD261"/>
<path d="M49.7171 50.915V50.9297C49.7171 51.0027 49.7171 51.0749 49.7171 51.1471V51.3063C49.7171 51.325 49.7171 51.3436 49.7171 51.3622C49.7171 51.5098 49.7132 51.6565 49.7109 51.8009C49.417 51.4952 49.1054 51.2074 48.7776 50.9391C48.5242 50.7504 47.6163 50.085 46.7207 49.411V48.4629C46.7207 47.9971 46.7438 40.1191 46.7738 39.4063C46.7892 39.0103 46.7738 37.9116 46.7831 36.6973C47.8302 37.2781 48.8276 37.9458 49.7648 38.6935C49.7648 41.2659 49.7648 43.7242 49.7779 44.7258C49.7856 45.9658 49.7525 48.5608 49.7171 50.915Z" fill="#FFD261"/>
<path d="M45.0609 13.243C45.0532 13.3773 45.0116 13.5075 44.94 13.6211C44.8568 13.7539 44.7406 13.8494 44.622 13.8393C44.5673 13.8331 44.5138 13.8187 44.4633 13.7966C44.2839 13.7189 44.1145 13.5466 44.1299 13.3641C44.1507 13.1312 44.136 12.9759 44.3162 12.7639C44.4964 12.5519 44.6243 12.6474 44.6243 12.6474C44.91 12.6249 45.0702 12.9735 45.0609 13.243Z" fill="#3E1C66"/>
<path d="M45.0609 13.243C45.0532 13.3773 45.0116 13.5075 44.94 13.6211C44.8568 13.7539 44.7406 13.8494 44.622 13.8393C44.5673 13.8331 44.5138 13.8187 44.4633 13.7966C44.2839 13.7189 44.1145 13.5466 44.1299 13.3641C44.1507 13.1312 44.136 12.9759 44.3162 12.7639C44.4964 12.5519 44.6243 12.6474 44.6243 12.6474C44.91 12.6249 45.0702 12.9735 45.0609 13.243Z" fill="#FFD261"/>
<path d="M49.4591 18.7048C49.466 18.8648 49.4105 19.1389 49.2342 19.2693C49.1718 19.3147 49.097 19.3394 49.0201 19.34C48.8245 19.3454 48.7252 19.2623 48.6766 19.1459C48.6431 19.0549 48.6295 18.9577 48.6366 18.8609C48.6458 18.6497 48.7013 18.447 49.0216 18.3818C49.2804 18.3298 49.4498 18.4929 49.4591 18.7048Z" fill="#3E1C66"/>
<path d="M49.4591 18.7048C49.466 18.8648 49.4105 19.1389 49.2342 19.2693C49.1718 19.3147 49.097 19.3394 49.0201 19.34C48.8245 19.3454 48.7252 19.2623 48.6766 19.1459C48.6431 19.0549 48.6295 18.9577 48.6366 18.8609C48.6458 18.6497 48.7013 18.447 49.0216 18.3818C49.2804 18.3298 49.4498 18.4929 49.4591 18.7048Z" fill="#FFD261"/>
<path d="M48.6124 39.305C48.4368 39.2902 48.4368 39.8283 48.4368 39.9207C48.4368 40.0131 48.4076 41.521 48.4368 41.7524C48.4661 41.9838 48.3814 42.5684 48.6124 42.6756C48.8434 42.7827 49.1253 42.6911 49.1253 41.9985C49.1253 41.3059 49.1984 40.0279 49.1253 39.8283C49.0521 39.6288 48.8034 39.3197 48.6124 39.305Z" fill="#3E1C66"/>
<path d="M47.584 38.6672C47.7573 38.6408 47.9013 38.852 47.9013 39.2674C47.9013 39.6829 47.9152 40.6992 47.9013 40.992C47.8875 41.2847 47.9075 42.0386 47.7473 42.0386C47.5871 42.0386 47.3099 41.8833 47.3099 41.6504V40.2217C47.3084 39.7139 47.2806 38.7131 47.584 38.6672Z" fill="#3E1C66"/>
<path d="M48.9971 44.4749C48.9593 44.4299 48.912 44.3941 48.8587 44.3699C48.8054 44.3457 48.7475 44.3338 48.689 44.3351C48.689 44.3351 48.5573 44.3196 48.5058 44.5983C48.4542 44.8771 48.4095 45.7289 48.4095 46.27C48.4095 46.8112 48.3802 47.7104 48.4095 47.8028C48.4388 47.8952 48.5866 48.1281 48.7945 48.1281C49.0025 48.1281 49.1919 47.8175 49.1919 47.5396C49.1919 47.2616 49.2065 46.2087 49.1919 45.7289C49.1773 45.249 48.9971 44.4749 48.9971 44.4749Z" fill="#3E1C66"/>
<path d="M47.7657 43.6738C47.4191 43.4921 47.3221 43.8594 47.3221 44.2468C47.3221 44.6343 47.2528 45.7633 47.2528 46.143C47.2528 46.5226 47.1557 47.1725 47.433 47.3123C47.7102 47.4521 47.972 47.4979 47.972 46.6135C47.972 45.7291 47.9582 45.1273 47.972 44.7244C47.9859 44.3214 48.0013 43.7981 47.7657 43.6738Z" fill="#3E1C66"/>
<path d="M44.2727 37.0989C44.3897 37.1074 44.667 37.4358 44.667 37.5647C44.667 37.6936 44.6793 38.7054 44.6793 39.1441C44.6793 39.5828 44.613 40.4306 44.5584 40.4454C44.5037 40.4602 44.3743 40.6007 44.1641 40.6007C43.977 40.3973 44.0101 40.2327 44.0101 39.9143C44.0101 39.596 44.0247 38.4515 44.0386 38.012C44.0524 37.5725 44.0547 37.0864 44.2727 37.0989Z" fill="#3E1C66"/>
<path d="M43.0673 36.6889C43.2599 36.7549 43.5833 36.8853 43.5548 37.2324C43.5263 37.5795 43.544 38.3093 43.5548 38.8909C43.5656 39.4725 43.4986 39.9709 43.3838 39.9709C43.2691 39.9709 42.9218 39.7434 42.8525 39.4717C42.7832 39.1999 42.8386 38.5182 42.8525 38.0337C42.8663 37.5492 42.8509 36.6135 43.0673 36.6889Z" fill="#3E1C66"/>
<path d="M44.101 41.6303C44.275 41.583 44.4706 41.7251 44.5553 41.8897C44.64 42.0543 44.6809 42.3229 44.6809 43.7935C44.6809 45.2642 44.764 45.8263 44.5985 45.8263C44.4329 45.8263 43.9685 45.6314 43.9477 45.4707C43.9269 45.31 43.9585 44.1228 43.9477 43.7283C43.937 43.3339 43.9023 41.6847 44.101 41.6303Z" fill="#3E1C66"/>
<path d="M43.2118 41.2034C43.3281 41.2617 43.4751 41.3238 43.5083 41.5319C43.5414 41.74 43.4859 42.5211 43.5083 42.9C43.5306 43.2789 43.5622 45.1168 43.4097 45.1401C43.2572 45.1634 42.876 45.0942 42.8545 44.8528C42.8329 44.6113 42.9084 42.7563 42.9084 42.6228C42.9084 42.4892 42.9523 41.5218 42.9523 41.3727C42.9523 41.2236 43.0678 41.1297 43.2118 41.2034Z" fill="#3E1C66"/>
<path d="M49.0324 29.2564C49.2264 29.23 49.382 29.4195 49.412 29.4956C49.4421 29.5717 49.459 30.06 49.3943 30.0694C49.3296 30.0787 48.9261 30.2813 48.8206 30.2029C48.7151 30.1245 48.7836 29.671 48.8422 29.5212C48.8862 29.4203 48.9511 29.3301 49.0324 29.2564Z" fill="#3E1C66"/>
<path d="M49.0434 30.4671C49.2444 30.4415 49.4562 30.5564 49.4485 30.7831C49.4408 31.0099 49.5116 31.2941 49.2244 31.3391C48.9371 31.3841 48.6175 31.4307 48.6969 30.8872C48.7762 30.3437 49.0434 30.4671 49.0434 30.4671Z" fill="#3E1C66"/>
<path d="M48.9593 31.6016C49.1295 31.5744 49.362 31.6901 49.3774 31.885C49.3928 32.0799 49.4344 32.4712 49.3574 32.545C49.2804 32.6187 48.8807 32.6816 48.776 32.5916C48.6713 32.5015 48.6443 32.3493 48.6643 32.0481C48.6745 31.9553 48.7065 31.8663 48.7579 31.7886C48.8092 31.7109 48.8783 31.6468 48.9593 31.6016Z" fill="#3E1C66"/>
<path d="M48.9818 33.0041C49.0892 33.0084 49.1908 33.0547 49.2648 33.1333C49.3389 33.2119 49.3796 33.3166 49.3783 33.425C49.3706 33.696 49.4515 34.2449 49.259 34.2511C49.0665 34.2573 48.6783 34.1828 48.6275 33.9568C48.588 33.743 48.5812 33.5244 48.6075 33.3085C48.6267 33.2425 48.6244 32.9832 48.9818 33.0041Z" fill="#3E1C66"/>
<path d="M48.1411 28.8892C47.9409 28.9474 47.8801 29.0336 47.8261 29.3255C47.7995 29.5202 47.834 29.7184 47.9247 29.8924C47.9247 29.8924 48.3098 29.9871 48.3752 29.8279C48.4407 29.6687 48.4568 29.324 48.4622 29.2502C48.4676 29.1765 48.2805 28.8488 48.1411 28.8892Z" fill="#3E1C66"/>
<path d="M48.0914 30.1642C47.9528 30.1534 47.7765 30.2209 47.7603 30.349C47.7441 30.4771 47.6771 30.9655 47.7141 30.9702C47.7511 30.9748 47.9028 31.0719 48.0221 31.0812C48.1415 31.0905 48.3071 30.9345 48.3132 30.8483C48.3194 30.7621 48.4126 30.533 48.3471 30.3948C48.2855 30.2949 48.1968 30.2149 48.0914 30.1642Z" fill="#3E1C66"/>
<path d="M47.996 31.323C47.8135 31.309 47.6495 31.507 47.6471 31.7415C47.6448 31.976 47.5778 32.1903 47.7673 32.2485C47.9567 32.3067 48.2224 32.2718 48.2409 32.153C48.2594 32.0342 48.2786 31.6623 48.2848 31.5637C48.2909 31.4651 47.996 31.323 47.996 31.323Z" fill="#3E1C66"/>
<path d="M47.8538 32.5984C48.054 32.5829 48.2666 32.6698 48.2666 32.9408C48.2666 33.2118 48.3782 33.5892 48.1257 33.6342C47.8731 33.6792 47.7221 33.6971 47.6012 33.5566C47.4803 33.416 47.5712 33.1497 47.5519 32.8935C47.5327 32.6372 47.8538 32.5984 47.8538 32.5984Z" fill="#3E1C66"/>
<path d="M43.2116 27.0252C43.4303 26.9957 43.6043 27.2085 43.6382 27.2947C43.6721 27.3809 43.6905 27.929 43.6182 27.9391C43.5458 27.9492 43.0914 28.1783 42.9736 28.089C42.8558 27.9997 42.932 27.4911 42.9975 27.3226C43.0473 27.2094 43.1203 27.1081 43.2116 27.0252Z" fill="#3E1C66"/>
<path d="M43.2629 28.3886C43.4893 28.3591 43.725 28.4887 43.7188 28.7442C43.7126 28.9996 43.7896 29.318 43.4662 29.3653C43.1428 29.4127 42.7839 29.4709 42.8733 28.856C42.9626 28.241 43.2629 28.3886 43.2629 28.3886Z" fill="#3E1C66"/>
<path d="M43.2104 29.6647C43.4021 29.6336 43.6632 29.7641 43.6809 29.9838C43.6986 30.2036 43.7448 30.643 43.6578 30.7253C43.5708 30.8076 43.1187 30.8806 43.0048 30.7774C42.8908 30.6741 42.8561 30.5056 42.8785 30.1655C42.9008 29.8254 43.2104 29.6647 43.2104 29.6647Z" fill="#3E1C66"/>
<path d="M43.6388 32.2263C43.6717 32.1819 43.6976 32.1327 43.7158 32.0803C43.7343 32.0088 43.7446 31.9353 43.7466 31.8614C43.7349 31.7151 43.7119 31.57 43.678 31.4273C43.6588 31.3543 43.4232 31.2806 43.1313 31.2425C42.9911 31.2247 42.8787 31.2643 42.8741 31.3388C42.8602 31.543 42.8494 31.7488 42.8379 31.9545C42.8383 31.9707 42.8399 31.9868 42.8425 32.0027C42.8548 32.1401 43.1567 32.2356 43.4932 32.2667C43.5449 32.2707 43.5964 32.2564 43.6388 32.2263Z" fill="#3E1C66"/>
<path d="M44.5657 27.3766C44.7836 27.3432 44.9615 27.5529 44.9969 27.6383C45.0324 27.7237 45.0601 28.2719 44.9877 28.2827C44.9153 28.2936 44.4656 28.5312 44.3462 28.4442C44.2269 28.3573 44.2939 27.8472 44.357 27.6779C44.4047 27.5637 44.4758 27.461 44.5657 27.3766Z" fill="#3E1C66"/>
<path d="M44.6183 28.7387C44.844 28.7053 45.0804 28.8303 45.0804 29.0858C45.0804 29.3412 45.1612 29.6588 44.8386 29.7147C44.5159 29.7706 44.1586 29.8327 44.2364 29.217C44.3142 28.6012 44.6183 28.7387 44.6183 28.7387Z" fill="#3E1C66"/>
<path d="M44.5641 30.0163C44.7551 29.9821 45.0185 30.1079 45.04 30.3269C45.0616 30.5458 45.117 30.9853 45.0292 31.0692C44.9414 31.153 44.4963 31.2322 44.377 31.1328C44.2576 31.0335 44.223 30.8634 44.2407 30.5225C44.2584 30.1817 44.5641 30.0163 44.5641 30.0163Z" fill="#3E1C66"/>
<path d="M45.0098 32.6613C45.0408 32.6163 45.0649 32.5668 45.0814 32.5146C45.0987 32.4426 45.108 32.3689 45.1091 32.2948C45.0945 32.1489 45.0688 32.0043 45.0321 31.8623C45.0121 31.7893 44.7749 31.7195 44.4823 31.6868C44.3421 31.6713 44.2304 31.7125 44.2266 31.787C44.2166 31.992 44.2096 32.1978 44.2012 32.4035C44.2012 32.419 44.2012 32.4354 44.2066 32.4517C44.2212 32.5891 44.5246 32.6799 44.8611 32.704C44.9141 32.7079 44.9667 32.6927 45.0098 32.6613Z" fill="#3E1C66"/>
<path d="M54.1715 63.817L23.9697 63.7673L24.1823 63.2852C24.3786 62.6477 25.0086 60.6009 25.2049 59.9728C25.436 59.2258 26.7081 56.2567 26.7928 55.8941C26.8776 55.5315 28.0134 52.9676 28.1197 52.8185C28.226 52.6694 28.5224 52.2633 28.5224 52.2633C28.5224 52.2633 29.6868 51.2803 30.068 50.9814C30.4492 50.6825 32.5038 49.0597 32.9943 48.6117C33.4848 48.1636 35.7666 46.6891 36.1717 46.3902C36.5767 46.0913 39.2427 44.3613 39.2427 44.3613C39.2427 44.3613 40.9369 45.3645 41.3828 45.5998C41.8287 45.835 44.199 47.4151 44.7919 47.9292C45.3849 48.4432 48.2881 50.5777 48.7748 50.9403C49.2615 51.3029 50.3419 52.4567 50.3419 52.4567C50.3419 52.4567 50.9988 54.2511 51.2745 55.2977C51.5502 56.3444 52.5235 59.3982 52.7784 60.0341C53.0333 60.67 54.1407 63.7176 54.1754 63.8131L54.1715 63.817Z" fill="#FFD261"/>
<path d="M54.6462 63.0316C54.3004 62.037 53.9231 61.3234 53.8553 61.137C53.7536 60.8567 53.096 58.8931 52.9443 58.2805C52.7926 57.6678 51.3756 53.2048 51.3002 52.7676C51.2247 52.3305 51.0222 52.1045 50.6926 51.7473C50.363 51.3902 47.2272 48.9164 46.8476 48.6353C46.4679 48.3542 43.4831 46.0078 42.8755 45.677C42.2679 45.3462 39.3839 43.6582 39.0551 43.6582C38.7263 43.6582 36.2982 45.5714 36.0449 45.6987C35.7915 45.8261 32.1744 48.6369 31.6431 49.0453C31.1117 49.4537 28.2778 51.5657 28.0237 51.846C27.7696 52.1263 27.4392 52.2707 27.2351 52.8344C27.0311 53.3981 25.2545 57.5467 25.1559 58.1096C25.1013 58.4093 24.3974 60.2232 23.9546 61.8017C23.7151 62.6558 23.4926 62.9889 23.3532 63.4377C23.0551 64.423 23.6951 64.277 24.4251 64.3128C25.1552 64.3485 26.8509 64.3461 29.2951 64.3788C31.7393 64.4114 34.7842 64.305 38.3513 64.5216C41.9183 64.7383 45.1711 64.7119 47.449 64.6257C49.7269 64.5395 53.1114 64.6358 53.1114 64.6358L54.5745 64.5372C54.9681 64.5162 55.0682 64.2468 54.6462 63.0316ZM43.7611 63.6986C43.1227 63.7366 42.3133 63.7576 41.43 63.7669C41.43 63.7379 41.4316 63.7061 41.4347 63.6714C41.4793 62.8173 41.427 60.7566 41.427 60.4002C41.427 59.9793 41.4847 59.1136 41.0673 58.9195C40.6499 58.7254 39.9276 58.7215 39.1221 58.7215C38.3166 58.7215 37.9246 58.6951 37.4634 58.9195C37.0899 59.1004 37.1022 60.5128 37.1022 61.3319C37.1022 61.714 37.0437 63.0999 37.0383 63.6225C37.0383 63.6675 37.0383 63.7001 37.0383 63.7289C37.0387 63.734 37.0387 63.7392 37.0383 63.7444C36.0865 63.7289 35.2371 63.7102 34.6233 63.6947L34.1251 63.6823C34.0266 63.6802 33.9313 63.6465 33.8532 63.586C33.789 63.536 33.7387 63.4701 33.7071 63.3948C33.6755 63.3194 33.6638 63.2371 33.673 63.1558C33.7608 62.3724 33.951 60.8699 34.2051 59.9366C34.5617 58.6291 35.1855 56.0272 35.5143 55.1374C35.8431 54.2475 36.721 51.9679 36.9674 51.3102C37.2139 50.6525 38.1803 48.7696 38.2619 48.6912C38.3436 48.6128 38.8657 47.855 39.3862 47.855C39.9068 47.855 40.5098 48.8488 40.757 49.293C41.0042 49.7371 41.9891 51.8296 42.676 53.5821C43.3629 55.3346 43.7996 57.2128 44.1831 58.5514C44.5666 59.8901 45.1719 62.8685 45.1719 63.4431C45.1688 63.5658 44.6205 63.6481 43.7611 63.6986ZM52.5993 63.7987C52.4676 63.4222 52.0564 62.2373 51.8862 61.5757C51.6821 60.783 51.053 58.5949 50.4492 56.6988C50.2544 56.0846 49.4635 53.7172 48.9406 53.4377C48.5487 53.7483 48.5879 54.0876 48.6465 54.4106C48.705 54.7336 49.3164 57.1981 49.4936 57.7563C49.6707 58.3146 50.5416 61.0478 50.6579 61.547C50.7634 61.9997 51.13 63.5045 51.197 63.7848L49.7338 63.7677C49.6206 62.8903 48.6311 58.9187 48.3731 58.1632C48.1151 57.4077 47.2364 54.3236 46.9454 53.5891C46.6543 52.8546 46.4787 52.1208 46.0705 51.7675C45.6624 51.4142 45.1703 50.9321 44.9 51.4104C44.7845 51.6161 45.1911 53.4082 45.2789 53.7607C45.3667 54.1132 46.7652 58.6384 46.9107 59.2549C47.0563 59.8714 47.8425 63.7017 47.8425 63.7017L47.9465 63.7459L46.4209 63.7304C46.2507 63.0867 45.5015 60.2589 45.3313 59.6424C45.1395 58.9435 44.5219 56.0505 44.1946 55.2166C43.8673 54.3826 42.673 51.1937 42.4234 50.7201C42.1739 50.2464 40.9156 47.9248 40.6692 47.5739C40.4228 47.2229 39.5202 46.7446 39.1406 46.7718C38.7609 46.799 38.0024 47.3658 37.6597 48.0312C37.0182 49.2798 36.2412 51.0943 36.0811 51.4841C35.9209 51.8739 35.0592 54.0146 34.9429 54.4805C34.8266 54.9463 34.182 56.6382 33.6168 59.1788C33.3604 60.3311 32.7974 63.0324 32.685 63.5728L31.0678 63.5542C31.1957 62.7886 31.6562 60.1013 32.0974 58.1842C32.618 55.927 33.2903 53.7832 33.4774 53.1962C33.6645 52.6092 33.6645 52.0843 33.4774 51.7908C33.2903 51.4973 32.7289 51.8949 32.3747 52.1263C32.0204 52.3576 31.6677 53.7413 31.6677 53.7413C31.6677 53.7413 30.3586 58.2502 30.0244 59.2976C29.7587 60.1315 29.2543 62.5743 29.0587 63.5309L27.3406 63.5115C27.4354 63.1527 27.5848 62.5797 27.6348 62.3848C27.7727 61.8413 28.2378 60.1773 28.4103 59.5042C28.7014 58.3674 29.289 56.2764 29.5123 55.5986C29.7356 54.9207 30.0459 54.2654 29.6016 53.937C28.9801 53.937 28.7545 54.5581 28.7183 54.6094C28.7135 54.6166 28.7091 54.6241 28.7052 54.6319C28.6398 54.7949 27.9991 56.1328 27.7403 56.8782C27.651 57.1344 26.9702 59.0748 26.7192 59.8287C26.5729 60.2721 25.9691 62.0323 25.8282 62.5789C25.7697 62.8119 25.6534 63.2094 25.5702 63.4928L24.124 63.475C24.124 63.475 24.9711 60.7201 25.2021 59.9724C25.4332 59.2246 26.7053 56.2562 26.79 55.8936C26.8747 55.531 28.0106 52.9672 28.1169 52.8181C28.2232 52.669 28.5196 52.2629 28.5196 52.2629C28.5196 52.2629 29.684 51.2799 30.0652 50.981C30.4464 50.682 32.501 49.0592 32.9915 48.6112C33.482 48.1632 35.7638 46.6887 36.1689 46.3898C36.5739 46.0908 39.2399 44.3609 39.2399 44.3609C39.2399 44.3609 40.9341 45.3641 41.38 45.5993C41.8259 45.8346 44.1962 47.4147 44.7891 47.9287C45.3821 48.4427 48.2853 50.5772 48.772 50.9398C49.2587 51.3024 50.3391 52.4562 50.3391 52.4562C50.3391 52.4562 50.996 54.2506 51.2717 55.2973C51.5474 56.344 52.5207 59.3978 52.7756 60.0337C53.0305 60.6696 54.1733 63.8143 54.1733 63.8143L52.5993 63.7987Z" fill="#3E1C66"/>
<path d="M39.3396 49.4367C39.8202 49.3435 40.4493 50.884 40.6773 51.3444C40.9052 51.8049 41.395 53.614 41.395 54.2391C41.395 54.8641 41.5914 57.9886 41.164 58.1214C40.7366 58.2541 39.8918 58.2526 39.3366 58.2526C38.7813 58.2526 37.4114 58.22 37.2812 57.2991C37.1511 56.3782 37.1834 54.1078 37.2812 53.2856C37.379 52.4633 38.4918 49.5997 39.3396 49.4367Z" fill="#3E1C66"/>
</g>
<defs>
<clipPath id="clip0_17953_110701">
<rect width="46" height="56.5417" fill="white" transform="translate(16.5 10)"/>
</clipPath>
</defs>
</svg>
